<svg id="Layer_5" enable-background="new 0 0 64 64" height="512" viewBox="0 0 64 64" width="512" xmlns="http://www.w3.org/2000/svg"><path d="m48.246 46.721c.179.652.367 1.302.566 1.949l1.912-.588c-.193-.628-.376-1.258-.551-1.891z"/><path d="m49.671 50.238h1.999v2h-1.999z" transform="matrix(.954 -.301 .301 .954 -13.081 17.645)"/><path d="m51.205 56.281 1.924-.545c-.061-.216-.126-.431-.193-.647l-.407-1.291-1.908.602.407 1.29c.061.195.12.393.177.591z"/><path d="m11.065 55.089c-.176.556-.331 1.123-.462 1.685l1.947.453c.12-.516.261-1.028.422-1.536l.123-.39-1.908-.602z"/><path d="m12.041 51h2.097v1.999h-2.097z" transform="matrix(.301 -.954 .954 .301 -40.438 48.809)"/><path d="m15.054 49.099c1.747-5.53 2.728-11.272 2.913-17.066l-1.998-.064c-.181 5.612-1.13 11.173-2.821 16.526l-.064.203 1.906.606z"/><path d="m54 36h9v2h-9z"/><path d="m56 40h7v2h-7z"/><path d="m1 24h9v2h-9z"/><path d="m1 20h9v2h-9z"/><path d="m52.01 20c.051-6.022 1.034-11.969 2.938-17.684l-1.896-.633c-1.974 5.92-2.992 12.08-3.042 18.317h-2.01v2h2v7.989c0 .883.025 1.765.065 2.646l-3.683 7.365h-4.382v2h5.618l2.745-5.489c.425 3.858 1.224 7.667 2.398 11.383l2.081 6.592c.668 2.116 1.05 4.303 1.139 6.514h-19.981v-8.5c2.289-.614 4-1.79 4-3.5h-2c0 .549-1.395 1.448-3.763 1.823l.615-3.823h1.148c2.206 0 4-1.794 4-4 0-.859-.284-1.711-.8-2.4-.85-1.134-1.955-2.037-3.2-2.655v-9.873c0-3.87 1.37-7.525 3.863-10.433.084.247.137.506.137.775v1l1.465 1.463c.723.725 1.683 1.123 2.707 1.123 2.11 0 3.828-1.717 3.828-3.829 0-.885-.142-1.759-.422-2.6l-.12-.357c-1.044-3.134-3.538-5.628-6.672-6.672l-.358-.12c-.84-.28-1.714-.422-2.6-.422-2.11 0-3.828 1.717-3.828 3.829 0 1.022.398 1.983 1.121 2.707l1.465 1.464h1c.316 0 .621.062.905.177-2.894 3.296-4.491 7.468-4.491 11.894v9.161c-.651-.15-1.322-.232-2-.232s-1.348.082-2 .232v-9.161c0-4.426-1.597-8.598-4.491-11.894.284-.115.59-.177.905-.177h1l1.465-1.465c.723-.723 1.121-1.684 1.121-2.706 0-2.112-1.718-3.829-3.828-3.829-.886 0-1.76.142-2.6.422l-.358.12c-3.134 1.044-5.628 3.539-6.672 6.671l-.121.36c-.279.839-.421 1.713-.421 2.598 0 2.112 1.718 3.829 3.828 3.829 1.023 0 1.984-.398 2.707-1.122l1.465-1.463v-1c0-.269.053-.528.137-.776 2.493 2.908 3.863 6.562 3.863 10.432v9.873c-1.246.619-2.35 1.522-3.201 2.656-.515.689-.799 1.541-.799 2.4 0 2.206 1.794 4 4 4h1.146l.606 3.821c-2.362-.376-3.752-1.273-3.752-1.821h-2c0 1.71 1.711 2.886 4 3.5v8.5h-19.98c.089-2.211.471-4.397 1.138-6.513l2.082-6.593c1.831-5.799 2.76-11.823 2.76-17.905v-.52l5.641-4.701-1.281-1.536-4.36 3.633v-6.378c0-6.404-1.026-12.73-3.052-18.803l-1.896.632c1.956 5.869 2.948 11.982 2.948 18.171v7.513h-11v2h11c-.001 5.874-.898 11.692-2.667 17.292l-2.083 6.593c-.829 2.629-1.25 5.36-1.25 8.115v1h24v-10.121c.655.078 1.328.121 2 .121s1.345-.043 2-.121v10.121h24v-1c0-2.755-.421-5.486-1.251-8.116l-2.082-6.593c-1.366-4.325-2.206-8.781-2.521-13.292h10.854v-2h-10.962c-.023-.669-.038-1.339-.038-2.01v-7.989h11v-2zm-14.596-6-.879-.878c-.345-.346-.535-.805-.535-1.293 0-1.009.82-1.829 1.828-1.829.67 0 1.332.107 1.967.319l.358.12c2.54.846 4.562 2.868 5.408 5.408l.119.357c.213.636.32 1.297.32 1.967 0 1.009-.82 1.829-1.828 1.829-.481 0-.952-.195-1.293-.536l-.879-.879v-.171c0-1.18-.459-2.288-1.293-3.122s-1.942-1.292-3.121-1.292zm-15.414 4.414v.171l-.879.879c-.341.341-.811.536-1.293.536-1.008 0-1.828-.82-1.828-1.829 0-.67.107-1.332.318-1.965l.12-.36c.847-2.539 2.868-4.561 5.408-5.407l.358-.12c.636-.212 1.298-.319 1.968-.319 1.008 0 1.828.82 1.828 1.829 0 .488-.19.948-.535 1.293l-.879.878h-.172c-1.179 0-2.287.459-3.121 1.292s-1.293 1.942-1.293 3.122zm4 24.586c0-.43.142-.856.399-1.2 1.316-1.753 3.409-2.8 5.601-2.8s4.285 1.047 5.6 2.8c.258.344.4.77.4 1.2 0 1.103-.897 2-2 2h-1.171c-.413-1.164-1.525-2-2.829-2s-2.416.836-2.829 2h-1.171c-1.103 0-2-.897-2-2zm5.803 7.992-.797-5.025c.02-.535.454-.967.994-.967.539 0 .973.431.993.965l-.809 5.027c-.064.001-.12.008-.184.008-.069 0-.129-.008-.197-.008z"/><path d="m54 24h9v2h-9z"/></svg>