<svg id="Layer_5" enable-background="new 0 0 64 64" height="512" viewBox="0 0 64 64" width="512" xmlns="http://www.w3.org/2000/svg"><path d="m63 1h-46v5.264c-1.135-.794-2.513-1.264-4-1.264-3.86 0-7 3.14-7 7 0 2.358 1.175 4.443 2.967 5.712-4.636 1.662-7.967 6.088-7.967 11.288v7c0 2.757 2.243 5 5 5v18c0 2.206 1.794 4 4 4 1.2 0 2.266-.542 3-1.382.734.84 1.8 1.382 3 1.382 2.206 0 4-1.794 4-4v-2h43zm-55 11c0-2.757 2.243-5 5-5s5 2.243 5 5-2.243 5-5 5-5-2.243-5-5zm10 14v33c0 1.103-.897 2-2 2s-2-.897-2-2v-25h-2v25c0 1.103-.897 2-2 2s-2-.897-2-2v-33h-2v13c-1.654 0-3-1.346-3-3v-7c0-5.514 4.486-10 10-10s10 4.486 10 10v7c0 1.654-1.346 3-3 3v-13zm43 29h-41v-14c2.757 0 5-2.243 5-5v-7c0-5.2-3.331-9.626-7.967-11.288 1.792-1.269 2.967-3.354 2.967-5.712 0-1.312-.369-2.536-1-3.587v-5.413h42z"/><path d="m49 46h1c.551 0 1 .449 1 1s-.449 1-1 1h-1v2h1c1.654 0 3-1.346 3-3s-1.346-3-3-3h-1c-1.29 0-2.568.426-3.599 1.199l1.2 1.601c.687-.516 1.539-.8 2.399-.8z"/><path d="m33.399 47.201c-.687.515-1.539.799-2.399.799h-1c-.551 0-1-.449-1-1s.449-1 1-1h1v-2h-1c-1.654 0-3 1.346-3 3s1.346 3 3 3h1c1.29 0 2.568-.426 3.6-1.199.458-.344.957-.647 1.481-.9l-.869-1.802c-.642.31-1.252.681-1.813 1.102z"/><path d="m26 13h11v2h-9c-1.654 0-3 1.346-3 3s1.346 3 3 3h9v2h-7c-1.654 0-3 1.346-3 3s1.346 3 3 3h7v2h-5c-1.654 0-3 1.346-3 3s1.346 3 3 3h5v5c-1.72-1.29-3.851-2-6-2h-1c-3.86 0-7 3.14-7 7s3.14 7 7 7h1c2.149 0 4.28-.71 6-2 1.719-1.29 4.281-1.291 6 0 1.72 1.29 3.851 2 6 2h1c3.86 0 7-3.14 7-7s-3.14-7-7-7h-1c-2.149 0-4.28.71-6 2v-5h5c1.654 0 3-1.346 3-3s-1.346-3-3-3h-5v-2h7c1.654 0 3-1.346 3-3s-1.346-3-3-3h-7v-2h9c1.654 0 3-1.346 3-3s-1.346-3-3-3h-9v-2h11c1.654 0 3-1.346 3-3s-1.346-3-3-3h-11v-2h-2v37.86c-.66.128-1.34.127-2 0v-37.86h-2v2h-11c-1.654 0-3 1.346-3 3s1.346 3 3 3zm22 20c.551 0 1 .449 1 1s-.449 1-1 1h-5v-2zm2-8c.551 0 1 .449 1 1s-.449 1-1 1h-7v-2zm2-8c.551 0 1 .449 1 1s-.449 1-1 1h-9v-2zm2-8c.551 0 1 .449 1 1s-.449 1-1 1h-11v-2zm-9.8 34.6c1.375-1.032 3.081-1.6 4.8-1.6h1c2.757 0 5 2.243 5 5s-2.243 5-5 5h-1c-1.719 0-3.424-.568-4.8-1.6-1.203-.903-2.695-1.4-4.2-1.4s-2.997.497-4.2 1.4c-1.376 1.032-3.081 1.6-4.8 1.6h-1c-2.757 0-5-2.243-5-5s2.243-5 5-5h1c1.719 0 3.424.568 4.8 1.6 2.407 1.806 5.993 1.806 8.4 0zm-16.2-24.6c-.551 0-1-.449-1-1s.449-1 1-1h9v2zm2 8c-.551 0-1-.449-1-1s.449-1 1-1h7v2zm2 8c-.551 0-1-.449-1-1s.449-1 1-1h5v2zm-6-26h11v2h-11c-.551 0-1-.449-1-1s.449-1 1-1z"/></svg>