<svg id="Layer_5" enable-background="new 0 0 64 64" height="512" viewBox="0 0 64 64" width="512" xmlns="http://www.w3.org/2000/svg"><path d="m63 12c0-6.065-4.935-11-11-11-3.552 0-6.87 1.728-8.925 4.579-2.834-2.287-6.798-3.579-11.075-3.579s-8.241 1.292-11.075 3.579c-2.055-2.851-5.373-4.579-8.925-4.579-6.065 0-11 4.935-11 11 0 2.889 1.155 5.654 3.169 7.703-.108.418-.169.851-.169 1.297 0 3.309 3.141 6 7 6s7-2.691 7-6-3.141-6-7-6c-.929 0-1.815.159-2.627.442-.917-.964-1.411-2.246-1.37-3.597.08-2.671 2.435-4.845 5.249-4.845 1.931 0 3.667 1.073 4.53 2.8l.891 1.782c1.522 3.045 2.327 6.453 2.327 9.857 0 2.574-.444 5.103-1.321 7.515-.766 2.107-1.679 5.212-1.679 8.046 0 3.844 5.295 6.929 10 8.912v12.088c0 2.757 2.243 5 5 5s5-2.243 5-5v-12.088c4.705-1.984 10-5.068 10-8.912 0-2.834-.913-5.939-1.679-8.046-.877-2.412-1.321-4.94-1.321-7.515 0-3.404.805-6.812 2.327-9.857l.891-1.782c.863-1.727 2.6-2.8 4.53-2.8 2.814 0 5.169 2.174 5.249 4.846.041 1.351-.453 2.633-1.37 3.597-.812-.284-1.698-.443-2.627-.443-3.859 0-7 2.691-7 6s3.141 6 7 6 7-2.691 7-6c0-.446-.061-.879-.169-1.297 2.014-2.049 3.169-4.814 3.169-7.703zm-47 9c0 2.206-2.243 4-5 4s-5-1.794-5-4 2.243-4 5-4 5 1.794 5 4zm11 10v12.732c-4.632-2.059-7.508-4.317-7.938-6.238l1.728-1.152c2.714-1.81 4.767-4.342 5.992-7.342h2.218v2zm.505-12.101-1.364-4.573c-.094-.314-.141-.638-.141-.963 0-1.854 1.509-3.363 3.363-3.363h5.273c1.855 0 3.364 1.509 3.364 3.363 0 .324-.047.648-.14.961l-1.378 4.619c-.32 1.285-.482 2.605-.482 3.927 0 .044.004.086.005.13h-1.005v-4h-6v4h-1.005c0-.044.005-.086.005-.13 0-1.322-.162-2.642-.495-3.971zm11.495 8.101h-4v-2h4zm-8 4v-10h2v10zm-2-6v2h-4v-2zm6 33c0 1.654-1.346 3-3 3s-3-1.346-3-3v-25h6zm2-14.268v-12.732h-2v-2h2.218c1.225 3 3.278 5.532 5.992 7.342l1.728 1.152c-.43 1.921-3.306 4.178-7.938 6.238zm14.748-38.732c-2.693 0-5.115 1.496-6.319 3.905l-.891 1.782c-1.66 3.322-2.538 7.04-2.538 10.752 0 2.808.485 5.566 1.442 8.198.531 1.462 1.138 3.432 1.411 5.396l-.534-.356c-2.146-1.431-3.822-3.378-4.919-5.677h1.6v-6h-2.995c0-.043-.005-.086-.005-.13 0-1.159.143-2.317.411-3.398l1.366-4.577c.148-.499.223-1.014.223-1.532 0-2.957-2.406-5.363-5.363-5.363h-5.273c-2.958 0-5.364 2.406-5.364 5.363 0 .518.075 1.032.224 1.533l1.353 4.531c.28 1.126.423 2.284.423 3.443 0 .044-.004.086-.005.13h-2.995v6h1.6c-1.097 2.299-2.772 4.246-4.919 5.678l-.534.356c.273-1.964.88-3.934 1.411-5.396.957-2.632 1.442-5.391 1.442-8.199 0-3.713-.878-7.431-2.538-10.752l-.891-1.782c-1.204-2.409-3.626-3.905-6.319-3.905-3.885 0-7.136 3.044-7.249 6.785-.051 1.692.506 3.303 1.542 4.591-.56.397-1.042.87-1.436 1.396-1.346-1.611-2.109-3.651-2.109-5.772 0-4.963 4.037-9 9-9 3.24 0 6.245 1.76 7.842 4.593l.638 1.132.932-.907c2.451-2.391 6.41-3.818 10.588-3.818s8.137 1.427 10.589 3.817l.932.907.638-1.132c1.596-2.832 4.601-4.592 7.841-4.592 4.963 0 9 4.037 9 9 0 2.121-.763 4.161-2.109 5.772-.394-.526-.876-.999-1.436-1.396 1.036-1.288 1.593-2.899 1.542-4.591-.113-3.741-3.364-6.785-7.249-6.785zm1.252 20c-2.757 0-5-1.794-5-4s2.243-4 5-4 5 1.794 5 4-2.243 4-5 4z"/></svg>