<svg id="teeth_x5F_cleaning" enable-background="new 0 0 300 300" height="512" viewBox="0 0 300 300" width="512" xmlns="http://www.w3.org/2000/svg"><g><path d="m40 118.651c-2.362 0-4.276 1.915-4.276 4.277s1.915 4.276 4.276 4.276 4.277-1.915 4.277-4.276-1.915-4.277-4.277-4.277z"/><path d="m58.995 54c2.209 0 4-1.791 4-4v-8c0-2.209-1.791-4-4-4s-4 1.791-4 4v8c0 2.209 1.791 4 4 4z"/><path d="m62.995 74v-8c0-2.209-1.791-4-4-4s-4 1.791-4 4v8c0 2.209 1.791 4 4 4s4-1.791 4-4z"/><path d="m50.995 54h-8c-2.209 0-4 1.791-4 4s1.791 4 4 4h8c2.209 0 4-1.791 4-4s-1.792-4-4-4z"/><path d="m66.995 62h8c2.209 0 4-1.791 4-4s-1.791-4-4-4h-8c-2.209 0-4 1.791-4 4s1.791 4 4 4z"/><path d="m236.995 214c-7.719 0-14 6.281-14 14s6.281 14 14 14 14-6.281 14-14-6.282-14-14-14zm0 20c-3.309 0-6-2.691-6-6s2.691-6 6-6 6 2.691 6 6-2.692 6-6 6z"/><path d="m260 162.651c-2.362 0-4.276 1.915-4.276 4.277s1.915 4.276 4.276 4.276 4.277-1.915 4.277-4.276-1.915-4.277-4.277-4.277z"/><path d="m230.368 121.383c-.52-5.076-1.783-10.004-3.745-14.713.125.003.247.025.372.025 9.205 0 16.695-7.49 16.695-16.695 0-3.779-1.297-7.4-3.639-10.328.791-1.783 1.201-3.701 1.201-5.672 0-7.861-6.396-14.258-14.258-14.258-3.824 0-7.357 1.52-9.951 4.076-3.673-3.681-8.673-5.818-14.048-5.818-9.667 0-17.75 6.897-19.598 16.027-13.473-1.51-26.825 2.03-37.666 10.026-.414.305-.984.303-1.398.002-11-8.113-24.578-11.654-38.246-9.984-24.369 2.982-43.879 22.879-46.391 47.311-1.344 13.055 2.076 26.062 9.629 36.631.454.635.89 1.283 1.333 1.926-2.254 2.758-3.663 6.231-3.663 10.062 0 4.074 1.588 7.984 4.354 10.928-.234 1.01-.354 2.037-.354 3.072 0 7.719 6.281 14 14 14 .194 0 .379-.057.572-.065.163 22.984 2.824 40.987 7.914 53.502 2.611 6.416 8.912 10.562 16.049 10.562 9.631 0 17.465-7.834 17.465-17.465v-44.535c0-9.926 8.074-18 18-18s18 8.074 18 18v44.49c0 9.654 7.855 17.51 17.51 17.51 7.162 0 13.477-4.158 16.088-10.592 5.092-12.529 7.75-30.553 7.906-53.57.018-2.727.625-6.396 1.805-10.906 2.43-9.268 7.152-18.729 14.436-28.92 7.551-10.569 10.971-23.576 9.628-36.629zm-27.373-55.383c4.537 0 8.635 2.562 10.691 6.688.729 1.461 2.273 2.324 3.889 2.203 1.623-.125 3.01-1.223 3.502-2.775.834-2.615 3.211-4.373 5.918-4.373 3.451 0 6.258 2.807 6.258 6.258 0 1.719-.734 3.021-1.35 3.812-1.328 1.705-1.061 4.156.602 5.535 2.025 1.68 3.186 4.104 3.186 6.652 0 4.795-3.9 8.695-8.695 8.695-1.453 0-2.887-.396-4.26-1.178-1.055-.602-2.328-.691-3.453-.242-1.129.447-1.992 1.383-2.35 2.543-.814 2.656-3.201 4.439-5.938 4.439-3.451 0-6.258-2.807-6.258-6.258 0-.857.184-1.705.543-2.516.523-1.182.445-2.545-.213-3.658-.656-1.113-1.812-1.84-3.1-1.949-6.256-.539-10.973-5.645-10.973-11.877.001-6.616 5.383-11.999 12.001-11.999zm-124 118c0-.855.205-1.719.609-2.564.834-1.744.299-3.836-1.268-4.967-2.123-1.535-3.342-3.893-3.342-6.469 0-4.412 3.588-8 8-8s8 3.588 8 8c0 1-.199 2.004-.592 2.98-.574 1.43-.277 3.061.762 4.195 1.041 1.137 2.646 1.574 4.113 1.123.672-.203 1.217-.299 1.717-.299 3.309 0 6 2.691 6 6s-2.691 6-6 6c-1.613 0-2.842-.672-3.59-1.236-.713-.539-1.561-.809-2.41-.809s-1.697.27-2.41.809c-.748.564-1.977 1.236-3.59 1.236-3.308.001-5.999-2.69-5.999-5.999zm135.236-30.641c-7.859 10.998-12.984 21.316-15.666 31.545-1.35 5.156-2.045 9.49-2.066 12.881-.146 21.688-2.676 39.189-7.318 50.613-1.359 3.35-4.846 5.602-8.676 5.602-5.244 0-9.51-4.266-9.51-9.51v-44.49c0-14.336-11.664-26-26-26s-26 11.664-26 26v44.535c0 5.219-4.246 9.465-9.465 9.465-3.809 0-7.281-2.242-8.639-5.578-4.646-11.424-7.18-28.934-7.326-50.637 0-.082-.018-.18-.019-.263 1.122.292 2.271.478 3.449.478 7.719 0 14-6.281 14-14 0-7.041-5.225-12.885-12-13.857 0-.047 0-.096 0-.143 0-8.822-7.178-16-16-16-2.092 0-4.08.43-5.913 1.163-.416-.601-.824-1.209-1.249-1.804-6.418-8.98-9.322-20.047-8.18-31.16 2.135-20.754 18.707-37.654 39.406-40.188 11.623-1.428 23.178 1.588 32.527 8.482 3.207 2.363 7.684 2.361 10.891-.002 9.348-6.893 20.877-9.9 32.525-8.48.153.019.303.047.455.067 1.447 7.009 6.501 12.678 13.318 14.866-.025.35-.039.701-.039 1.055 0 7.861 6.396 14.258 14.258 14.258 3.034 0 5.82-1.032 8.158-2.695 1.707 4.045 2.81 8.278 3.258 12.638 1.143 11.112-1.761 22.179-8.179 31.159z"/><path d="m168.995 119.387c-2.547 0-4.612 2.065-4.612 4.613s2.065 4.612 4.612 4.612 4.612-2.065 4.612-4.612-2.065-4.613-4.612-4.613z"/><path d="m112.995 119.387c-2.547 0-4.612 2.065-4.612 4.613s2.065 4.612 4.612 4.612 4.612-2.065 4.612-4.612-2.065-4.613-4.612-4.613z"/><path d="m161.371 145.816c-2.123-.619-4.344.566-4.982 2.682-.951 3.166-4.297 4.975-7.471 4.021-2.123-.619-4.346.566-4.982 2.682-.635 2.117.566 4.346 2.682 4.982 1.338.4 2.688.592 4.018.592 6.021 0 11.6-3.92 13.418-9.977.634-2.114-.567-4.345-2.683-4.982z"/></g></svg>