<svg id="denture" enable-background="new 0 0 300 300" height="512" viewBox="0 0 300 300" width="512" xmlns="http://www.w3.org/2000/svg"><g><path d="m189.005 38.878c2.362 0 4.277-1.915 4.277-4.276s-1.915-4.277-4.277-4.277-4.276 1.915-4.276 4.277 1.915 4.276 4.276 4.276z"/><path d="m248 61.675c2.211 0 4-1.791 4-4v-8c0-2.209-1.789-4-4-4s-4 1.791-4 4v8c0 2.209 1.789 4 4 4z"/><path d="m248 69.675c-2.211 0-4 1.791-4 4v8c0 2.209 1.789 4 4 4s4-1.791 4-4v-8c0-2.209-1.789-4-4-4z"/><path d="m232 69.675h8c2.211 0 4-1.791 4-4s-1.789-4-4-4h-8c-2.211 0-4 1.791-4 4s1.789 4 4 4z"/><path d="m264 61.675h-8c-2.211 0-4 1.791-4 4s1.789 4 4 4h8c2.211 0 4-1.791 4-4s-1.789-4-4-4z"/><path d="m46 241.675c-7.719 0-14 6.281-14 14s6.281 14 14 14 14-6.281 14-14-6.281-14-14-14zm0 20c-3.309 0-6-2.691-6-6s2.691-6 6-6 6 2.691 6 6-2.691 6-6 6z"/><path d="m117.005 250.325c-2.362 0-4.276 1.915-4.276 4.277s1.915 4.276 4.276 4.276 4.277-1.915 4.277-4.276-1.915-4.277-4.277-4.277z"/><path d="m245.945 99.694c-57.617-16.538-116.055-17.113-173.673-1.725l-2.502-1.369-6.262-11.451c-1.398-2.562-5.617-2.562-7.016 0l-6.262 11.451-11.453 6.262c-1.285.701-2.082 2.047-2.082 3.51s.797 2.809 2.082 3.51l11.453 6.262 5.788 10.584c0 .032-.018.058-.018.09v20.879c0 7.707 6.273 13.979 13.98 13.979h2.02v12h-2.02c-7.707 0-13.98 6.271-13.98 13.979v29.396c0 6.936 5.145 12.889 11.965 13.852 28.016 3.953 56.77 5.932 86.07 5.932 29.465 0 59.477-2 89.828-6 6.918-.91 12.137-6.879 12.137-13.883v-29.297c0-7.707-6.273-13.979-13.98-13.979h-2.02v-12h2.02c7.707 0 13.98-6.271 13.98-13.979v-34.559c0-6.217-4.137-11.747-10.055-13.444zm-190.851 9.992-6.062-3.314 6.062-3.314c.672-.367 1.223-.92 1.59-1.59l3.316-6.063 3.316 6.062c.367.67.918 1.223 1.59 1.59l6.062 3.314-6.062 3.314c-.672.367-1.223.92-1.59 1.59l-3.316 6.064-3.316-6.062c-.368-.671-.918-1.223-1.59-1.591zm32.906 83.989c-4.41 0-8-3.588-8-8v-16h16v16c0 4.412-3.59 8-8 8zm16-8v-8h16v16c0 4.412-3.59 8-8 8s-8-3.588-8-8zm24-8h24v16c0 6.617-5.383 12-12 12s-12-5.383-12-12zm32 0h24v16c0 6.617-5.383 12-12 12s-12-5.383-12-12zm32 0h16v8 8c0 4.412-3.59 8-8 8s-8-3.588-8-8zm24-8h16v16c0 4.412-3.59 8-8 8s-8-3.588-8-8zm16-8h-16v-12-4c0-4.412 3.59-8 8-8s8 3.588 8 8zm-24 8h-16v-20c0-4.412 3.59-8 8-8s8 3.588 8 8zm-24 0h-24v-20c0-6.617 5.383-12 12-12s12 5.383 12 12zm-32 0h-24v-20c0-6.617 5.383-12 12-12s12 5.383 12 12zm-32 0h-16v-20c0-4.412 3.59-8 8-8s8 3.588 8 8zm-24-8h-16v-16c0-4.412 3.59-8 8-8s8 3.588 8 8zm146.02 20c3.297 0 5.98 2.682 5.98 5.979v29.297c0 3.004-2.227 5.562-5.184 5.953-59.809 7.881-118.262 7.908-173.734.076-2.898-.408-5.082-2.957-5.082-5.93v-29.396c0-3.297 2.684-5.979 5.98-5.979h2.02v4c0 8.822 7.176 16 16 16 3.316 0 6.399-1.016 8.957-2.75 2.185 6.237 8.067 10.75 15.043 10.75 4.475 0 8.514-1.856 11.42-4.826 3.598 5.321 9.688 8.826 16.58 8.826 6.565 0 12.351-3.223 16-8.124 3.649 4.901 9.435 8.124 16 8.124 6.893 0 12.982-3.505 16.58-8.826 2.906 2.97 6.945 4.826 11.42 4.826 6.976 0 12.858-4.513 15.043-10.75 2.558 1.734 5.641 2.75 8.957 2.75 8.824 0 16-7.178 16-16v-4zm5.98-33.979c0 3.297-2.684 5.979-5.98 5.979h-2.02v-8c0-8.822-7.176-16-16-16-5.84 0-10.904 3.177-13.698 7.86-2.792-2.373-6.359-3.86-10.302-3.86-4.475 0-8.514 1.856-11.42 4.826-3.598-5.321-9.688-8.826-16.58-8.826-6.565 0-12.351 3.223-16 8.124-3.649-4.901-9.435-8.124-16-8.124-6.893 0-12.982 3.505-16.58 8.826-2.906-2.97-6.945-4.826-11.42-4.826-3.943 0-7.51 1.487-10.302 3.86-2.794-4.683-7.858-7.86-13.698-7.86-8.824 0-16 7.178-16 16v8h-2.02c-3.297 0-5.98-2.682-5.98-5.979v-20.879c0-.032-.018-.058-.018-.09l5.788-10.584 11.453-6.262c1.285-.701 2.082-2.047 2.082-3.51 0-1.001-.395-1.93-1.042-2.653 53.634-12.917 107.908-11.713 161.476 3.664 2.508.719 4.262 3.086 4.262 5.754v34.56z"/><path d="m171.918 114.27c-6.395 0-12.406 2.49-16.922 7.01-1.562 1.562-1.562 4.096 0 5.658.781.779 1.805 1.17 2.828 1.17s2.047-.391 2.828-1.172c3.008-3.01 7.008-4.666 11.266-4.666 3.93 0 7.707 1.443 10.633 4.062 1.641 1.477 4.168 1.338 5.648-.309 1.473-1.646 1.336-4.176-.312-5.648-4.395-3.937-10.067-6.105-15.969-6.105z"/></g></svg>