<svg id="dental_x5F_implant" enable-background="new 0 0 300 300" height="512" viewBox="0 0 300 300" width="512" xmlns="http://www.w3.org/2000/svg"><g><path d="m46.364 154.651c-2.362 0-4.276 1.915-4.276 4.277s1.915 4.276 4.276 4.276 4.277-1.915 4.277-4.276-1.915-4.277-4.277-4.277z"/><path d="m57.359 50c2.209 0 4-1.791 4-4v-8c0-2.209-1.791-4-4-4s-4 1.791-4 4v8c0 2.209 1.791 4 4 4z"/><path d="m57.359 58c-2.209 0-4 1.791-4 4v8c0 2.209 1.791 4 4 4s4-1.791 4-4v-8c0-2.209-1.791-4-4-4z"/><path d="m49.359 50h-8c-2.209 0-4 1.791-4 4s1.791 4 4 4h8c2.209 0 4-1.791 4-4s-1.791-4-4-4z"/><path d="m77.359 54c0-2.209-1.791-4-4-4h-8c-2.209 0-4 1.791-4 4s1.791 4 4 4h8c2.209 0 4-1.791 4-4z"/><path d="m235.359 226c-7.719 0-14 6.281-14 14s6.281 14 14 14 14-6.281 14-14-6.281-14-14-14zm0 20c-3.309 0-6-2.691-6-6s2.691-6 6-6 6 2.691 6 6-2.691 6-6 6z"/><path d="m258.364 178.651c-2.362 0-4.276 1.915-4.276 4.277s1.915 4.276 4.276 4.276 4.277-1.915 4.277-4.276-1.915-4.277-4.277-4.277z"/><path d="m186.259 161.898c2.152-.498 3.494-2.645 2.998-4.799-.5-2.154-2.656-3.492-4.799-2.998l-7.1 1.638v-5.739h4c2.209 0 4-1.791 4-4v-16h46.49c1.277 0 2.477-.609 3.23-1.641 7.57-10.365 11-23.129 9.652-35.939-2.514-23.943-22.027-43.439-46.4-46.357-13.65-1.643-27.213 1.832-38.203 9.76-.426.305-1.039.305-1.465 0-10.988-7.928-24.541-11.398-38.203-9.76-24.368 2.917-43.883 22.414-46.399 46.357-1.348 12.811 2.082 25.574 9.652 35.939.754 1.031 1.953 1.641 3.23 1.641h33.227c2.209 0 4-1.791 4-4s-1.791-4-4-4h-31.138c-5.598-8.447-8.084-18.578-7.014-28.744 2.129-20.264 18.697-36.771 39.396-39.252 11.639-1.381 23.209 1.555 32.57 8.307 3.238 2.336 7.586 2.336 10.824 0 9.357-6.75 20.922-9.699 32.57-8.307 20.701 2.48 37.27 18.988 39.396 39.252 1.07 10.166-1.416 20.297-7.014 28.744h-44.402v-16c0-2.209-1.791-4-4-4h-44c-2.209 0-4 1.791-4 4v40c0 2.209 1.791 4 4 4h4v14.048l-8.9 2.054c-2.152.498-3.494 2.645-2.998 4.799.428 1.85 2.074 3.1 3.895 3.1.299 0 .602-.033.904-.102l7.1-1.638v11.788l-8.9 2.054c-2.152.498-3.494 2.645-2.998 4.799.428 1.85 2.074 3.1 3.895 3.1.299 0 .602-.033.904-.102l7.1-1.638v11.788l-8.9 2.054c-2.152.498-3.494 2.645-2.998 4.799.428 1.85 2.074 3.1 3.895 3.1.299 0 .602-.033.904-.102l7.1-1.638v11.788l-8.9 2.054c-2.152.498-3.494 2.645-2.998 4.799.428 1.85 2.074 3.1 3.895 3.1.299 0 .602-.033.904-.102l7.1-1.638v11.788l-8.9 2.054c-2.152.498-3.494 2.645-2.998 4.799.428 1.85 2.074 3.1 3.895 3.1.299 0 .602-.033.904-.102l7.626-1.76c1.881 7.929 8.978 13.861 17.473 13.861 9.926 0 18-8.074 18-18v-4.048l8.9-2.054c2.152-.498 3.494-2.645 2.998-4.799-.5-2.154-2.656-3.49-4.799-2.998l-7.1 1.638v-11.788l8.9-2.054c2.152-.498 3.494-2.645 2.998-4.799-.5-2.154-2.656-3.492-4.799-2.998l-7.1 1.638v-11.788l8.9-2.054c2.152-.498 3.494-2.645 2.998-4.799-.5-2.154-2.656-3.492-4.799-2.998l-7.1 1.638v-11.788l8.9-2.054c2.152-.498 3.494-2.645 2.998-4.799-.5-2.154-2.656-3.492-4.799-2.998l-7.1 1.638v-11.788zm-44.9-51.898h36v32h-36zm8 40h20v7.586l-20 4.615zm20 98c0 5.514-4.486 10-10 10-4.703 0-8.632-3.275-9.694-7.657l19.694-4.545zm0-10.414-20 4.615v-11.788l20-4.615zm0-20-20 4.615v-11.788l20-4.615zm0-20-20 4.615v-11.788l20-4.615zm0-20-20 4.615v-11.788l20-4.615z"/></g></svg>