<svg id="dentist_x5F_chair" enable-background="new 0 0 300 300" height="512" viewBox="0 0 300 300" width="512" xmlns="http://www.w3.org/2000/svg"><g><path d="m34.641 256.651c-2.362 0-4.276 1.915-4.276 4.277s1.915 4.276 4.276 4.276 4.277-1.915 4.277-4.276-1.915-4.277-4.277-4.277z"/><path d="m61.635 200c2.211 0 4-1.791 4-4v-8c0-2.209-1.789-4-4-4s-4 1.791-4 4v8c0 2.209 1.79 4 4 4z"/><path d="m61.635 208c-2.211 0-4 1.791-4 4v8c0 2.209 1.789 4 4 4s4-1.791 4-4v-8c0-2.209-1.789-4-4-4z"/><path d="m53.635 200h-8c-2.211 0-4 1.791-4 4s1.789 4 4 4h8c2.211 0 4-1.791 4-4s-1.789-4-4-4z"/><path d="m77.635 200h-8c-2.211 0-4 1.791-4 4s1.789 4 4 4h8c2.211 0 4-1.791 4-4s-1.789-4-4-4z"/><path d="m255.635 80c-7.719 0-14 6.281-14 14s6.281 14 14 14 14-6.281 14-14-6.281-14-14-14zm0 20c-3.309 0-6-2.691-6-6s2.691-6 6-6 6 2.691 6 6-2.691 6-6 6z"/><path d="m218.641 45.204c2.362 0 4.277-1.915 4.277-4.276s-1.915-4.277-4.277-4.277-4.276 1.915-4.276 4.277 1.914 4.276 4.276 4.276z"/><path d="m252.229 206.514-44.609-26.494c-6.751-4.008-14.243-6.561-21.984-7.548v-32.472h38c5.516 0 10-4.486 10-10s-4.484-10-10-10h-38v-64c0-13.234-10.766-24-24-24h-20c-8.621 0-16.515 4.626-20.794 12.08-10.653.427-19.206 9.164-19.206 19.92 0 2.209 1.789 4 4 4h32c2.211 0 4-1.791 4-4 0-8.235-5.008-15.315-12.134-18.378 3.006-3.514 7.398-5.622 12.134-5.622h20c8.824 0 16 7.178 16 16v64h-46c-5.516 0-10 4.486-10 10s4.484 10 10 10h34v32h-31.609c-8.23 0-16.25-2.342-23.188-6.771l-48.984-31.279-.219.344v-6.861c6.882-1.789 12-7.999 12-15.432v-16.001c0-8.822-7.176-16-16-16s-16 7.178-16 16v16c0 7.433 5.118 13.643 12 15.432v21.697c0 5.617 2.973 10.934 7.762 13.875l39.977 24.541c9.008 5.531 19.359 8.455 29.93 8.455h10.332v14.162c-4.897 4.397-8 10.754-8 17.838v12h-44c-2.211 0-4 1.791-4 4v20c0 2.209 1.789 4 4 4h128c2.211 0 4-1.791 4-4v-20c0-2.209-1.789-4-4-4h-36v-12c0-7.084-3.103-13.441-8-17.838v-14.162h3.152c7.32 0 14.57 1.883 20.969 5.447l43.457 24.211c1.691.941 3.535 1.412 5.379 1.412 1.926 0 3.848-.514 5.594-1.537 3.41-2.004 5.449-5.564 5.449-9.523-.002-3.879-2.076-7.518-5.408-9.496zm-119.277-146.514h-22.633c1.652-4.656 6.102-8 11.316-8s9.665 3.344 11.317 8zm-3.317 70c0-1.104.898-2 2-2h92c1.102 0 2 .896 2 2s-.898 2-2 2h-92c-1.101 0-2-.896-2-2zm44 10h4v32h-4zm-124-28v-16c0-4.412 3.59-8 8-8s8 3.588 8 8v16c0 4.412-3.59 8-8 8s-8-3.588-8-8zm132 136v12h-8v-12zm8 0h8v12h-8zm-24 12h-8v-12h8zm-16 0h-8v-12h8zm-24-12h8v12h-8zm-8 12h-8v-12h8zm-24-12h8v12h-8zm120 12h-8v-12h8zm-72-20v-12c0-8.822 7.176-16 16-16s16 7.178 16 16v12zm24-34.6c-2.507-.89-5.192-1.4-8-1.4s-5.493.51-8 1.4v-9.4h16zm82.497 13.237c-.449.264-1.645.801-3.023.033l-43.461-24.211c-7.582-4.225-16.18-6.459-24.859-6.459h-45.484c-9.094 0-17.996-2.514-25.742-7.271l-39.977-24.541c-2.438-1.496-3.949-4.201-3.949-7.059v-5.828l44.898 28.67c8.227 5.252 17.73 8.029 27.492 8.029h44.383c8.836 0 17.527 2.385 25.125 6.898l44.613 26.496c.918.545 1.488 1.547 1.488 2.615-.001 1.575-1.051 2.362-1.504 2.628z"/><path d="m125.635 92v-12c0-2.209-1.789-4-4-4s-4 1.791-4 4v12c0 2.209 1.789 4 4 4s4-1.791 4-4z"/><path d="m144.35 94.068c.762 0 1.531-.217 2.215-.672 1.84-1.225 2.336-3.709 1.109-5.547l-6.711-10.068c-1.223-1.836-3.703-2.338-5.547-1.109-1.84 1.225-2.336 3.709-1.109 5.547l6.711 10.068c.77 1.156 2.039 1.781 3.332 1.781z"/><path d="m98.921 94.068c1.293 0 2.562-.625 3.332-1.781l6.711-10.068c1.227-1.838.73-4.322-1.109-5.547-1.848-1.229-4.324-.727-5.547 1.109l-6.712 10.069c-1.227 1.838-.73 4.322 1.109 5.547.684.455 1.454.671 2.216.671z"/><circle cx="157.635" cy="224" r="4"/></g></svg>