<?xml version="1.0" encoding="iso-8859-1"?>
<!-- Generator: Adobe Illustrator 19.0.0, SVG Export Plug-In . SVG Version: 6.00 Build 0)  -->
<svg xmlns="http://www.w3.org/2000/svg" xmlns:xlink="http://www.w3.org/1999/xlink" version="1.1" id="Layer_1" x="0px" y="0px" viewBox="0 0 512 512" style="enable-background:new 0 0 512 512;" xml:space="preserve">
<g>
	<g>
		<g>
			<path d="M165.538,98.041c-4.143,0-7.5,3.357-7.5,7.5v271.797c0,4.143,3.357,7.5,7.5,7.5s7.5-3.357,7.5-7.5V105.541     C173.038,101.398,169.681,98.041,165.538,98.041z"/>
			<path d="M369.077,68.92h-5.692V54.263c7.573-1.924,13.192-8.801,13.192-16.964V17.5c0-9.649-7.851-17.5-17.5-17.5H152.923     c-9.649,0-17.5,7.851-17.5,17.5v19.799c0,8.163,5.619,15.04,13.192,16.964V68.92h-5.692c-9.331,0-16.923,7.719-16.923,17.207     v398.959C126,499.927,137.818,512,152.346,512h207.308C374.182,512,386,499.927,386,485.086V86.127     C386,76.639,378.408,68.92,369.077,68.92z M348.308,15h10.77c1.379,0,2.5,1.121,2.5,2.5v19.799c0,1.379-1.121,2.5-2.5,2.5h-10.77     V15z M320.038,15h13.27v24.799h-13.27V15z M291.77,15h13.269v24.799H291.77V15z M263.5,15h13.27v24.799H263.5V15z M235.23,15     h13.27v24.799h-13.27V15z M206.962,15h13.269v24.799h-13.269V15z M178.692,15h13.27v24.799h-13.27V15z M150.423,17.5     c0-1.379,1.121-2.5,2.5-2.5h10.77v24.799h-10.77c-1.379,0-2.5-1.121-2.5-2.5V17.5z M371.001,485.086     c0,6.569-5.09,11.914-11.346,11.914H152.346C146.09,497,141,491.655,141,485.086V86.127c0-1.217,0.862-2.207,1.923-2.207h163.961     c4.143,0,7.5-3.357,7.5-7.5s-3.357-7.5-7.5-7.5h-143.27V54.799h184.77V68.92h-13.231c-4.143,0-7.5,3.357-7.5,7.5     s3.357,7.5,7.5,7.5h33.924c1.061,0,1.923,0.99,1.923,2.207h0.001V485.086z"/>
			<path d="M283.13,108.493c-3.73,1.8-5.296,6.284-3.496,10.014c1.851,3.835,2.789,7.964,2.789,12.272v6.09h-52.846v-6.09     c0-4.307,0.938-8.436,2.789-12.272c1.8-3.731,0.234-8.214-3.496-10.014c-3.73-1.8-8.214-0.236-10.014,3.496     c-2.84,5.885-4.279,12.207-4.279,18.79v66.008c0,14.418,7.051,27.179,17.806,34.854c-10.755,7.491-17.806,19.945-17.806,34.015     v48.639c0,14.071,7.051,26.525,17.806,34.015c-10.755,7.675-17.806,20.436-17.806,34.854v66.008     c0,6.583,1.439,12.905,4.279,18.79c1.8,3.731,6.285,5.295,10.014,3.496c3.73-1.8,5.296-6.284,3.496-10.014     c-1.851-3.835-2.789-7.964-2.789-12.272v-6.09h52.846v6.09c0,4.307-0.938,8.436-2.789,12.272     c-1.8,3.731-0.234,8.214,3.496,10.014c1.051,0.507,2.16,0.747,3.254,0.747c2.788,0,5.467-1.562,6.76-4.243     c2.84-5.885,4.279-12.207,4.279-18.79v-66.008c0-14.418-7.051-27.179-17.806-34.854c10.755-7.491,17.806-19.945,17.806-34.015     v-48.639c0-14.071-7.051-26.525-17.806-34.015c10.755-7.675,17.806-20.436,17.806-34.854v-66.008     c0-6.583-1.439-12.905-4.279-18.79C291.343,108.257,286.855,106.693,283.13,108.493z M282.423,384.838v14.121h-35.846     c-4.143,0-7.5,3.357-7.5,7.5s3.357,7.5,7.5,7.5h35.846v14.121h-52.846v-43.242H282.423z M256,340.717     c-10.131,0-18.948-5.731-23.381-14.121h46.762C274.948,334.985,266.131,340.717,256,340.717z M279.094,369.838h-46.189     c4.519-8.417,13.177-14.121,23.095-14.121C265.918,355.717,274.576,361.421,279.094,369.838z M282.423,268.354v14.121h-35.846     c-4.143,0-7.5,3.357-7.5,7.5s3.357,7.5,7.5,7.5h35.846v14.121h-52.846v-43.242H282.423z M256,239.233     c10.131,0,18.948,5.731,23.381,14.121h-46.762C237.052,244.964,245.869,239.233,256,239.233z M232.906,210.111h46.189     c-4.519,8.417-13.177,14.121-23.095,14.121C246.082,224.232,237.424,218.528,232.906,210.111z M282.423,195.111h-52.846V180.99     h39.615c4.143,0,7.5-3.357,7.5-7.5s-3.357-7.5-7.5-7.5h-39.615v-14.121h52.846V195.111z"/>
			<path d="M165.538,398.959c-4.143,0-7.5,3.357-7.5,7.5v67.949c0,4.143,3.357,7.5,7.5,7.5s7.5-3.357,7.5-7.5v-67.949     C173.038,402.316,169.681,398.959,165.538,398.959z"/>
		</g>
	</g>
</g>
<g>
</g>
<g>
</g>
<g>
</g>
<g>
</g>
<g>
</g>
<g>
</g>
<g>
</g>
<g>
</g>
<g>
</g>
<g>
</g>
<g>
</g>
<g>
</g>
<g>
</g>
<g>
</g>
<g>
</g>
</svg>
