<svg id="Layer_5" enable-background="new 0 0 64 64" height="512" viewBox="0 0 64 64" width="512" xmlns="http://www.w3.org/2000/svg"><path d="m41 35h5c1.302 0 2.402-.839 2.816-2h14.184v-32h-48v20.525c-3.49 1.24-6 4.565-6 8.475 0 3.241 1.728 6.079 4.306 7.664-2.741.783-5.256 2.244-7.327 4.315-3.21 3.211-4.979 7.48-4.979 12.021v9h34v-9c0-7.75-5.218-14.292-12.322-16.33 2.096-1.286 3.638-3.405 4.14-5.903l8.182 2.131v5.516l2.586 2.586-1 1 18.671 18.671c.857.857 1.996 1.329 3.207 1.329 2.501 0 4.536-2.035 4.536-4.536 0-1.211-.472-2.351-1.329-3.207l-7.257-7.257 3-3-8.414-8.414-3 3-3-3-1 1-1-1zm-6-13v2.102l-2 .521v-17.623h24v20h-8v-1c0-1.238-.754-2.302-1.826-2.76l.704-.704c2.014-2.013 3.122-4.689 3.122-7.536 0-1.603-.625-3.11-1.758-4.243s-2.639-1.757-4.242-1.757h-.001c-3.308 0-5.999 2.692-5.999 6v1.414l.293.293c1.101 1.101 1.707 2.564 1.707 4.122v1.05c0 .396.082.772.217 1.121h-.217v-1c0-1.103-.897-2-2-2h-2c-1.103 0-2 .897-2 2zm8-.121v-1.05c0-1.949-.707-3.789-2-5.227v-.602c0-2.205 1.794-4 3.999-4h.001c1.068 0 2.073.416 2.828 1.171.756.756 1.172 1.761 1.172 2.829 0 2.312-.9 4.486-2.536 6.122l-1.55 1.55c-.212.211-.493.328-.793.328-.618 0-1.121-.503-1.121-1.121zm4 10.121c0 .551-.449 1-1 1h-5v-8h5c.551 0 1 .449 1 1zm-30-29h44v28h-12v-2h10v-24h-28v20.144l-4.76 1.24c-1.423-3.252-4.632-5.384-8.24-5.384-.338 0-.671.022-1 .059zm2.865 36.129-1.865 2.984-1.866-2.985c.616-.076 1.236-.128 1.866-.128.633 0 1.253.052 1.865.129zm2.727.597-1.232 5.544-2.025-1.519 2.626-4.203c.211.058.424.111.631.178zm-8.557-.184 2.63 4.209-2.025 1.519-1.233-5.547c.207-.067.417-.124.628-.181zm2.965 6.458 1-.75 1 .75v7h-2zm16 8v7h-4v-14h-2v14h-18v-14h-2v14h-4v-7c0-4.007 1.56-7.773 4.393-10.606 1.22-1.221 2.622-2.189 4.133-2.914l1.833 8.25 1.641-1.23v7.5h6v-7.5l1.64 1.23 1.831-8.241c5.036 2.422 8.529 7.559 8.529 13.511zm-15-17c-3.86 0-7-3.14-7-7s3.14-7 7-7c2.714 0 5.13 1.555 6.288 3.944-.775.379-1.288 1.168-1.288 2.056 0 1.044.706 1.957 1.716 2.22l.168.044c-.6 3.268-3.493 5.736-6.884 5.736zm7.22-7.716c-.13-.034-.22-.15-.22-.284s.09-.25.22-.284l9.78-2.547v5.662zm35.78 29.18c0 1.398-1.138 2.536-2.536 2.536-.677 0-1.314-.264-1.793-.743l-17.257-17.257 3.586-3.586 17.257 17.257c.479.479.743 1.116.743 1.793zm-8-11.878-2.086-2.086 1.586-1.586 2.086 2.086zm-4-7.172 2.086 2.086-1.586 1.586-2.086-2.086zm-10 1.172-2-2v-16.586h2v15.414l1.586 1.586z"/><path d="m19 5h10v2h-10z"/><path d="m19 9h10v2h-10z"/><path d="m19 13h10v2h-10z"/><path d="m27 17h2v2h-2z"/><path d="m23 17h2v2h-2z"/><path d="m19 17h2v2h-2z"/></svg>