<svg id="Layer_5" enable-background="new 0 0 64 64" height="512" viewBox="0 0 64 64" width="512" xmlns="http://www.w3.org/2000/svg"><path d="m41.333 37h-.666c-3.125 0-5.667 2.542-5.667 5.667v10.333h6v-8.75c0-.689.561-1.25 1.25-1.25.269 0 .534.089.75.25l1.8 1.35c1.203.903 2.694 1.4 4.199 1.4 2.193 0 4.287-1.047 5.601-2.801 2.838-3.782 4.4-8.47 4.4-13.199v-2.757c0-2.891-2.352-5.243-5.242-5.243-1.401 0-2.718.545-3.707 1.536l-1.137 1.136c-.209.208-.498.328-.793.328-.618 0-1.121-.503-1.121-1.121v-8.879h-6v10.667c0 1.774.847 3.469 2.268 4.534l.266.199c.918.689 1.466 1.785 1.466 2.933 0 2.022-1.645 3.667-3.667 3.667zm3.399-8.201-.265-.199c-.919-.689-1.467-1.786-1.467-2.933v-8.667h2v6.879c0 1.721 1.4 3.121 3.121 3.121.822 0 1.626-.333 2.207-.914l1.138-1.137c.611-.612 1.425-.949 2.292-.949 1.788 0 3.242 1.455 3.242 3.243v2.757c0 4.299-1.421 8.561-4 12-.938 1.252-2.435 2-4.001 2-1.074 0-2.14-.355-2.999-1l-1.8-1.35c-.558-.419-1.251-.65-1.95-.65-1.792 0-3.25 1.458-3.25 3.25v6.75h-2v-8.333c0-2.022 1.645-3.667 3.667-3.667h.666c3.125 0 5.667-2.542 5.667-5.667 0-1.774-.847-3.468-2.268-4.534z"/><path d="m49 32h2v2h-2z"/><path d="m52 26h2v2h-2z"/><path d="m50 36h2v2h-2z"/><path d="m47 40h2v2h-2z"/><path d="m53 30h2v2h-2z"/><path d="m63 11h-40.263c.166-.641.263-1.308.263-2 0-4.411-3.589-8-8-8s-8 3.589-8 8c0 2.805 1.455 5.274 3.646 6.702-5.593 1.836-9.646 7.099-9.646 13.298v7c0 2.757 2.243 5 5 5h1v17.5c0 2.481 2.019 4.5 4.5 4.5 1.421 0 2.675-.675 3.5-1.706.825 1.031 2.079 1.706 3.5 1.706 2.481 0 4.5-2.019 4.5-4.5v-1.5h40zm-46.242 29.344-3.129-3.129c-1.051-1.051-1.629-2.447-1.629-3.934 0-1.742.832-3.405 2.225-4.45l.6-.45 1.103 1.379c1.336 1.671 2.072 3.769 2.072 5.908 0 1.668-.437 3.266-1.242 4.676zm-.758-25.434v-.91c0-1.654 1.346-3 3-3h1.65c-.718 2.022-2.487 3.544-4.65 3.91zm-7-5.91c0-3.309 2.691-6 6-6s6 2.691 6 6h-2c-2.757 0-5 2.243-5 5v.91c-2.833-.479-5-2.943-5-5.91zm2.5 52c-1.379 0-2.5-1.121-2.5-2.5v-34.5h-2v15h-1c-1.654 0-3-1.346-3-3v-7c0-6.279 4.85-11.438 11-11.949v9.449l-.975.731c-1.894 1.421-3.025 3.683-3.025 6.05 0 2.021.786 3.92 2.215 5.348l3.354 3.354c-.112.125-.219.253-.338.373l-1.231 1.23v4.414 10.5c0 1.379-1.121 2.5-2.5 2.5zm9.5-37v34.5c0 1.379-1.121 2.5-2.5 2.5s-2.5-1.121-2.5-2.5v-10.5-3.586l.645-.645c2.164-2.164 3.355-5.04 3.355-8.101 0-2.592-.892-5.133-2.511-7.157l-1.489-1.862v-9.598c6.15.511 11 5.67 11 11.949v7c0 1.654-1.346 3-3 3h-1v-15zm40 31h-38v-14h1c2.757 0 5-2.243 5-5v-7c0-6.199-4.053-11.462-9.646-13.298 1.053-.686 1.931-1.613 2.563-2.702h39.083z"/><path d="m29 15h2v2h-2z"/><path d="m33 15h2v2h-2z"/><path d="m37 15h2v2h-2z"/><path d="m29 19h10v2h-10z"/><path d="m29 23h10v2h-10z"/><path d="m57 51h2v2h-2z"/><path d="m53 51h2v2h-2z"/><path d="m49 51h2v2h-2z"/><path d="m25 51h2v2h-2z"/><path d="m25 47h2v2h-2z"/><path d="m25 43h2v2h-2z"/></svg>