<svg id="extraction" enable-background="new 0 0 300 300" height="512" viewBox="0 0 300 300" width="512" xmlns="http://www.w3.org/2000/svg"><g><path d="m41.005 126.277c2.362 0 4.277-1.915 4.277-4.276s-1.915-4.277-4.277-4.277-4.276 1.915-4.276 4.277 1.915 4.276 4.276 4.276z"/><path d="m72 49.073c2.211 0 4-1.791 4-4v-8c0-2.209-1.789-4-4-4s-4 1.791-4 4v8c0 2.209 1.789 4 4 4z"/><path d="m72 57.073c-2.211 0-4 1.791-4 4v8c0 2.209 1.789 4 4 4s4-1.791 4-4v-8c0-2.209-1.789-4-4-4z"/><path d="m56 57.073h8c2.211 0 4-1.791 4-4s-1.789-4-4-4h-8c-2.211 0-4 1.791-4 4s1.789 4 4 4z"/><path d="m80 57.073h8c2.211 0 4-1.791 4-4s-1.789-4-4-4h-8c-2.211 0-4 1.791-4 4s1.789 4 4 4z"/><path d="m250 121.073c7.719 0 14-6.281 14-14s-6.281-14-14-14-14 6.281-14 14 6.281 14 14 14zm0-20c3.309 0 6 2.691 6 6s-2.691 6-6 6-6-2.691-6-6 2.691-6 6-6z"/><path d="m213.005 50.277c2.362 0 4.277-1.915 4.277-4.276s-1.915-4.277-4.277-4.277-4.276 1.915-4.276 4.277 1.915 4.276 4.276 4.276z"/><path d="m247.302 190.19.412-3.724 4.754-25.08c.047-.244.07-.494.07-.744 0-10.789-8.777-19.568-19.566-19.568-3.285 0-6.535.834-9.398 2.408-2.273 1.25-4.879 1.248-7.145.002-2.867-1.576-6.117-2.41-9.402-2.41-10.789 0-19.566 8.779-19.566 19.568 0 .25.023.5.07.744l4.707 24.777.323 2.91h-20.191c-2.039 0-3.75 1.533-3.977 3.559l-2.582 23.258-8.914-15.604c-1.555-2.721-4.355-4.346-7.488-4.348h-.004c-3.133 0-5.938 1.623-7.496 4.348l-8.914 15.6-2.582-23.254c-.227-2.025-1.938-3.559-3.977-3.559h-18.79l.067-.607 4.754-25.08c.047-.244.07-.494.07-.744 0-10.789-8.777-19.568-19.566-19.568-3.285 0-6.535.834-9.398 2.408-2.273 1.25-4.879 1.248-7.145.002-2.867-1.576-6.117-2.41-9.402-2.41-10.789 0-19.566 8.779-19.566 19.568 0 .25.023.5.07.744l4.707 24.777.233 2.097c-9.656 3.073-16.47 12.082-16.47 22.401v52.412c0 2.209 1.789 4 4 4h220c2.211 0 4-1.791 4-4v-52.412c0-10.344-6.941-19.465-16.698-22.471zm-40.275-41.117c1.941 0 3.859.49 5.543 1.418 4.645 2.557 10.199 2.561 14.859 0 1.684-.928 3.602-1.418 5.543-1.418 6.262 0 11.375 5.002 11.562 11.221l-4.727 24.986-3.402 30.605-8.914-15.6c-1.555-2.723-4.355-4.348-7.492-4.348s-5.938 1.625-7.492 4.348l-8.918 15.602-3.445-30.91-4.68-24.684c.188-6.218 5.302-11.22 11.563-11.22zm-140 2c1.941 0 3.859.49 5.543 1.418 4.645 2.557 10.199 2.561 14.859 0 1.684-.928 3.602-1.418 5.543-1.418 6.262 0 11.375 5.002 11.562 11.221l-4.727 24.986-3.402 30.605-8.914-15.6c-1.555-2.723-4.355-4.348-7.492-4.348s-5.938 1.625-7.492 4.348l-8.918 15.602-3.445-30.91-4.68-24.684c.188-6.218 5.302-11.22 11.563-11.22zm188.973 110h-212v-48.412c0-6.273 3.807-11.826 9.376-14.262l2.499 22.49c.355 3.152 2.68 5.701 5.785 6.344.52.107 1.031.158 1.539.158 2.582 0 4.949-1.352 6.281-3.688l9.973-17.449c.043-.078.18-.316.547-.316s.504.238.547.316l9.973 17.449c1.59 2.793 4.633 4.182 7.82 3.529 3.105-.643 5.43-3.191 5.785-6.348l2.637-23.812h16.098l2.422 21.811c.348 3.154 2.672 5.707 5.781 6.35 3.117.637 6.254-.777 7.824-3.529l9.969-17.445c.043-.08.18-.32.551-.32.367 0 .504.238.547.316l9.969 17.451c1.336 2.336 3.703 3.688 6.285 3.688.508 0 1.023-.053 1.539-.16 3.109-.643 5.43-3.193 5.785-6.348l2.422-21.812h17.498l2.424 21.816c.355 3.152 2.68 5.701 5.785 6.344.52.107 1.031.158 1.539.158 2.582 0 4.949-1.352 6.281-3.688l9.973-17.449c.043-.078.18-.316.547-.316s.504.238.547.316l9.973 17.449c1.594 2.791 4.637 4.184 7.82 3.529 3.105-.643 5.43-3.191 5.785-6.348l2.282-20.612c5.686 2.387 9.593 8.062 9.593 14.387v48.413z"/><path d="m119.465 122.7c0 .25.023.5.07.746l4.277 22.49 3.305 29.736c.336 3.023 2.562 5.471 5.539 6.088.48.1.961.148 1.434.148 2.477 0 4.805-1.314 6.074-3.531l9.422-15.857 9.062 15.855c1.508 2.643 4.523 4.01 7.496 3.387 2.98-.615 5.211-3.061 5.551-6.088l3.254-29.434 4.324-22.795c.047-.246.07-.496.07-.746 0-3.178-.893-6.124-2.334-8.725 4.455-4.484 6.99-10.523 6.99-16.902.001-10.295-6.528-19.072-15.654-22.472 4.802-4.487 7.655-10.8 7.655-17.527v-22.146c0-2.209-1.789-4-4-4s-4 1.791-4 4v22.146c0 4.627-2.032 8.956-5.425 11.963-2.264-4.692-7.027-7.963-12.575-7.963s-10.312 3.271-12.575 7.963c-3.392-3.006-5.425-7.334-5.425-11.963v-22.146c0-2.209-1.789-4-4-4s-4 1.791-4 4v22.146c0 6.726 2.854 13.039 7.656 17.526-9.126 3.401-15.656 12.177-15.656 22.474 0 6.011 2.254 11.713 6.236 16.099-1.727 2.777-2.771 6.024-2.771 9.528zm47.578 22.354-2.965 26.705-7.547-13.205c-1.477-2.59-4.137-4.137-7.121-4.139h-.004c-2.984 0-5.648 1.545-7.129 4.137l-7.547 13.209-3.012-27.012-4.25-22.395c.184-5.436 4.664-9.803 10.145-9.803 1.707 0 3.387.43 4.867 1.244 4.336 2.387 9.516 2.387 13.852 0 1.5-.826 3.137-1.244 4.863-1.244 5.48 0 9.961 4.367 10.145 9.805zm-17.043-75.981c3.309 0 6 2.691 6 6s-2.691 6-6 6-6-2.691-6-6 2.691-6 6-6zm-12.46 12.249c2.306 4.575 6.998 7.751 12.46 7.751s10.155-3.177 12.46-7.751c7.651 1.194 13.54 7.771 13.54 15.751 0 4.073-1.616 7.889-4.357 10.836-2.96-2.097-6.552-3.357-10.448-3.357-3.047 0-6.062.773-8.719 2.236-1.953 1.07-4.188 1.072-6.141.002-2.652-1.465-5.668-2.238-8.723-2.238-3.582 0-6.903 1.076-9.719 2.875-2.463-2.876-3.894-6.503-3.894-10.353.001-7.981 5.889-14.558 13.541-15.752z"/></g></svg>