<svg xmlns="http://www.w3.org/2000/svg" viewBox="0 0 480 480"><path d="M176 176h128v16H176zM176 224h128v16H176zM176 272h128v16H176zM248 48V32h-16v16h-16v16h16v16h16V64h16V48z"/><path d="M456 464V240h8a8 8 0 008-8v-32a8 8 0 00-8-8H360v-48h16a8 8 0 008-8v-32a8 8 0 00-8-8h-16V8a8 8 0 00-8-8H128a8 8 0 00-8 8v88h-16a8 8 0 00-8 8v32a8 8 0 008 8h16v48H16a8 8 0 00-8 8v32a8 8 0 008 8h8v224H0v16h480v-16h-24zm-336 0H40v-32h48v-16H40v-32h48v-16H40v-32h48v-16H40v-32h48v-16H40v-32h80v224zm0-240H24v-16h96v16zm336-16v16h-96v-16h96zM136 16h208v80H136V16zm-24 112v-16h256v16H112zm120 336h-40V336h40v128zm56 0h-40V336h40v128zm56 0h-40V328a8 8 0 00-8-8H184a8 8 0 00-8 8v136h-40V144h208v320zm96-192h-48v16h48v32h-48v16h48v32h-48v16h48v32h-48v16h48v32h-80V240h80v32z"/></svg>