<?xml version="1.0" encoding="iso-8859-1"?>
<!-- Generator: Adobe Illustrator 19.0.0, SVG Export Plug-In . SVG Version: 6.00 Build 0)  -->
<svg xmlns="http://www.w3.org/2000/svg" xmlns:xlink="http://www.w3.org/1999/xlink" version="1.1" id="Layer_1" x="0px" y="0px" viewBox="0 0 512 512" style="enable-background:new 0 0 512 512;" xml:space="preserve">
<g>
	<g>
		<g>
			<path d="M286.263,110.359l37.729-38.167C343.876,52.078,370.307,41,398.417,41c27.982,0,54.303,10.979,74.156,30.923     c31.159,38.944,32.399,91.491,3.682,156.183c-1.681,3.785,0.026,8.217,3.812,9.897c0.989,0.439,2.022,0.647,3.039,0.647     c2.874,0,5.617-1.662,6.858-4.459c31.255-70.409,29.254-128.271-5.949-171.977c-0.159-0.197-0.329-0.387-0.507-0.567     C460.783,38.66,430.564,26,398.417,26c-32.148,0-62.367,12.66-85.091,35.647l-37.729,38.167     c-2.912,2.945-2.885,7.694,0.061,10.606C278.602,113.331,283.35,113.306,286.263,110.359z"/>
			<path d="M444.891,225.656c-19.003-16.461-43.348-25.526-68.552-25.526c-24.992,0-49.181,8.93-68.112,25.147     c-18.732,16.045-31.202,38.199-35.113,62.382c-0.661,4.089,2.117,7.94,6.206,8.601c4.083,0.671,7.938-2.117,8.6-6.206     c7.021-43.414,44.207-74.924,88.419-74.924c44.014,0,82.095,32.651,88.578,75.949c0.557,3.721,3.757,6.391,7.408,6.391     c0.369,0,0.744-0.027,1.12-0.084c4.096-0.613,6.919-4.431,6.306-8.527C476.089,264.402,463.709,241.957,444.891,225.656z"/>
			<path d="M504.462,306.49H417.54c-2.516,0-4.865,1.263-6.254,3.361l-13.695,20.698l-19.584-66.98     c-0.893-3.056-3.617-5.214-6.795-5.385c-3.178-0.152-6.118,1.683-7.334,4.624L345.82,306.49H46.325     c-0.305,0-0.606,0.019-0.902,0.054H31.765c-9.245,0-16.766-7.485-16.766-16.686c0-9.201,7.521-16.685,16.766-16.685h10.218     c3.987,6.908,8.251,13.907,12.794,20.996c2.235,3.487,6.873,4.502,10.361,2.268c3.487-2.235,4.502-6.874,2.267-10.361     c-27.056-42.22-43.831-80.889-49.858-114.931c-6.918-39.079,0.431-72.461,21.842-99.223C59.243,51.979,85.563,41,113.545,41     c28.109,0,54.54,11.078,74.438,31.206l85.973,86.536c2.92,2.94,7.669,2.953,10.606,0.034c2.938-2.919,2.953-7.668,0.034-10.606     l-85.96-86.522C175.912,38.66,145.693,26,113.545,26c-32.147,0-62.366,12.66-85.09,35.647c-0.179,0.181-0.348,0.37-0.507,0.567     C3.513,92.551-4.955,130.08,2.779,173.761c4.592,25.938,14.955,54.215,30.911,84.413h-1.925C14.25,258.174,0,272.388,0,289.858     c0,17.472,14.25,31.686,31.765,31.686h41.611c44.262,61.733,98.261,115.516,126.719,142.262     C215.324,478.118,235.171,486,255.981,486s40.657-7.882,55.886-22.195c11.748-11.041,23.49-22.56,34.902-34.236     c2.895-2.962,2.841-7.711-0.122-10.605c-2.962-2.896-7.71-2.842-10.605,0.121c-11.264,11.525-22.853,22.895-34.447,33.79     C289.158,464.563,272.959,471,255.981,471s-33.177-6.438-45.614-18.125c-26.711-25.104-76.229-74.346-118.47-131.385h258.937     c3.035,0,5.771-1.829,6.931-4.635l11.829-28.613l18.136,62.028c0.82,2.803,3.191,4.875,6.077,5.312     c2.889,0.436,5.764-0.843,7.375-3.277l20.388-30.814h82.892c4.142,0,7.499-3.357,7.499-7.5S508.604,306.49,504.462,306.49z"/>
			<path d="M468.797,334.844c-3.819-1.605-8.215,0.187-9.821,4.004c-13.998,33.266-46.435,54.761-82.636,54.761     c-36.231,0-68.677-21.52-82.662-54.823c-1.603-3.818-5.998-5.615-9.818-4.011c-3.819,1.604-5.614,6-4.011,9.819     c16.329,38.888,54.204,64.015,96.491,64.015c42.252,0,80.116-25.099,96.461-63.942     C474.406,340.848,472.614,336.451,468.797,334.844z"/>
		</g>
	</g>
</g>
<g>
</g>
<g>
</g>
<g>
</g>
<g>
</g>
<g>
</g>
<g>
</g>
<g>
</g>
<g>
</g>
<g>
</g>
<g>
</g>
<g>
</g>
<g>
</g>
<g>
</g>
<g>
</g>
<g>
</g>
</svg>
