<svg id="root_x5F_canal" enable-background="new 0 0 300 300" height="512" viewBox="0 0 300 300" width="512" xmlns="http://www.w3.org/2000/svg"><g><path d="m68.364 43.204c2.362 0 4.277-1.915 4.277-4.276s-1.915-4.277-4.277-4.277-4.276 1.915-4.276 4.277 1.915 4.276 4.276 4.276z"/><path d="m51.359 102c2.211 0 4-1.791 4-4v-8c0-2.209-1.789-4-4-4s-4 1.791-4 4v8c0 2.209 1.789 4 4 4z"/><path d="m51.359 110c-2.211 0-4 1.791-4 4v8c0 2.209 1.789 4 4 4s4-1.791 4-4v-8c0-2.209-1.789-4-4-4z"/><path d="m256.113 153.617h-45.918c4.1-7.599 5.842-16.255 4.926-25.113v.002c-2.059-19.932-18.059-36.166-38.051-38.6-10.523-1.285-21 1.199-29.711 6.99-7.13-4.74-15.445-7.221-24-7.277v-8.024c9.117-1.859 16-9.938 16-19.596 0-11.027-8.973-20-20-20s-20 8.973-20 20c0 9.658 6.883 17.737 16 19.596v8.691c-18.908 3.351-33.783 19.058-35.762 38.217-.916 8.858.826 17.513 4.927 25.113h-41.919c-8.406 0-15.246 6.838-15.246 15.244v77.895c0 8.406 6.84 15.244 15.246 15.244h60.754c2.211 0 4-1.791 4-4s-1.789-4-4-4h-60.754c-3.996 0-7.246-3.25-7.246-7.244v-77.895c0-3.994 3.25-7.244 7.246-7.244h47.423c2.57 3.085 4.49 6.266 5.675 9.465 3.023 8.127 4.703 14.783 4.73 18.74.121 18.541 2.285 33.084 6.434 43.229 2.002 4.889 6.542 8.198 11.848 8.819.218.037.416.13.645.13.108 0 .199-.053.305-.062.285.016.563.062.852.062 8.184 0 14.844-6.631 14.844-14.783v-35.666c0-6.861 5.133-12.564 12-13.424 6.867.859 12 6.562 12 13.424v35.666c0 8.152 6.66 14.783 14.844 14.783.289 0 .566-.046.852-.062.106.008.197.062.305.062.229 0 .427-.093.645-.13 5.305-.621 9.845-3.931 11.847-8.821 4.148-10.143 6.312-24.686 6.434-43.225.027-3.959 1.707-10.615 4.73-18.746 1.185-3.195 3.105-6.375 5.677-9.461h51.421c3.996 0 7.246 3.25 7.246 7.244v77.895c0 3.994-3.25 7.244-7.246 7.244h-76.754c0-2.209-1.789-4-4-4s-4 1.791-4 4h-48c0-2.209-1.789-4-4-4s-4 1.791-4 4v12c0 2.209 1.789 4 4 4s4-1.791 4-4v-4h48v4c0 2.209 1.789 4 4 4s4-1.791 4-4v-4h76.754c8.406 0 15.246-6.838 15.246-15.244v-77.895c-.003-8.405-6.843-15.243-15.249-15.243zm-148.754-91.617c0-6.617 5.383-12 12-12s12 5.383 12 12-5.383 12-12 12-12-5.383-12-12zm6.914 168.021c-3.707-9.064-5.727-22.982-5.84-40.252-.035-5.012-1.793-12.236-5.23-21.473-1.562-4.211-4.051-8.336-7.391-12.256-6.34-7.439-9.27-16.926-8.254-26.715 1.562-15.156 13.028-27.68 27.801-30.915v63.59 69.723c-.45-.506-.828-1.07-1.086-1.702zm53.086-2.804v-35.666c0-11.127-8.43-20.34-19.613-21.428-.129-.014-.258-.02-.387-.02s-.258.006-.387.02c-11.184 1.088-19.613 10.301-19.613 21.428v35.666c0 2.732-1.646 5.077-4 6.151v-71.368c0-13.234 10.766-24 24-24s24 10.766 24 24v71.368c-2.354-1.074-4-3.42-4-6.151zm31.551-71.178c-3.344 3.922-5.832 8.047-7.395 12.254-3.438 9.24-5.195 16.465-5.23 21.479-.113 17.268-2.133 31.186-5.84 40.248-.258.632-.636 1.197-1.086 1.703v-69.723c0-17.645-14.355-32-32-32-9.56 0-18.131 4.237-24 10.905v-43.285c7.519.066 14.816 2.407 20.914 6.876.684.502 1.512.773 2.363.773h1.445c.852 0 1.68-.271 2.363-.773 7.375-5.404 16.5-7.752 25.656-6.648 16.32 1.986 29.383 15.225 31.059 31.479v.002c1.016 9.786-1.913 19.273-8.249 26.71z"/><path d="m35.359 110h8c2.211 0 4-1.791 4-4s-1.789-4-4-4h-8c-2.211 0-4 1.791-4 4s1.789 4 4 4z"/><path d="m59.359 110h8c2.211 0 4-1.791 4-4s-1.789-4-4-4h-8c-2.211 0-4 1.791-4 4s1.789 4 4 4z"/><path d="m225.359 58c7.719 0 14-6.281 14-14s-6.281-14-14-14-14 6.281-14 14 6.281 14 14 14zm0-20c3.309 0 6 2.691 6 6s-2.691 6-6 6-6-2.691-6-6 2.691-6 6-6z"/><path d="m268.364 86.651c-2.362 0-4.276 1.915-4.276 4.277s1.915 4.276 4.276 4.276 4.277-1.915 4.277-4.276-1.915-4.277-4.277-4.277z"/></g></svg>