<svg id="Layer_5" enable-background="new 0 0 64 64" height="512" viewBox="0 0 64 64" width="512" xmlns="http://www.w3.org/2000/svg"><path d="m32 1c-13.785 0-25 11.215-25 25v12.535l3.048 2.031 1.039 11.434h7.913v11h23v-12.4l1.765-.94c8.164-4.355 13.235-12.807 13.235-22.06v-1.6c0-13.785-11.215-25-25-25zm4.132 17.504-.743 1.301c-2.059 3.602-4.932 6.782-8.309 9.195h-11.08c-1.654 0-3-1.346-3-3 0-5.203 2.07-10.062 5.83-13.682 3.756-3.617 8.677-5.483 13.902-5.305 10.074.382 18.268 9.119 18.268 19.478v.509c0 1.16-.906 2.134-2.063 2.217l-4.181.299c-4.643.331-9.012 2.326-12.303 5.617-.559.559-1.303.867-2.094.867h-.398c-1.633 0-2.961-1.328-2.961-2.961 0-.954.464-1.855 1.24-2.41 3.611-2.579 6.684-5.979 8.885-9.832l.743-1.301zm-.797 19.16c-.435-.433-.764-.955-.989-1.555 2.891-2.681 6.606-4.317 10.552-4.6l4.181-.299c.084-.006.161-.03.243-.041-.602 1.518-1.58 2.995-2.868 4.284-1.826 1.825-4.024 3.041-6.191 3.424-2.038.356-3.788-.07-4.928-1.213zm-1.335 1.486c.579.56 1.252.995 2 1.303v20.547h-2zm21-11.55c0 8.513-4.666 16.289-12.177 20.295l-2.823 1.505v11.6h-2v-20.05c.293.031.59.052.896.052.553 0 1.126-.051 1.714-.155 2.567-.452 5.146-1.865 7.259-3.979 2.017-2.018 3.388-4.46 3.902-6.91.756-.767 1.229-1.811 1.229-2.958v-.509c0-11.421-9.058-21.054-20.191-21.475-5.744-.223-11.214 1.863-15.366 5.861-4.155 4.001-6.443 9.372-6.443 15.123 0 2.757 2.243 5 5 5h9.439c-.285.633-.439 1.327-.439 2.039 0 2.735 2.226 4.961 4.961 4.961h.398c.57 0 1.118-.113 1.641-.297v23.297h-11v-9c4.963 0 9-4.037 9-9v-1h-2v1c0 3.859-3.141 7-7 7h-8.087l-.961-10.566-2.952-1.969v-11.465c0-12.683 10.317-23 23-23s23 10.317 23 23z"/><path d="m22 17c-2.206 0-4 1.794-4 4h2c0-1.103.897-2 2-2z"/><path d="m21 27h2c0-1.103.897-2 2-2v-2c-2.206 0-4 1.794-4 4z"/><path d="m31 20h2c0-1.103.897-2 2-2v-2c-2.206 0-4 1.794-4 4z"/><path d="m38 29c0-1.103.897-2 2-2v-2c-2.206 0-4 1.794-4 4z"/><path d="m47 23h2c0-2.206-1.794-4-4-4v2c1.103 0 2 .897 2 2z"/><path d="m24 10v2c1.103 0 2 .897 2 2h2c0-2.206-1.794-4-4-4z"/><path d="m40 13c0-2.206-1.794-4-4-4v2c1.103 0 2 .897 2 2z"/><path d="m23 57h2v2h-2z"/><path d="m23 53h2v2h-2z"/></svg>