<?xml version="1.0" encoding="iso-8859-1"?>
<!-- Generator: Adobe Illustrator 19.0.0, SVG Export Plug-In . SVG Version: 6.00 Build 0)  -->
<svg xmlns="http://www.w3.org/2000/svg" xmlns:xlink="http://www.w3.org/1999/xlink" version="1.1" id="Layer_1" x="0px" y="0px" viewBox="0 0 512 512" style="enable-background:new 0 0 512 512;" xml:space="preserve">
<g>
	<g>
		<path d="M257.7,16.281C255.154,6.91,246.573,0,236.408,0h-19.031c-11.946,0-22.135,9.271-22.586,21.209    c-0.475,12.55,9.598,22.912,22.044,22.912h19.573c8.751,0,16.328-5.121,19.892-12.524c11.976,4.559,20.281,16.246,20.281,29.292    v53.389c0,49.39-40.323,89.57-89.888,89.57c-49.564,0-89.887-40.181-89.887-89.57V60.889c0-13.778,9.14-25.822,21.959-29.875    c3.44,7.716,11.183,13.107,20.161,13.107h19.031c11.946,0,22.135-9.271,22.586-21.209C181.017,10.362,170.945,0,158.498,0h-19.573    c-9.97,0-18.417,6.649-21.14,15.745c-20.776,4.791-35.98,23.523-35.98,45.144v169.874c0,22.884,16.854,42.207,39.095,45.748    c2.916,8.785,11.225,15.141,20.994,15.141h22.69v21.62c0,9.538,6.098,17.683,14.608,20.754v34.842H71.775    C32.198,368.867,0,400.972,0,440.434C0,479.896,32.198,512,71.775,512h50.642c39.577,0,71.776-32.104,71.776-71.566v-56.566    h47.797c3.919,0,6.918-3.323,6.725-7.237c-0.002-0.027-0.003-0.053-0.004-0.079c-0.014-0.308-0.016-0.614-0.008-0.918    c0.1-3.746-3.081-6.766-6.827-6.766h-47.683v-34.842c8.51-3.072,14.608-11.216,14.608-20.754v-21.62h22.69    c9.768,0,18.077-6.354,20.993-15.137c22.498-3.533,39.096-22.684,39.096-45.752V60.889C291.58,40.206,277.474,21.831,257.7,16.281    z M236.408,29.121h-19.573c-3.893,0-7.061-3.167-7.061-7.061s3.168-7.06,7.061-7.06h19.573c3.893,0,7.061,3.167,7.061,7.061    C243.469,25.955,240.301,29.121,236.408,29.121z M138.925,15h19.573c3.893,0,7.061,3.167,7.061,7.061    c0,3.894-3.167,7.061-7.061,7.061h-19.573c-3.893,0-7.061-3.167-7.061-7.061C131.864,18.167,135.032,15,138.925,15z M122.417,497    H71.775C40.469,497,15,471.624,15,440.434s25.469-56.566,56.775-56.566h107.417v56.566h0.001    C179.193,471.624,153.723,497,122.417,497z M231.491,276.651h-30.19c-4.142,0-7.5,3.358-7.5,7.5v29.12    c0,3.894-3.188,7.061-7.108,7.061s-7.108-3.167-7.108-7.061v-29.12c0-4.143-3.358-7.5-7.5-7.5h-30.19    c-3.919,0-7.108-3.167-7.108-7.061c0-3.894,3.188-7.061,7.108-7.061h89.596c3.919,0,7.108,3.167,7.108,7.061    C238.599,273.484,235.41,276.651,231.491,276.651z M276.58,230.763c0,14.951-10.319,27.469-24.582,30.586    c-3.279-8.093-11.236-13.818-20.508-13.818h-89.596c-9.268-0.001-17.223,5.721-20.504,13.81    c-14.114-3.139-24.585-15.753-24.585-30.578V168.12c18.374,30.372,51.792,50.728,89.888,50.728    c38.095,0,71.514-20.355,89.887-50.728V230.763z"/>
	</g>
</g>
<g>
	<g>
		<path d="M446.879,343.84c-17.533,0-31.798,14.229-31.798,31.719c0,17.489,14.265,31.719,31.798,31.719    c17.533,0,31.798-14.229,31.798-31.719C478.677,358.068,464.412,343.84,446.879,343.84z M446.879,392.277    c-9.263,0-16.798-7.5-16.798-16.719s7.535-16.719,16.798-16.719s16.798,7.5,16.798,16.719S456.142,392.277,446.879,392.277z"/>
	</g>
</g>
<g>
	<g>
		<path d="M446.879,310.625c-28.447,0-52.692,18.281-61.539,43.682h-35.036c-9.553,0-17.71,6.077-20.793,14.561h-56.755    c-4.114,0-7.253,3.492-7.048,7.601c0.001,0.028,0.003,0.055,0.004,0.083c0.005,0.109,0.008,0.218,0.01,0.326    c0.076,3.873,3.19,6.989,7.063,6.989h56.726c3.083,8.483,11.24,14.561,20.793,14.561h35.624    c9.296,24.556,33.111,42.063,60.951,42.063c35.908,0,65.121-29.129,65.121-64.933C512,339.754,482.787,310.625,446.879,310.625z     M350.304,383.427L350.304,383.427c-3.92,0.001-7.108-3.166-7.108-7.06c0-3.894,3.188-7.061,7.108-7.061h31.755    c-0.198,2.058-0.3,4.144-0.3,6.252c0,2.664,0.161,5.288,0.476,7.869H350.304z M446.879,425.491    c-27.637,0-50.12-22.399-50.12-49.933c0-27.534,22.483-49.934,50.12-49.934c27.637,0,50.121,22.401,50.121,49.935    S474.516,425.491,446.879,425.491z"/>
	</g>
</g>
<g>
</g>
<g>
</g>
<g>
</g>
<g>
</g>
<g>
</g>
<g>
</g>
<g>
</g>
<g>
</g>
<g>
</g>
<g>
</g>
<g>
</g>
<g>
</g>
<g>
</g>
<g>
</g>
<g>
</g>
</svg>
