<svg id="Layer_1" enable-background="new 0 0 512 512" height="512" viewBox="0 0 512 512" width="512" xmlns="http://www.w3.org/2000/svg"><g><g><path d="m300.666 123.526c-23.846 16.544-40.672 42.927-45.084 71.751-1.649 10.801-1.6 21.627-1.552 32.098.03 6.517.061 13.255-.338 19.734-.254 4.134 2.891 7.692 7.025 7.946.157.01.312.014.467.014 3.931 0 7.233-3.062 7.478-7.04.429-6.973.397-13.963.366-20.724-.047-10.348-.092-20.123 1.38-29.762 4.435-28.979 23.476-55.089 49.69-68.141 5.836-2.906 5.427-11.404-.677-13.725-23.154-8.802-42.545-26.696-53.2-49.092-7.522-15.805-10.611-33.901-8.891-51.585h40.768c-.128 16.518 3.947 40.501 24.783 58.454 13.941 12.005 37.06 16.403 62.054 24.879 3.923 1.331 8.181-.772 9.51-4.694 1.33-3.923-.771-8.181-4.693-9.511-23.828-8.082-46.107-12.587-57.084-22.04-19.526-16.824-20.426-40.987-19.224-53.893.195-2.101-.503-4.187-1.924-5.747-1.42-1.559-3.433-2.448-5.542-2.448h-55.23c-3.674 0-6.808 2.663-7.401 6.29-3.699 22.62-.386 46.323 9.33 66.743 10.177 21.389 27.256 39.219 47.989 50.493z"/><path d="m89.5 473.593c-.393-2.816-.658-5.729-.788-8.66-.184-4.139-3.701-7.341-7.824-7.161-4.138.184-7.343 3.687-7.16 7.825.151 3.4.459 6.788.918 10.071 1.018 7.284 2.426 14.424 4.207 21.332h-37.532c-7.459-31.177-6.235-60.43 3.709-89.243 8.056-23.345 24.728-45.333 46.946-61.912 22.617-16.877 49.079-26.597 74.511-27.368 27.313-.828 59.738 1.374 81.625-18.835 5.157-4.759 9.424-10.699 12.682-17.655 1.757-3.751.142-8.216-3.609-9.974-3.75-1.756-8.215-.142-9.972 3.609-2.43 5.188-5.55 9.56-9.273 12.997-17.549 16.204-46.976 14.11-71.906 14.864-58.123 1.762-116.238 44.486-135.182 99.38-11.543 33.447-12.392 67.333-2.598 103.593.884 3.271 3.851 5.544 7.239 5.544h53.322c5.07 0 8.692-4.944 7.142-9.786-2.895-9.052-5.068-18.682-6.457-28.621z"/><path d="m486.391 187.155c-9.596-42.154-31.203-71.648-66.057-90.167-3.656-1.942-8.197-.554-10.141 3.105-1.943 3.658-.553 8.199 3.105 10.142 31.201 16.578 49.78 42.078 58.47 80.251 11.716 51.432-6.455 113.576-28.297 149.552-17.094 28.16-39.685 50.106-67.143 65.229-24.76 13.636-52.319 20.843-79.699 20.843-73.919 0-76.099-58.974-129.583-62.711-52.336-3.679-80.683 32.831-89.762 68.212-1.03 4.012 1.388 8.099 5.4 9.129 4.014 1.031 8.098-1.388 9.128-5.4 14.543-56.674 60.464-57.938 74.187-56.977 44.59 3.115 50.917 62.748 130.63 62.748 29.903 0 59.964-7.851 86.934-22.704 29.366-16.173 54.516-40.581 72.728-70.583 24.141-39.765 42.811-104.867 30.1-160.669z"/></g></g></svg>