<svg height="512" viewBox="0 0 300 300" width="512" xmlns="http://www.w3.org/2000/svg"><path d="M42.92 110.93a4.28 4.28 0 10-8.56 0 4.28 4.28 0 008.56 0zM245.63 146H225.4c.32-3.76.3-7.5-.08-11.14-2.82-27.29-24.7-49.51-52.03-52.84a59.94 59.94 0 00-31.65 4.67A59.88 59.88 0 00110 82.02c-27.33 3.33-49.21 25.55-52.03 52.84-.38 3.64-.4 7.37-.08 11.14H41.63a4 4 0 00-4 4v112a4 4 0 004 4h204a4 4 0 004-4V150a4 4 0 00-4-4zm-183.22 8a4 4 0 003.94-4.64c-.74-4.64-.9-9.24-.43-13.68 2.43-23.61 21.38-42.84 45.04-45.72 10-1.21 20 .42 28.93 4.74 1.1.54 2.39.54 3.49 0a51.84 51.84 0 0128.93-4.74c23.66 2.88 42.6 22.11 45.04 45.72.46 4.44.31 9.04-.43 13.68a4 4 0 003.95 4.64h20.77v7.62h-37.17a43.24 43.24 0 004.93-25.12c-2.06-19.93-18.06-36.16-38.05-38.6a43.9 43.9 0 00-29.71 7 43.9 43.9 0 00-29.72-7c-19.99 2.44-35.99 18.67-38.05 38.6a43.23 43.23 0 004.93 25.12H45.64V154zm79.61 24.12a3.58 3.58 0 00-.77 0 21.53 21.53 0 00-19.62 21.43v35.67a6.82 6.82 0 01-6.84 6.78 6.7 6.7 0 01-6.24-3.98c-3.7-9.06-5.73-22.98-5.84-40.25-.04-5.01-1.8-12.24-5.23-21.47a41.08 41.08 0 00-7.4-12.26 35.2 35.2 0 01-8.25-26.72c1.68-16.25 14.74-29.49 31.06-31.47a35.94 35.94 0 0125.66 6.64 4 4 0 002.36.78h1.45c.85 0 1.68-.27 2.36-.78a35.95 35.95 0 0125.66-6.64c16.32 1.98 29.38 15.22 31.05 31.47a35.2 35.2 0 01-8.25 26.72 41.1 41.1 0 00-7.39 12.25c-3.44 9.24-5.2 16.47-5.23 21.48-.11 17.27-2.13 31.19-5.84 40.25a6.7 6.7 0 01-6.24 3.98 6.82 6.82 0 01-6.85-6.78v-35.67a21.53 21.53 0 00-19.6-21.43zM241.63 258h-196v-88.38H84.3a32.75 32.75 0 015.68 9.46c3.02 8.13 4.7 14.79 4.73 18.74.12 18.54 2.28 33.09 6.43 43.23A14.6 14.6 0 00114.8 250c8.18 0 14.84-6.63 14.84-14.78v-35.67c0-6.86 5.14-12.56 12-13.42 6.87.86 12 6.56 12 13.42v35.67c0 8.15 6.66 14.78 14.85 14.78a14.6 14.6 0 0013.65-8.95c4.14-10.14 6.3-24.69 6.43-43.23.03-3.95 1.7-10.61 4.73-18.74 1.19-3.2 3.1-6.38 5.68-9.46h42.66zM61.63 50a4 4 0 004-4v-8a4 4 0 10-8 0v8a4 4 0 004 4zM61.63 58a4 4 0 00-4 4v8a4 4 0 108 0v-8a4 4 0 00-4-4zM45.63 58h8a4 4 0 100-8h-8a4 4 0 100 8zM69.64 58h8a4 4 0 100-8h-8a4 4 0 100 8zM251.63 62c-7.71 0-14 6.28-14 14s6.29 14 14 14 14-6.28 14-14-6.28-14-14-14zm0 20a6 6 0 11.02-12.01 6 6 0 01-.02 12.01zM202.64 47.2a4.28 4.28 0 100-8.55 4.28 4.28 0 000 8.55z"/><path d="M166.85 138.51a3.68 3.68 0 10-7.35 0 3.68 3.68 0 007.35 0zM118.53 134.84a3.68 3.68 0 100 7.35 3.68 3.68 0 000-7.35zM157.33 155.13a4 4 0 00-4.98 2.68 3.97 3.97 0 01-4.95 2.66 4 4 0 00-2.3 7.66 11.95 11.95 0 0014.91-8.02 4 4 0 00-2.68-4.98z"/></svg>