<svg height="512" viewBox="0 0 300 300" width="512" xmlns="http://www.w3.org/2000/svg"><path d="M40 118.65a4.28 4.28 0 100 8.55 4.28 4.28 0 000-8.55zM59 54a4 4 0 004-4v-8a4 4 0 10-8 0v8a4 4 0 004 4zM63 74v-8a4 4 0 10-8 0v8a4 4 0 108 0zM51 54h-8a4 4 0 100 8h8a4 4 0 100-8zM67 62h8a4 4 0 100-8h-8a4 4 0 100 8zM237 214c-7.72 0-14 6.28-14 14s6.28 14 14 14 14-6.28 14-14-6.29-14-14-14zm0 20a6 6 0 110-12.01 6 6 0 010 12.01zM260 162.65a4.28 4.28 0 100 8.55 4.28 4.28 0 000-8.55zM230.37 121.38c-2.51-24.43-22.02-44.33-46.4-47.3a53.25 53.25 0 00-38.24 9.97c-.4.3-.99.3-1.4 0a53.3 53.3 0 00-38.24-9.98c-24.38 2.98-43.89 22.88-46.4 47.31a53.1 53.1 0 0012.34 40.1 42.35 42.35 0 017.6 12.6c3.8 10.27 5.9 18.7 5.93 23.76.16 23.03 2.82 41.06 7.92 53.6A17.14 17.14 0 00109.53 262c9.63 0 17.46-7.83 17.46-17.46V200c0-9.93 8.08-18 18-18s18 8.07 18 18v44.49c0 9.65 7.86 17.51 17.52 17.51 7.15 0 13.47-4.16 16.09-10.6 5.08-12.52 7.74-30.54 7.9-53.56.02-2.74.62-6.41 1.8-10.9 2.43-9.27 7.16-18.73 14.44-28.93a53.55 53.55 0 009.63-36.63zm-16.14 31.98c-7.86 11-12.98 21.32-15.66 31.54-1.35 5.14-2.05 9.47-2.07 12.88-.15 21.7-2.68 39.2-7.32 50.61a9.34 9.34 0 01-8.67 5.6 9.52 9.52 0 01-9.51-9.5V200c0-14.34-11.67-26-26-26s-26 11.66-26 26v44.53a9.48 9.48 0 01-9.47 9.47 9.3 9.3 0 01-8.64-5.58c-4.64-11.42-7.18-28.93-7.32-50.63-.06-7.65-3.53-18.62-6.43-26.48a50.41 50.41 0 00-9-15 45.16 45.16 0 01-10.49-34.11A45.47 45.47 0 01107.05 82a45.28 45.28 0 0132.53 8.48 9.26 9.26 0 0010.9 0A45.29 45.29 0 01183 82.01a45.46 45.46 0 0139.4 40.19 45.52 45.52 0 01-8.18 31.16z"/><path d="M175.23 118l-16.23.24v-16.48a7.77 7.77 0 00-7.77-7.76h-12.47a7.77 7.77 0 00-7.77 7.76l.24 16.24h-16.47a7.77 7.77 0 00-7.77 7.76v12.48a7.77 7.77 0 007.76 7.76l16.24-.24v16.48a7.77 7.77 0 007.76 7.76h12.48a7.77 7.77 0 007.76-7.76l-.23-16.24h16.47a7.77 7.77 0 007.77-7.76v-12.48a7.77 7.77 0 00-7.77-7.76zm-16.47 20a7.77 7.77 0 00-7.77 7.76l.24 16.24-12.24.24v-16.48a7.77 7.77 0 00-7.76-7.76l-16.24.24-.23-12.24h16.47a7.77 7.77 0 007.77-7.76l-.24-16.24 12.23-.24v16.48a7.77 7.77 0 007.77 7.76H175l.23 12zM147 70a4 4 0 004-4V42a4 4 0 10-8 0v24a4 4 0 004 4zM163 66c1.02 0 2.04-.4 2.82-1.17l16-16a4 4 0 10-5.65-5.66l-16 16A4 4 0 00163 66zM128.17 64.83a3.99 3.99 0 005.65 0 4 4 0 000-5.66l-16-16a4 4 0 10-5.65 5.66z"/></svg>