<svg id="x-ray" enable-background="new 0 0 300 300" height="512" viewBox="0 0 300 300" width="512" xmlns="http://www.w3.org/2000/svg"><g><path d="m165.005 51.204c2.362 0 4.277-1.915 4.277-4.276s-1.915-4.277-4.277-4.277-4.276 1.915-4.276 4.277 1.915 4.276 4.276 4.276z"/><path d="m236 54c2.211 0 4-1.791 4-4v-8c0-2.209-1.789-4-4-4s-4 1.791-4 4v8c0 2.209 1.789 4 4 4z"/><path d="m236 62c-2.211 0-4 1.791-4 4v8c0 2.209 1.789 4 4 4s4-1.791 4-4v-8c0-2.209-1.789-4-4-4z"/><path d="m228 54h-8c-2.211 0-4 1.791-4 4s1.789 4 4 4h8c2.211 0 4-1.791 4-4s-1.789-4-4-4z"/><path d="m252 54h-8c-2.211 0-4 1.791-4 4s1.789 4 4 4h8c2.211 0 4-1.791 4-4s-1.789-4-4-4z"/><path d="m216 86h-168c-2.209 0-4 1.791-4 4v168c0 1.061.422 2.078 1.172 2.828s1.767 1.172 2.828 1.172l168-.004c2.211 0 4-1.791 4-4v-32.598-85.58-49.818c0-2.209-1.789-4-4-4zm-72.695 104.693c-3.016-3.027-7.032-4.693-11.305-4.693s-8.287 1.666-11.305 4.691-4.674 7.047-4.662 11.32l.043 14.916c.006 1.744-.824 3.301-2.273 4.27-.674.443-1.369.309-1.832.115-.662-.275-1.443-.943-1.648-1.982-.24-1.242-.51-2.871-.781-4.664-1.179-7.78-3.001-15.487-5.406-23.013 3.671-6.506 8.496-12.364 14.125-16.961 8.092-6.605 19.393-6.605 27.479 0 5.631 4.595 10.455 10.456 14.127 16.964-2.404 7.521-4.226 15.228-5.405 23.011-.273 1.787-.539 3.414-.785 4.66-.203 1.045-.984 1.711-1.648 1.986-.465.195-1.156.334-1.828-.115-1.453-.969-2.281-2.523-2.273-4.271l.039-14.914c.01-4.275-1.643-8.294-4.662-11.32zm50.137-16.689h-18.884c2.858-9.13 2.898-12.784 2.563-14.775-2.023-12.018-11.895-21.605-23.996-23.316-.461-.066-.98-.115-1.516-.143-3.984-.225-8.207.709-12.609 2.74h-.004c-4.703 2.172-9.289 2.168-13.992 0-4.412-2.033-8.65-2.965-12.605-2.74-.547.027-1.061.076-1.512.141-12.111 1.713-21.982 11.301-24.006 23.316-.336 1.993-.296 5.647 2.562 14.777h-18.885c2.858-9.13 2.898-12.784 2.563-14.775-1.842-10.932-10.402-19.933-21.121-22.662v-22.567h160v22.563c-10.756 2.719-19.263 11.628-21.121 22.664-.335 1.992-.295 5.647 2.563 14.777zm-42.641-5.508c-11.07-9.043-26.535-9.039-37.6 0-4.706 3.841-8.895 8.474-12.462 13.57-6.294-16.632-6.085-20.829-5.97-21.509 1.451-8.617 8.539-15.496 17.25-16.727.24-.035.508-.057.803-.072.242-.014.484-.02.73-.02 2.475 0 5.135.67 8.102 2.037 6.861 3.164 13.83 3.164 20.689 0 3.266-1.502 6.172-2.131 8.844-2.018.285.016.555.037.809.074 8.695 1.229 15.785 8.107 17.234 16.727.114.678.322 4.875-5.97 21.508-3.567-5.096-7.756-9.729-12.459-13.57zm-98.801-23.634c6.78 2.48 12.023 8.524 13.232 15.697.117.697.355 5.08-6.512 22.941-2.844 7.394-5.087 15.017-6.721 22.746v-61.384zm146.77 15.695c1.207-7.172 6.32-13.139 13.23-15.666v61.295c-1.633-7.715-3.883-15.316-6.719-22.686-6.867-17.861-6.629-22.244-6.511-22.943zm13.23-66.557v12h-160v-12zm-160 159.996v-25.848c2.822-1.494 4.906-4.109 5.529-7.29.26-1.328.549-3.074.84-4.992 1.521-10.041 4.152-19.963 7.818-29.494.597-1.553 1.13-2.987 1.635-4.367h24.358c.505 1.381 1.037 2.814 1.635 4.367 3.664 9.527 6.295 19.451 7.816 29.494.291 1.918.58 3.664.84 4.996.689 3.52 3.092 6.449 6.428 7.838 3.162 1.314 6.568 1.008 9.348-.85 3.664-2.449 5.844-6.541 5.828-10.945l-.043-14.914c-.004-2.133.824-4.139 2.328-5.648 3.016-3.02 8.266-3.02 11.281 0 1.504 1.51 2.332 3.516 2.324 5.648l-.039 14.912c-.016 4.406 2.164 8.5 5.828 10.947 1.641 1.098 3.504 1.654 5.406 1.654 1.312 0 2.648-.268 3.938-.805 3.336-1.387 5.742-4.316 6.43-7.83.262-1.332.551-3.08.84-5.004 1.527-10.051 4.156-19.975 7.82-29.494.597-1.553 1.13-2.987 1.635-4.367h24.356c.504 1.381 1.037 2.814 1.635 4.367 3.664 9.52 6.293 19.443 7.82 29.494.289 1.924.578 3.672.84 4.994.63 3.232 2.715 5.903 5.527 7.375v25.766z"/></g></svg>