<svg width="0" height="0" class="hidden">
	<symbol viewBox="0 0 300 300" xmlns="http://www.w3.org/2000/svg" shape-rendering="geometricPrecision" fill-rule="evenodd" clip-rule="evenodd" id="clock">
		<path fill-rule="nonzero" d="M150 0C67.16 0 0 67.16 0 150s67.16 150 150 150 150-67.17 150-150S232.82 0 150 0zm64.84 178.52h-63.59c-.21 0-.41-.05-.63-.06-.21.01-.41.06-.63.06a10.37 10.37 0 01-10.37-10.37V62.25a10.37 10.37 0 0120.75 0v95.53h54.47a10.37 10.37 0 010 20.74z"/>
	</symbol>

	<symbol viewBox="0 0 480.56 480.56" xmlns="http://www.w3.org/2000/svg" shape-rendering="geometricPrecision" fill-rule="evenodd" clip-rule="evenodd" id="phone">
		<path fill-rule="nonzero" d="M365.35 317.9c-15.7-15.5-35.3-15.5-50.9 0-11.9 11.8-23.8 23.6-35.5 35.6-3.2 3.3-5.9 4-9.8 1.8-7.7-4.2-15.9-7.6-23.3-12.2-34.5-21.7-63.4-49.6-89-81-12.7-15.6-24-32.3-31.9-51.1-1.6-3.8-1.3-6.3 1.8-9.4 11.9-11.5 23.5-23.3 35.2-35.1 16.3-16.4 16.3-35.6-.1-52.1-9.3-9.4-18.6-18.6-27.9-28-9.6-9.6-19.1-19.3-28.8-28.8-15.7-15.3-35.3-15.3-50.9.1-12 11.8-23.5 23.9-35.7 35.5-11.3 10.7-17 23.8-18.2 39.1-1.9 24.9 4.2 48.4 12.8 71.3 17.6 47.4 44.4 89.5 76.9 128.1 43.9 52.2 96.3 93.5 157.6 123.3 27.6 13.4 56.2 23.7 87.3 25.4 21.4 1.2 40-4.2 54.9-20.9 10.2-11.4 21.7-21.8 32.5-32.7 16-16.2 16.1-35.8.2-51.8-19-19.1-38.1-38.1-57.2-57.1zM346.25 238.2l36.9-6.3c-5.8-33.9-21.8-64.6-46.1-89a164.03 164.03 0 00-94-46.9l-5.2 37.1c27.7 3.9 52.9 16.4 72.8 36.3 18.8 18.8 31.1 42.6 35.6 68.8zM403.95 77.8c-42.6-42.6-96.5-69.5-156-77.8l-5.2 37.1c51.4 7.2 98 30.5 134.8 67.2 34.9 34.9 57.8 79 66.1 127.5l36.9-6.3c-9.7-56.2-36.2-107.2-76.6-147.7z"/>
	</symbol>

	<symbol viewBox="0 0 512 512" xmlns="http://www.w3.org/2000/svg" shape-rendering="geometricPrecision" fill-rule="evenodd" clip-rule="evenodd" id="location">
		<path fill-rule="nonzero" d="M256 0C153.75 0 70.57 83.18 70.57 185.43c0 126.88 165.94 313.16 173 321.03a16.7 16.7 0 0024.85 0c7.07-7.87 173-194.15 173-321.03C441.43 83.18 358.25 0 256 0zm0 278.72c-51.44 0-93.3-41.85-93.3-93.3s41.86-93.29 93.3-93.29 93.3 41.86 93.3 93.3-41.86 93.29-93.3 93.29z"/>
	</symbol>

	<symbol viewBox="0 0 490.4 490.4" xmlns="http://www.w3.org/2000/svg" shape-rendering="geometricPrecision" fill-rule="evenodd" clip-rule="evenodd" id="circle-arrow">
		<path fill-rule="nonzero" d="M490.4 245.2C490.4 110 380.4 0 245.2 0S0 110 0 245.2s110 245.2 245.2 245.2 245.2-110 245.2-245.2zm-465.9 0c0-121.7 99-220.7 220.7-220.7s220.7 99 220.7 220.7-99 220.7-220.7 220.7-220.7-99-220.7-220.7z"/><path d="M253.9 360.4l68.9-68.9c4.8-4.8 4.8-12.5 0-17.3s-12.5-4.8-17.3 0l-48 48V138.7a12.3 12.3 0 10-24.6 0v183.4l-48-48c-4.8-4.8-12.5-4.8-17.3 0s-4.8 12.5 0 17.3l68.9 68.9c2.4 2.4 5.5 3.6 8.7 3.6s6.3-1.1 8.7-3.5z"/>
	</symbol>

	<symbol viewBox="0 0 512 512" xmlns="http://www.w3.org/2000/svg" shape-rendering="geometricPrecision" fill-rule="evenodd" clip-rule="evenodd" id="car">
		<path fill-rule="nonzero" d="M427.97 81.56h-24.99c-3.73 0-6.1 2.36-6.1 4.98v80.81c0 3.36 3.99 5.1 8.09 5.1 3.98 0 8.08-1.74 8.08-5.1v-28.84h13.93c16.4 0 29.22-7.83 29.22-28.23v-.74c0-20.4-12.44-27.98-28.23-27.98zm12.06 29.97c0 9.7-4.97 14.3-13.05 14.3h-13.93v-30.1h13.93c8.08 0 13.05 4.6 13.05 14.3v1.5zM293.07 113.16a124.15 124.15 0 00-88.37-36.6c-33.38 0-64.76 13-88.36 36.6a7.3 7.3 0 1010.3 10.31 109.66 109.66 0 0178.06-32.33c29.49 0 57.2 11.48 78.05 32.33a7.28 7.28 0 0010.32 0 7.3 7.3 0 000-10.31z"/><path d="M262.98 143.25c-32.14-32.14-84.42-32.14-116.55 0a7.3 7.3 0 1010.31 10.31 67.9 67.9 0 0195.92 0 7.27 7.27 0 0010.32 0 7.3 7.3 0 000-10.31zM233.36 172.86a40.58 40.58 0 00-57.32 0 7.3 7.3 0 1010.31 10.32 25.98 25.98 0 0136.7 0 7.27 7.27 0 0010.31 0 7.3 7.3 0 000-10.32zM358.92 314.92a119.68 119.68 0 01-9.25-5.66l-48.25-32.59a87.91 87.91 0 00-49.39-15.12h-88.55a87.68 87.68 0 00-62.27 25.73 118.2 118.2 0 01-28.99 21.2 18.91 18.91 0 00-10.23 16.84 19 19 0 0018.98 18.98h30.19a7.3 7.3 0 000-14.59h-30.2a4.4 4.4 0 01-2.02-8.28c12-6.23 22.95-14.24 32.56-23.82a73.18 73.18 0 0151.98-21.47h19.82v53.57h-24.23a7.3 7.3 0 000 14.59h200c6 0 10.87-4.88 10.87-10.87 0-7.68-4.22-14.77-11.02-18.51zm-161.03 14.8v-53.58h54.14c14.75 0 29 4.36 41.23 12.62l48.24 32.6c3.35 2.25 6.85 4.4 10.4 6.34a6.8 6.8 0 012.26 2.01H197.89zM215.97 355.39h-22.53a7.3 7.3 0 000 14.59h22.53a7.3 7.3 0 000-14.6z"/><path d="M505.7 349.27l-2.3-3.83a60.04 60.04 0 00-39.62-27.83l-18.83-3.75v-95.45h48.73c10.04 0 18.2-8.16 18.2-18.2V58.18c0-10.04-8.17-18.2-18.2-18.2H351.63a18.22 18.22 0 00-18.2 18.2v53.88a7.3 7.3 0 1014.6 0V58.17c0-2 1.61-3.61 3.6-3.61h142.05c2 0 3.61 1.62 3.61 3.6v142.06c0 1.99-1.62 3.6-3.6 3.6H351.62a3.61 3.61 0 01-3.6-3.6v-40.75a7.3 7.3 0 10-14.6 0v40.75c0 10.03 8.17 18.2 18.2 18.2h55.26v87.87l-9.68-1.92c-13.36-2.66-26.38-10.72-35.02-16.56l-48.24-32.59a110.2 110.2 0 00-61.92-18.95h-88.55a109.9 109.9 0 00-78.06 32.25 95.78 95.78 0 01-48.08 25.95l-10.47 2.2A33.94 33.94 0 000 329.74v70.64c0 8.43 4.97 16.09 12.68 19.5l29.05 12.92A48.11 48.11 0 0055 457.86 48.24 48.24 0 0089.23 472a48.24 48.24 0 0046.55-35.24H378a48.08 48.08 0 0012.34 21.09 48.07 48.07 0 0034.22 14.17 48.07 48.07 0 0034.21-14.17 48.07 48.07 0 0012.34-21.09h13.84A27.08 27.08 0 00512 409.73v-37.84c0-7.97-2.18-15.8-6.3-22.62zM421.49 218.4h8.88v92.55l-8.88-1.77v-90.78zM113.12 447.55c-6.38 6.38-14.87 9.9-23.9 9.9s-17.51-3.52-23.9-9.9a33.85 33.85 0 01-6.84-37.94l.13-.3a32.98 32.98 0 012.72-4.74l.5-.72.6-.8.48-.61.74-.88.43-.5c.37-.41.75-.82 1.14-1.21l.1-.1.23-.22c.34-.33.67-.66 1.02-.97l.27-.23 1.04-.9.1-.07c12.36-10 30.2-10 42.54.04l.04.03c.38.3.75.63 1.12.95l.2.18a33.9 33.9 0 012.52 2.53l.53.62.63.75a34.38 34.38 0 011.82 2.48l.13.2a33.86 33.86 0 01-4.39 42.4zm335.35 0c-6.39 6.38-14.88 9.9-23.9 9.9s-17.52-3.52-23.9-9.9a33.85 33.85 0 01-1.81-45.83l.53-.62a33.58 33.58 0 0125.18-11.25 33.58 33.58 0 0125.17 11.25l.53.61a31.92 31.92 0 012.58 3.43 33.86 33.86 0 01-4.38 42.4zm48.94-37.82c0 6.87-5.59 12.45-12.46 12.45h-12a47.78 47.78 0 00-10.74-28.94l-.14-.17c-.41-.5-.84-1-1.28-1.5l-.33-.38c-.47-.51-.95-1.01-1.44-1.5l-.24-.26a48.1 48.1 0 00-34.22-14.18 48.05 48.05 0 00-34.22 14.17l-.23.26c-.49.5-.97 1-1.44 1.51-.1.12-.2.25-.32.37-.44.5-.88 1-1.3 1.51l-.12.16a47.8 47.8 0 00-10.75 28.96H137.6a47.79 47.79 0 00-10.77-29l-.1-.11a49.6 49.6 0 00-1.35-1.59l-.26-.29a48.48 48.48 0 00-9.27-7.96 48.35 48.35 0 00-26.63-7.96 48.24 48.24 0 00-35.78 15.8l-.45.5a51.12 51.12 0 00-2.56 3.15l-.32.42a48.2 48.2 0 00-2.54 3.86l-.07.11a47.8 47.8 0 00-1.1 1.98l-.03.06a48.08 48.08 0 00-5.04 15.5l-22.73-10.1a6.76 6.76 0 01-4.01-6.18v-70.64a19.3 19.3 0 0115.27-18.8l10.47-2.2a110.34 110.34 0 0055.39-29.89 95.4 95.4 0 0167.76-28h88.55a95.68 95.68 0 0153.75 16.46l48.25 32.59c9.68 6.54 24.4 15.6 40.34 18.77l66.57 13.24a45.42 45.42 0 0129.97 21.06l2.3 3.82a29.25 29.25 0 014.2 15.1v37.84z"/><path d="M104.88 407.99a22 22 0 00-15.66-6.49 22 22 0 00-15.65 6.49 22 22 0 00-6.49 15.65 22 22 0 006.49 15.66 22 22 0 0015.65 6.49 22.17 22.17 0 0015.66-37.8zm-10.31 21a7.5 7.5 0 01-5.35 2.21 7.5 7.5 0 01-5.34-2.21 7.5 7.5 0 01-2.21-5.35 7.5 7.5 0 012.21-5.34 7.5 7.5 0 015.34-2.21 7.57 7.57 0 015.34 12.9zM440.22 407.99a22 22 0 00-15.66-6.49 22 22 0 00-15.65 6.49 22.17 22.17 0 000 31.31 22 22 0 0015.65 6.49 22 22 0 0015.66-6.49 22 22 0 006.49-15.66 22 22 0 00-6.49-15.65zm-10.31 21a7.5 7.5 0 01-5.35 2.21 7.56 7.56 0 115.34-2.21z"/>
	</symbol>

	<symbol viewBox="0 0 512 512" xmlns="http://www.w3.org/2000/svg" shape-rendering="geometricPrecision" fill-rule="evenodd" clip-rule="evenodd" id="doctor">
		<path fill-rule="nonzero" d="M207.9 160.32a7.5 7.5 0 00-7.5 7.5v8.02a7.5 7.5 0 1015 0v-8.02a7.5 7.5 0 00-7.5-7.5zM304.1 160.32a7.5 7.5 0 00-7.5 7.5v8.02a7.5 7.5 0 1015 0v-8.02a7.5 7.5 0 00-7.5-7.5zM285.39 218.67a7.5 7.5 0 00-10.6-.07c-2.74 2.7-9.3 5.85-18.79 5.85-9.48 0-16.04-3.15-18.78-5.85a7.5 7.5 0 10-10.53 10.67c6.46 6.38 17.41 10.18 29.31 10.18 11.9 0 22.86-3.8 29.32-10.18a7.5 7.5 0 00.07-10.6zM215.92 136.27H199.9a7.5 7.5 0 100 15h16.03a7.5 7.5 0 100-15zM312.11 136.27h-16.03a7.5 7.5 0 100 15h16.03a7.5 7.5 0 100-15z"/><path d="M416.63 357.24l-54.06-16.62a17.28 17.28 0 00-9.52-16.43l-33.44-16.71v-23.84a111.88 111.88 0 0047.02-76.25h4.46c14.62 0 27.16-10.86 28.54-24.73a27.53 27.53 0 00-15.9-27.82V71.63a55.66 55.66 0 00-55.58-55.6h-1.27C313.38 6.07 293.54 0 271.53 0c-46.85 0-68.37 9.76-93.29 21.06-13.31 6.04-27.08 12.28-46.59 17.99a7.5 7.5 0 00-4.81 10.09c.22.54 3.58 8.32 12.22 17.77-3.73 4.6-10.8 16.35-10.8 39.46v48.8c-8.63 4.12-14.93 12.27-15.89 21.86a27.66 27.66 0 006.97 21.29 27.6 27.6 0 0020.43 9.07h5.6c4.4 31.52 22 58.87 47.02 76.26v23.83l-33.43 16.71a17.28 17.28 0 00-9.53 16.43l-54.06 16.62a55.32 55.32 0 00-39.26 53.14v94.12a7.5 7.5 0 1015 0v-94.12a40.4 40.4 0 0128.67-38.8l56.23-17.3 9.93 13.24-11.28 11.28a23.5 23.5 0 00-4.4 27.16l21.46 42.94h-20.44v-8.53a7.5 7.5 0 10-15 0v8.53H103.7a7.5 7.5 0 00-7.5 7.5v48.1a7.5 7.5 0 007.5 7.5h80.16a7.5 7.5 0 007.5-7.5v-16.33l9.84 19.68a7.5 7.5 0 1013.41-6.7l-50.94-101.9a8.52 8.52 0 011.6-9.85l15.88-15.87a7.5 7.5 0 00.7-9.8l-17-22.66a2.29 2.29 0 01-.4-1.92c.1-.4.37-1.12 1.22-1.54l29.54-14.77 20.85 71.5a7.5 7.5 0 0014.4-4.2l-3.29-11.27a87.87 87.87 0 0057.66 0L256 477.71l-16.18-55.5a7.5 7.5 0 10-14.4 4.2l23.38 80.19a7.5 7.5 0 0014.4 0l53.6-183.76 29.54 14.77a2.29 2.29 0 011.22 1.54c.1.4.16 1.16-.4 1.92l-17 22.65a7.5 7.5 0 00.7 9.8l15.88 15.89a8.52 8.52 0 011.6 9.84l-50.95 101.9a7.5 7.5 0 0013.42 6.7l50.94-101.88a23.5 23.5 0 00-4.4-27.17l-11.28-11.28 9.92-13.23 56.23 17.29a40.39 40.39 0 0128.67 38.8v94.12a7.5 7.5 0 1015 0v-94.12a55.32 55.32 0 00-39.26-53.14zM176.36 497h-65.17v-33.1h25.08v.52a7.5 7.5 0 1015 0v-.52h25.09V497zm8.07-462.28C208.74 23.7 227.94 15 271.53 15c27.67 0 52.4 11.58 57.52 26.94a7.5 7.5 0 0014.23-4.75c-.43-1.3-.95-2.56-1.53-3.8a40.66 40.66 0 0127 38.24v80.68h-8.54a8.54 8.54 0 01-8.53-8.54v-8.01c0-34.77-25.17-60.35-26.25-61.42a7.51 7.51 0 00-7.56-1.85c-41.63 13.15-100.33 24.23-143.55 2.36-15.38-7.78-24.46-17.67-29.24-24.27 15.92-5.23 28.26-10.83 39.35-15.86zm120.19 276.32l-14.33 49.11a72.68 72.68 0 01-68.58 0l-14.32-49.1v-18.62A111.04 111.04 0 00256 303.58c17.41 0 33.9-4.01 48.61-11.15v18.61zM256 288.58c-53.32 0-96.7-43.38-96.7-96.7a7.5 7.5 0 10-15 0v.5h-4.53a12.57 12.57 0 01-12.47-13.85c.63-6.3 6.6-11.22 13.62-11.22h10.87a23.56 23.56 0 0023.54-23.54v-28.3a7.5 7.5 0 10-15 0v28.3c0 4.7-3.83 8.54-8.54 8.54h-8.53v-45.94c0-17.46 4.7-26.13 6.86-29.21a103.1 103.1 0 0016.24 10.47c17 8.86 37.23 13.77 60.13 14.58 26.84.97 57.52-3.74 91.24-13.97 5.95 7.2 18.95 25.47 18.95 47.52v8.01a23.56 23.56 0 0023.53 23.54h12.03a12.57 12.57 0 0112.47 13.86c-.63 6.29-6.61 11.22-13.62 11.22h-3.38v-.44a7.5 7.5 0 00-15 0c-.04 53.28-43.42 96.63-96.7 96.63z"/><path d="M408.3 452.91h-12.53v-12.54a7.5 7.5 0 10-15 0v12.54h-12.54a7.5 7.5 0 100 15h12.54v12.54a7.5 7.5 0 1015 0v-12.54h12.54a7.5 7.5 0 100-15z"/>
	</symbol>

	<symbol viewBox="0 0 512 512" xmlns="http://www.w3.org/2000/svg" shape-rendering="geometricPrecision" fill-rule="evenodd" clip-rule="evenodd" id="test-tube">
		<path fill-rule="nonzero" d="M316.89 227.78a7.5 7.5 0 00-11.94 0l-27.56 36.18a56.11 56.11 0 00-11.37 33.83c0 25.19 20.14 45.68 44.9 45.68s44.9-20.49 44.9-45.68c0-12.19-4.04-24.2-11.37-33.83l-27.56-36.18zm-5.97 100.7c-16.49 0-29.9-13.77-29.9-30.7 0-8.91 2.95-17.7 8.3-24.73l21.6-28.35 21.6 28.35a41.03 41.03 0 018.3 24.74c0 16.92-13.41 30.69-29.9 30.69zM199.93 61.4v18.7a12.83 12.83 0 00-5.29 10.39v111.15a7.5 7.5 0 1015 0V92.33a7.5 7.5 0 005.3-7.17V63.53h82.13v14.13h-65.11a7.5 7.5 0 100 15h70.4v108.98a7.5 7.5 0 1015 0V90.49c0-4.27-2.1-8.06-5.3-10.4V61.4a17.51 17.51 0 009.14-15.36V17.5c0-9.65-7.85-17.5-17.5-17.5h-95.4c-9.65 0-17.5 7.85-17.5 17.5v28.54c0 6.62 3.7 12.39 9.13 15.36zM292.35 15h11.35a2.5 2.5 0 012.5 2.5v28.54a2.5 2.5 0 01-2.5 2.5h-11.35V15zm-28.85 0h13.85v33.53H263.5V15zm-28.85 0h13.85v33.53h-13.85V15zm-28.85 2.5a2.5 2.5 0 012.5-2.5h11.35v33.53H208.3a2.5 2.5 0 01-2.5-2.5V17.5zM449.63 263.96l-27.57-36.18a7.5 7.5 0 00-11.93 0l-27.56 36.18a56.11 56.11 0 00-11.38 33.83c0 25.19 20.15 45.68 44.9 45.68 24.77 0 44.91-20.5 44.91-45.68 0-12.19-4.04-24.2-11.38-33.83zm-33.53 64.52c-16.49 0-29.9-13.77-29.9-30.7 0-8.91 2.95-17.7 8.3-24.73l21.6-28.35 21.6 28.35a41.03 41.03 0 018.3 24.74c0 16.92-13.41 30.69-29.9 30.69z"/><path d="M281 238.26a7.5 7.5 0 007.5-7.5V168.6c0-18.03-14.58-32.7-32.5-32.7s-32.5 14.68-32.5 32.7v62.17a7.5 7.5 0 1015 0V168.6c0-9.75 7.85-17.7 17.5-17.7s17.5 7.95 17.5 17.7v62.17a7.5 7.5 0 007.5 7.5zM101.87 227.78a7.5 7.5 0 00-11.93 0l-27.56 36.18A56.11 56.11 0 0051 297.79c0 25.19 20.14 45.68 44.9 45.68 24.76 0 44.9-20.49 44.9-45.68 0-12.19-4.04-24.2-11.37-33.83l-27.56-36.18zm-5.97 100.7c-16.49 0-29.9-13.77-29.9-30.7 0-8.91 2.95-17.7 8.3-24.73l21.6-28.35 21.6 28.35a41.03 41.03 0 018.3 24.74c0 16.92-13.4 30.69-29.9 30.69zM309.86 359.16a7.5 7.5 0 00-7.5 7.5v83.48c0 25.84-20.8 46.86-46.36 46.86s-46.35-21.02-46.35-46.86v-83.48a7.5 7.5 0 10-15 0v83.48c0 34.11 27.52 61.86 61.35 61.86s61.35-27.75 61.35-61.86v-83.48a7.5 7.5 0 00-7.5-7.5z"/><path d="M231 349.45a7.5 7.5 0 00-7.5 7.5v91.3c0 18.02 14.58 32.69 32.5 32.69s32.5-14.67 32.5-32.7v-91.29a7.5 7.5 0 10-15 0v91.3c0 9.75-7.85 17.69-17.5 17.69s-17.5-7.94-17.5-17.7v-91.29a7.5 7.5 0 00-7.5-7.5zM248.18 297.79c0-12.19-4.04-24.2-11.38-33.83l-27.56-36.18a7.5 7.5 0 00-11.93 0l-27.56 36.18a56.12 56.12 0 00-11.38 33.83c0 25.19 20.15 45.68 44.9 45.68 24.76 0 44.9-20.5 44.9-45.68zm-74.8 0c0-8.92 2.94-17.7 8.3-24.74l21.6-28.35 21.6 28.35a41.03 41.03 0 018.3 24.74c0 16.92-13.42 30.68-29.9 30.68-16.5 0-29.9-13.76-29.9-30.68z"/>
	</symbol>

	<symbol viewBox="0 0 512 512" xmlns="http://www.w3.org/2000/svg" shape-rendering="geometricPrecision" fill-rule="evenodd" clip-rule="evenodd" id="equipment">
		<path fill-rule="nonzero" d="M475.38 155.31a7.5 7.5 0 00-7.5 7.5V289.6c0 6.9-5.6 12.5-12.5 12.5H56.62c-6.9 0-12.5-5.6-12.5-12.5V162.8a7.5 7.5 0 10-15 0V289.6a27.53 27.53 0 0027.5 27.5h153.05v101.94h-17.74c-9.48 0-17.2 7.72-17.2 17.2v31.52h-30.36c-9.49 0-17.2 7.72-17.2 17.21v9.53c0 9.65 7.84 17.5 17.5 17.5h222.67c9.65 0 17.5-7.85 17.5-17.5v-9.53c0-9.49-7.72-17.2-17.2-17.2h-30.36v-31.52c0-9.5-7.72-17.21-17.21-17.21h-17.74v-53.22h8.3v2.25a7.5 7.5 0 1015 0v-19.5a7.5 7.5 0 10-15 0v2.25h-8.3V317.1h153.05a27.53 27.53 0 0027.5-27.5V162.8a7.5 7.5 0 00-7.5-7.5zM224.68 317.1h23.82v80.2a7.5 7.5 0 0015 0v-80.2h23.83v101.94h-62.66V317.1zm142.95 165.66c1.22 0 2.2 1 2.2 2.21v9.53a2.5 2.5 0 01-2.5 2.5H144.67a2.5 2.5 0 01-2.5-2.5v-9.53c0-1.22 1-2.2 2.2-2.2H367.64zm-47.56-48.72c1.21 0 2.2.99 2.2 2.2v31.52H189.72v-31.51c0-1.22 1-2.21 2.21-2.21h128.14z"/><path d="M390.28 243.63a22.08 22.08 0 00-22.06 22.06v.11c0 12.17 9.9 22.06 22.06 22.06 12.17 0 22.06-9.9 22.06-22.06v-.11c0-12.17-9.9-22.06-22.06-22.06zm7.06 22.17a7.07 7.07 0 01-14.12 0v-.11a7.07 7.07 0 0114.12 0v.11zM446.26 155.31a7.5 7.5 0 00-7.5 7.5v49.08a2.5 2.5 0 01-2.5 2.5H75.74a2.5 2.5 0 01-2.5-2.5v-49.08a7.5 7.5 0 10-15 0v49.08c0 9.65 7.85 17.5 17.5 17.5h360.52c9.65 0 17.5-7.85 17.5-17.5v-49.08a7.5 7.5 0 00-7.5-7.5zM99.66 243.63h-19.3c-12.2 0-22.12 9.92-22.12 22.11s9.92 22.12 22.12 22.12h19.3c12.2 0 22.12-9.92 22.12-22.11s-9.92-22.12-22.12-22.12zm0 29.23h-19.3a7.13 7.13 0 010-14.23h19.3a7.13 7.13 0 010 14.23z"/><path d="M504.5 127.66h-21.62V27.5A27.53 27.53 0 00455.38 0H56.62a27.53 27.53 0 00-27.5 27.5v100.16H7.5a7.5 7.5 0 100 15h106.47a7.5 7.5 0 006.93-4.65l8.25-20.09 13.81 47.6a7.5 7.5 0 0013.47 2.02l16.34-24.88h29.07c11.41 18.08 26.17 34.15 35.92 43.91 4.94 4.95 11.42 7.67 18.24 7.67s13.3-2.72 18.24-7.67c9.74-9.76 24.5-25.83 35.92-43.91h29.06l16.35 24.88a7.5 7.5 0 0013.47-2.03l13.81-47.59 8.24 20.09a7.5 7.5 0 006.94 4.65H504.5a7.5 7.5 0 100-15zm-240.87 48.31c-2.11 2.11-4.82 3.27-7.63 3.27s-5.52-1.16-7.63-3.27c-31.75-31.78-59.68-73.64-43.23-96.1a20.09 20.09 0 0114.57-6.4c5.56 0 10.83 2.37 14.82 6.67l3.74 4.03A24.26 24.26 0 00256 91.91c6.7 0 13.16-2.82 17.73-7.74l3.74-4.03c4-4.3 9.26-6.67 14.82-6.67a20.1 20.1 0 0114.57 6.4c16.45 22.46-11.49 64.32-43.23 96.1zm175.13-48.3h-35.7l-14.49-35.31a7.5 7.5 0 00-14.14.75l-15.26 52.6-9.63-14.67a7.5 7.5 0 00-6.27-3.38H318.5c9.44-19.78 12.7-40.5.1-57.14-.15-.2-.32-.4-.49-.58-6.86-7.4-16.03-11.47-25.82-11.47-9.78 0-18.95 4.07-25.82 11.47l-3.74 4.03c-1.76 1.9-4.15 2.94-6.73 2.94s-4.97-1.04-6.73-2.94l-3.74-4.03c-6.87-7.4-16.04-11.47-25.82-11.47-9.79 0-18.96 4.07-25.82 11.47-.17.18-.34.38-.49.58-12.6 16.65-9.34 37.36.1 57.14h-24.77a7.5 7.5 0 00-6.27 3.38l-9.63 14.66-15.26-52.59a7.5 7.5 0 00-14.14-.75l-14.5 35.3H73.25V46.74a2.5 2.5 0 012.5-2.5h360.52a2.5 2.5 0 012.5 2.5v80.92zm29.12 0h-14.12V46.72c0-9.64-7.85-17.5-17.5-17.5H75.74c-9.65 0-17.5 7.86-17.5 17.5v80.93H44.12V27.5c0-6.9 5.6-12.5 12.5-12.5h398.76c6.9 0 12.5 5.6 12.5 12.5v100.16zM177.32 243.63h-19.3c-12.2 0-22.12 9.92-22.12 22.11s9.92 22.12 22.12 22.12h19.3c12.2 0 22.11-9.92 22.11-22.11s-9.92-22.12-22.11-22.12zm0 29.23h-19.3a7.13 7.13 0 010-14.23h19.3a7.13 7.13 0 010 14.23zM254.97 243.63h-19.3c-12.2 0-22.12 9.92-22.12 22.11s9.93 22.12 22.12 22.12h19.3c12.2 0 22.12-9.92 22.12-22.11s-9.92-22.12-22.12-22.12zm0 29.23h-19.3a7.13 7.13 0 010-14.23h19.3a7.13 7.13 0 010 14.23zM444.84 270.43H434.6a7.5 7.5 0 100 15h10.23a7.5 7.5 0 100-15zM444.32 246.06h-10.23a7.5 7.5 0 100 15h10.23a7.5 7.5 0 100-15z"/>
	</symbol>

	<symbol viewBox="0 0 56.97 56.97" xmlns="http://www.w3.org/2000/svg" shape-rendering="geometricPrecision" fill-rule="evenodd" clip-rule="evenodd" id="search">
		<path fill-rule="nonzero" d="M55.15 51.89l-13.56-14.1A22.93 22.93 0 0046.99 23c0-12.68-10.32-23-23-23s-23 10.32-23 23 10.31 23 23 23c4.76 0 9.3-1.44 13.17-4.16l13.66 14.2a2.98 2.98 0 004.24.09 3 3 0 00.09-4.24zM23.98 6c9.38 0 17 7.63 17 17s-7.62 17-17 17-17-7.63-17-17 7.63-17 17-17z"/>
	</symbol>

	


</svg>