<svg width="0" height="0" class="hidden">
	<symbol viewBox="0 0 512 512" xmlns="http://www.w3.org/2000/svg" id="stomach"><path d="M300.666 123.526c-23.846 16.544-40.672 42.927-45.084 71.751-1.649 10.801-1.6 21.627-1.552 32.098.03 6.517.061 13.255-.338 19.734a7.5 7.5 0 1 0 14.97.92c.429-6.973.397-13.963.366-20.724-.047-10.348-.092-20.123 1.38-29.762 4.435-28.979 23.476-55.089 49.69-68.141 5.836-2.906 5.427-11.404-.677-13.725-23.154-8.802-42.545-26.696-53.2-49.092C258.699 50.78 255.61 32.684 257.33 15h40.768c-.128 16.518 3.947 40.501 24.783 58.454 13.941 12.005 37.06 16.403 62.054 24.879a7.498 7.498 0 0 0 9.51-4.694 7.5 7.5 0 0 0-4.693-9.511c-23.828-8.082-46.107-12.587-57.084-22.04-19.526-16.824-20.426-40.987-19.224-53.893A7.498 7.498 0 0 0 305.978 0h-55.23a7.5 7.5 0 0 0-7.401 6.29c-3.699 22.62-.386 46.323 9.33 66.743 10.177 21.389 27.256 39.219 47.989 50.493zM89.5 473.593a92.597 92.597 0 0 1-.788-8.66c-.184-4.139-3.701-7.341-7.824-7.161a7.5 7.5 0 0 0-7.16 7.825c.151 3.4.459 6.788.918 10.071A192.007 192.007 0 0 0 78.853 497H41.321c-7.459-31.177-6.235-60.43 3.709-89.243 8.056-23.345 24.728-45.333 46.946-61.912 22.617-16.877 49.079-26.597 74.511-27.368 27.313-.828 59.738 1.374 81.625-18.835 5.157-4.759 9.424-10.699 12.682-17.655a7.5 7.5 0 1 0-13.581-6.365c-2.43 5.188-5.55 9.56-9.273 12.997-17.549 16.204-46.976 14.11-71.906 14.864-58.123 1.762-116.238 44.486-135.182 99.38-11.543 33.447-12.392 67.333-2.598 103.593A7.5 7.5 0 0 0 35.493 512h53.322c5.07 0 8.692-4.944 7.142-9.786-2.895-9.052-5.068-18.682-6.457-28.621z"></path><path d="M486.391 187.155c-9.596-42.154-31.203-71.648-66.057-90.167a7.5 7.5 0 0 0-7.036 13.247c31.201 16.578 49.78 42.078 58.47 80.251 11.716 51.432-6.455 113.576-28.297 149.552-17.094 28.16-39.685 50.106-67.143 65.229-24.76 13.636-52.319 20.843-79.699 20.843-73.919 0-76.099-58.974-129.583-62.711-52.336-3.679-80.683 32.831-89.762 68.212a7.5 7.5 0 0 0 5.4 9.129 7.497 7.497 0 0 0 9.128-5.4c14.543-56.674 60.464-57.938 74.187-56.977 44.59 3.115 50.917 62.748 130.63 62.748 29.903 0 59.964-7.851 86.934-22.704 29.366-16.173 54.516-40.581 72.728-70.583 24.141-39.765 42.811-104.867 30.1-160.669z"></path></symbol>

	<symbol xmlns="http://www.w3.org/2000/svg" viewBox="0 0 512 512" id="vaccine"><path d="M157.352 318.125v11.914h-11.689a7.5 7.5 0 0 0-7.5 7.5 7.5 7.5 0 0 0 7.5 7.5h11.689v11.914c0 4.142 3.357 7.5 7.5 7.5s7.5-3.358 7.5-7.5v-11.914h11.689a7.5 7.5 0 0 0 7.5-7.5 7.5 7.5 0 0 0-7.5-7.5h-11.689v-11.914c0-4.142-3.357-7.5-7.5-7.5s-7.5 3.358-7.5 7.5zm26.689 138.105h-38.379a7.5 7.5 0 0 0-7.5 7.5 7.5 7.5 0 0 0 7.5 7.5h38.379a7.5 7.5 0 0 0 7.5-7.5 7.5 7.5 0 0 0-7.5-7.5z"></path><path d="M164.852 242.675a7.5 7.5 0 0 0-5.946 2.929l-38.886 50.582c-9.955 12.95-15.438 29.114-15.438 45.513 0 33.574 27.037 60.889 60.271 60.889s60.271-27.314 60.271-60.889c0-16.399-5.483-32.563-15.438-45.513l-38.888-50.582a7.5 7.5 0 0 0-5.946-2.929zm45.269 99.024c.001 25.303-20.308 45.889-45.269 45.889-24.962 0-45.271-20.585-45.271-45.889 0-13.111 4.379-26.028 12.331-36.371l32.939-42.847 32.939 42.847c7.952 10.343 12.331 23.26 12.331 36.371zm180.203-97.082h-9.595a7.5 7.5 0 0 0-7.5 7.5 7.5 7.5 0 0 0 7.5 7.5h9.595a7.5 7.5 0 0 0 7.5-7.5 7.5 7.5 0 0 0-7.5-7.5zm0-58.242h-9.595a7.5 7.5 0 0 0-7.5 7.5 7.5 7.5 0 0 0 7.5 7.5h9.595a7.5 7.5 0 0 0 7.5-7.5 7.5 7.5 0 0 0-7.5-7.5z"></path><path d="M227.585 62.61c6.923-2.334 11.929-8.875 11.929-16.575V17.5c0-9.649-7.851-17.5-17.5-17.5H107.689c-9.649 0-17.5 7.851-17.5 17.5v28.535c0 7.7 5.005 14.241 11.928 16.575L74.773 97.192A17.572 17.572 0 0 0 71 108.046v377.04C71 499.926 82.973 512 97.689 512h134.324c14.717 0 26.689-12.074 26.689-26.914v-377.04c0-3.922-1.34-7.777-3.773-10.854L227.585 62.61zM105.189 17.5c0-1.378 1.121-2.5 2.5-2.5h114.324c1.379 0 2.5 1.122 2.5 2.5v28.535c0 1.378-1.121 2.5-2.5 2.5H107.689a2.503 2.503 0 0 1-2.5-2.5V17.5zm138.515 467.587c-.001 6.568-5.245 11.913-11.69 11.913H97.689C91.244 497 86 491.655 86 485.086v-324.48h26.476c4.758 0 9.521 1.138 13.777 3.292l60.551 30.63a45.746 45.746 0 0 0 20.549 4.907h36.351v285.652zm0-300.654h-36.351a30.658 30.658 0 0 1-13.777-3.292l-60.551-30.63a45.74 45.74 0 0 0-20.549-4.907H86V112.07h87.486a7.5 7.5 0 0 0 7.5-7.5 7.5 7.5 0 0 0-7.5-7.5H93.992l26.517-33.535h88.685l26.518 33.535h-33.441a7.5 7.5 0 0 0-7.5 7.5 7.5 7.5 0 0 0 7.5 7.5h41.433v72.363zM433.5 79.598h-26.081V15h16.486c4.143 0 7.5-3.358 7.5-7.5s-3.357-7.5-7.5-7.5h-76.757c-4.143 0-7.5 3.358-7.5 7.5s3.357 7.5 7.5 7.5h16.486v64.598h-26.081a7.496 7.496 0 1 0-2.702 14.49V300.36c0 9.649 7.851 17.5 17.5 17.5h1.689v21.328c0 7.069 4.221 13.158 10.268 15.917l3.855 31.198c.625 5.066 4.817 8.92 9.863 9.188V504.5c0 4.142 3.357 7.5 7.5 7.5s7.5-3.358 7.5-7.5V395.49c5.042-.268 9.235-4.12 9.863-9.187l3.854-31.198c6.047-2.759 10.269-8.848 10.269-15.917V317.86h1.689c9.649 0 17.5-7.851 17.5-17.5V94.087A7.493 7.493 0 0 0 441 87.098a7.5 7.5 0 0 0-7.5-7.5zM378.635 15h13.784v64.598h-13.784V15zm0 79.598h13.784v60.156c0 1.378-1.121 2.5-2.5 2.5h-8.784a2.503 2.503 0 0 1-2.5-2.5V94.598zm9.856 285.918h-5.929l-2.944-23.828h11.817l-2.944 23.828zm32.712-80.156a2.502 2.502 0 0 1-2.5 2.499h-14.946a7.5 7.5 0 0 0-7.5 7.5c0 3.541 2.457 6.501 5.757 7.288v21.54c0 1.378-1.121 2.5-2.5 2.5h-27.973a2.503 2.503 0 0 1-2.5-2.5v-21.328h5.932a7.5 7.5 0 0 0 7.5-7.5 7.5 7.5 0 0 0-7.5-7.5h-22.621a2.503 2.503 0 0 1-2.5-2.5V94.598h13.783v60.156c0 9.649 7.851 17.5 17.5 17.5h8.784c9.649 0 17.5-7.851 17.5-17.5V94.598h13.784V300.36z"></path><path d="M390.324 273.738h-9.595a7.5 7.5 0 0 0-7.5 7.5 7.5 7.5 0 0 0 7.5 7.5h9.595a7.5 7.5 0 0 0 7.5-7.5 7.5 7.5 0 0 0-7.5-7.5zm0-58.242h-9.595a7.5 7.5 0 0 0-7.5 7.5 7.5 7.5 0 0 0 7.5 7.5h9.595a7.5 7.5 0 0 0 7.5-7.5 7.5 7.5 0 0 0-7.5-7.5z"></path></symbol>

	<symbol viewBox="0 0 300 300" xmlns="http://www.w3.org/2000/svg" id="x-ray"><path d="M165.005 51.204a4.277 4.277 0 1 0 0-8.554 4.277 4.277 0 0 0 0 8.554zM236 54c2.211 0 4-1.791 4-4v-8c0-2.209-1.789-4-4-4s-4 1.791-4 4v8c0 2.209 1.789 4 4 4zm0 8c-2.211 0-4 1.791-4 4v8c0 2.209 1.789 4 4 4s4-1.791 4-4v-8c0-2.209-1.789-4-4-4zm-8-8h-8c-2.211 0-4 1.791-4 4s1.789 4 4 4h8c2.211 0 4-1.791 4-4s-1.789-4-4-4zm24 0h-8c-2.211 0-4 1.791-4 4s1.789 4 4 4h8c2.211 0 4-1.791 4-4s-1.789-4-4-4zm-36 32H48a4 4 0 0 0-4 4v168a4 4 0 0 0 4 4l168-.004c2.211 0 4-1.791 4-4V90c0-2.209-1.789-4-4-4zm-72.695 104.693C140.289 187.666 136.273 186 132 186s-8.287 1.666-11.305 4.691-4.674 7.047-4.662 11.32l.043 14.916a5.04 5.04 0 0 1-2.273 4.27c-.674.443-1.369.309-1.832.115-.662-.275-1.443-.943-1.648-1.982-.24-1.242-.51-2.871-.781-4.664a149.064 149.064 0 0 0-5.406-23.013c3.671-6.506 8.496-12.364 14.125-16.961 8.092-6.605 19.393-6.605 27.479 0 5.631 4.595 10.455 10.456 14.127 16.964a148.935 148.935 0 0 0-5.405 23.011c-.273 1.787-.539 3.414-.785 4.66-.203 1.045-.984 1.711-1.648 1.986-.465.195-1.156.334-1.828-.115a5.023 5.023 0 0 1-2.273-4.271l.039-14.914a15.862 15.862 0 0 0-4.662-11.32zm50.137-16.689h-18.884c2.858-9.13 2.898-12.784 2.563-14.775-2.023-12.018-11.895-21.605-23.996-23.316a17.21 17.21 0 0 0-1.516-.143c-3.984-.225-8.207.709-12.609 2.74h-.004c-4.703 2.172-9.289 2.168-13.992 0-4.412-2.033-8.65-2.965-12.605-2.74-.547.027-1.061.076-1.512.141-12.111 1.713-21.982 11.301-24.006 23.316-.336 1.993-.296 5.647 2.562 14.777H70.558c2.858-9.13 2.898-12.784 2.563-14.775-1.842-10.932-10.402-19.933-21.121-22.662V114h160v22.563c-10.756 2.719-19.263 11.628-21.121 22.664-.335 1.992-.295 5.647 2.563 14.777zm-42.641-5.508c-11.07-9.043-26.535-9.039-37.6 0-4.706 3.841-8.895 8.474-12.462 13.57-6.294-16.632-6.085-20.829-5.97-21.509 1.451-8.617 8.539-15.496 17.25-16.727a12.606 12.606 0 0 1 1.533-.092c2.475 0 5.135.67 8.102 2.037 6.861 3.164 13.83 3.164 20.689 0 3.266-1.502 6.172-2.131 8.844-2.018.285.016.555.037.809.074 8.695 1.229 15.785 8.107 17.234 16.727.114.678.322 4.875-5.97 21.508-3.567-5.096-7.756-9.729-12.459-13.57zM52 144.862c6.78 2.48 12.023 8.524 13.232 15.697.117.697.355 5.08-6.512 22.941a149.612 149.612 0 0 0-6.721 22.746v-61.384zm146.77 15.695c1.207-7.172 6.32-13.139 13.23-15.666v61.295a149.342 149.342 0 0 0-6.719-22.686c-6.867-17.861-6.629-22.244-6.511-22.943zM212 94v12H52V94zM52 253.996v-25.848c2.822-1.494 4.906-4.109 5.529-7.29.26-1.328.549-3.074.84-4.992a141.216 141.216 0 0 1 7.818-29.494c.597-1.553 1.13-2.987 1.635-4.367H92.18a270.316 270.316 0 0 0 1.635 4.367 141.236 141.236 0 0 1 7.816 29.494c.291 1.918.58 3.664.84 4.996.689 3.52 3.092 6.449 6.428 7.838 3.162 1.314 6.568 1.008 9.348-.85a13.08 13.08 0 0 0 5.828-10.945l-.043-14.914a7.928 7.928 0 0 1 2.328-5.648c3.016-3.02 8.266-3.02 11.281 0a7.911 7.911 0 0 1 2.324 5.648l-.039 14.912a13.08 13.08 0 0 0 5.828 10.947 9.67 9.67 0 0 0 5.406 1.654c1.312 0 2.648-.268 3.938-.805 3.336-1.387 5.742-4.316 6.43-7.83.262-1.332.551-3.08.84-5.004a141.354 141.354 0 0 1 7.82-29.494c.597-1.553 1.13-2.987 1.635-4.367h24.356a261.184 261.184 0 0 0 1.635 4.367 141.37 141.37 0 0 1 7.82 29.494c.289 1.924.578 3.672.84 4.994.63 3.232 2.715 5.903 5.527 7.375V254z"></path></symbol>

	<symbol viewBox="0 0 64 64" xmlns="http://www.w3.org/2000/svg" id="blood"><path d="M48.246 46.721c.179.652.367 1.302.566 1.949l1.912-.588a69.23 69.23 0 0 1-.551-1.891zm1.181 3.9l1.907-.602.602 1.908-1.907.602zm1.778 5.66l1.924-.545a26.43 26.43 0 0 0-.193-.647l-.407-1.291-1.908.602.407 1.29c.061.195.12.393.177.591zm-40.14-1.192a22.628 22.628 0 0 0-.462 1.685l1.947.453c.12-.516.261-1.028.422-1.536l.123-.39-1.908-.602zm.775-2.416l.632-2 1.907.601-.632 2zm3.214-3.574a63.366 63.366 0 0 0 2.913-17.066l-1.998-.064a61.44 61.44 0 0 1-2.821 16.526l-.064.203 1.906.606zM54 36h9v2h-9zm2 4h7v2h-7zM1 24h9v2H1zm0-4h9v2H1z"></path><path d="M52.01 20a57.383 57.383 0 0 1 2.938-17.684l-1.896-.633A59.302 59.302 0 0 0 50.01 20H48v2h2v7.989c0 .883.025 1.765.065 2.646L46.382 40H42v2h5.618l2.745-5.489a59.325 59.325 0 0 0 2.398 11.383l2.081 6.592A24.954 24.954 0 0 1 55.981 61H36v-8.5c2.289-.614 4-1.79 4-3.5h-2c0 .549-1.395 1.448-3.763 1.823L34.852 47H36c2.206 0 4-1.794 4-4 0-.859-.284-1.711-.8-2.4a8.997 8.997 0 0 0-3.2-2.655v-9.873c0-3.87 1.37-7.525 3.863-10.433.084.247.137.506.137.775v1l1.465 1.463A3.794 3.794 0 0 0 44.172 22 3.833 3.833 0 0 0 48 18.171c0-.885-.142-1.759-.422-2.6l-.12-.357a10.595 10.595 0 0 0-6.672-6.672l-.358-.12a8.204 8.204 0 0 0-2.6-.422A3.833 3.833 0 0 0 34 11.829c0 1.022.398 1.983 1.121 2.707L36.586 16h1c.316 0 .621.062.905.177A17.926 17.926 0 0 0 34 28.071v9.161c-.651-.15-1.322-.232-2-.232s-1.348.082-2 .232v-9.161c0-4.426-1.597-8.598-4.491-11.894.284-.115.59-.177.905-.177h1l1.465-1.465A3.802 3.802 0 0 0 30 11.829 3.833 3.833 0 0 0 26.172 8c-.886 0-1.76.142-2.6.422l-.358.12a10.598 10.598 0 0 0-6.672 6.671l-.121.36A8.219 8.219 0 0 0 16 18.171 3.833 3.833 0 0 0 19.828 22a3.8 3.8 0 0 0 2.707-1.122L24 19.415v-1c0-.269.053-.528.137-.776A15.94 15.94 0 0 1 28 28.071v9.873a9.013 9.013 0 0 0-3.201 2.656A4.034 4.034 0 0 0 24 43c0 2.206 1.794 4 4 4h1.146l.606 3.821C27.39 50.445 26 49.548 26 49h-2c0 1.71 1.711 2.886 4 3.5V61H8.02a24.987 24.987 0 0 1 1.138-6.513l2.082-6.593A59.396 59.396 0 0 0 14 29.989v-.52l5.641-4.701-1.281-1.536L14 26.865v-6.378c0-6.404-1.026-12.73-3.052-18.803l-1.896.632A57.364 57.364 0 0 1 12 20.487V28H1v2h11a57.37 57.37 0 0 1-2.667 17.292L7.25 53.885A26.957 26.957 0 0 0 6 62v1h24V52.879c.655.078 1.328.121 2 .121s1.345-.043 2-.121V63h24v-1c0-2.755-.421-5.486-1.251-8.116l-2.082-6.593a57.366 57.366 0 0 1-2.521-13.292H63v-2H52.038a58.492 58.492 0 0 1-.038-2.01V22h11v-2zm-14.596-6l-.879-.878A1.83 1.83 0 0 1 37.828 10a6.2 6.2 0 0 1 1.967.319l.358.12a8.588 8.588 0 0 1 5.408 5.408l.119.357c.213.636.32 1.297.32 1.967a1.83 1.83 0 0 1-3.121 1.293L42 18.585v-.171c0-1.18-.459-2.288-1.293-3.122S38.765 14 37.586 14zM22 18.414v.171l-.879.879A1.83 1.83 0 0 1 18 18.171c0-.67.107-1.332.318-1.965l.12-.36a8.59 8.59 0 0 1 5.408-5.407l.358-.12A6.211 6.211 0 0 1 26.172 10a1.83 1.83 0 0 1 1.293 3.122l-.879.878h-.172c-1.179 0-2.287.459-3.121 1.292S22 17.234 22 18.414zM26 43c0-.43.142-.856.399-1.2C27.715 40.047 29.808 39 32 39s4.285 1.047 5.6 2.8A2.002 2.002 0 0 1 36 45h-1.171c-.413-1.164-1.525-2-2.829-2s-2.416.836-2.829 2H28c-1.103 0-2-.897-2-2zm5.803 7.992l-.797-5.025A1 1 0 0 1 32 45c.539 0 .973.431.993.965l-.809 5.027c-.064.001-.12.008-.184.008-.069 0-.129-.008-.197-.008z"></path><path d="M54 24h9v2h-9z"></path></symbol>

	<symbol viewBox="0 0 64 64" xmlns="http://www.w3.org/2000/svg" id="bone-density"><path d="M63 1H17v5.264A6.956 6.956 0 0 0 13 5c-3.86 0-7 3.14-7 7a6.991 6.991 0 0 0 2.967 5.712C4.331 19.374 1 23.8 1 29v7c0 2.757 2.243 5 5 5v18c0 2.206 1.794 4 4 4 1.2 0 2.266-.542 3-1.382.734.84 1.8 1.382 3 1.382 2.206 0 4-1.794 4-4v-2h43zM8 12c0-2.757 2.243-5 5-5s5 2.243 5 5-2.243 5-5 5-5-2.243-5-5zm10 14v33c0 1.103-.897 2-2 2s-2-.897-2-2V34h-2v25c0 1.103-.897 2-2 2s-2-.897-2-2V26H6v13c-1.654 0-3-1.346-3-3v-7c0-5.514 4.486-10 10-10s10 4.486 10 10v7c0 1.654-1.346 3-3 3V26zm43 29H20V41c2.757 0 5-2.243 5-5v-7c0-5.2-3.331-9.626-7.967-11.288A6.991 6.991 0 0 0 20 12a6.944 6.944 0 0 0-1-3.587V3h42z"></path><path d="M49 46h1c.551 0 1 .449 1 1s-.449 1-1 1h-1v2h1c1.654 0 3-1.346 3-3s-1.346-3-3-3h-1c-1.29 0-2.568.426-3.599 1.199l1.2 1.601A4.019 4.019 0 0 1 49 46zm-15.601 1.201A4.025 4.025 0 0 1 31 48h-1c-.551 0-1-.449-1-1s.449-1 1-1h1v-2h-1c-1.654 0-3 1.346-3 3s1.346 3 3 3h1c1.29 0 2.568-.426 3.6-1.199a8.956 8.956 0 0 1 1.481-.9l-.869-1.802c-.642.31-1.252.681-1.813 1.102z"></path><path d="M26 13h11v2h-9c-1.654 0-3 1.346-3 3s1.346 3 3 3h9v2h-7c-1.654 0-3 1.346-3 3s1.346 3 3 3h7v2h-5c-1.654 0-3 1.346-3 3s1.346 3 3 3h5v5c-1.72-1.29-3.851-2-6-2h-1c-3.86 0-7 3.14-7 7s3.14 7 7 7h1c2.149 0 4.28-.71 6-2 1.719-1.29 4.281-1.291 6 0 1.72 1.29 3.851 2 6 2h1c3.86 0 7-3.14 7-7s-3.14-7-7-7h-1c-2.149 0-4.28.71-6 2v-5h5c1.654 0 3-1.346 3-3s-1.346-3-3-3h-5v-2h7c1.654 0 3-1.346 3-3s-1.346-3-3-3h-7v-2h9c1.654 0 3-1.346 3-3s-1.346-3-3-3h-9v-2h11c1.654 0 3-1.346 3-3s-1.346-3-3-3H43V5h-2v37.86c-.66.128-1.34.127-2 0V5h-2v2H26c-1.654 0-3 1.346-3 3s1.346 3 3 3zm22 20c.551 0 1 .449 1 1s-.449 1-1 1h-5v-2zm2-8c.551 0 1 .449 1 1s-.449 1-1 1h-7v-2zm2-8c.551 0 1 .449 1 1s-.449 1-1 1h-9v-2zm2-8c.551 0 1 .449 1 1s-.449 1-1 1H43V9zm-9.8 34.6A8.048 8.048 0 0 1 49 42h1c2.757 0 5 2.243 5 5s-2.243 5-5 5h-1a8.05 8.05 0 0 1-4.8-1.6c-1.203-.903-2.695-1.4-4.2-1.4s-2.997.497-4.2 1.4A8.05 8.05 0 0 1 31 52h-1c-2.757 0-5-2.243-5-5s2.243-5 5-5h1a8.05 8.05 0 0 1 4.8 1.6c2.407 1.806 5.993 1.806 8.4 0zM28 19c-.551 0-1-.449-1-1s.449-1 1-1h9v2zm2 8c-.551 0-1-.449-1-1s.449-1 1-1h7v2zm2 8c-.551 0-1-.449-1-1s.449-1 1-1h5v2zM26 9h11v2H26c-.551 0-1-.449-1-1s.449-1 1-1z"></path></symbol>

	<symbol viewBox="0 0 64 64" xmlns="http://www.w3.org/2000/svg" id="cervical-cancer"><path d="M63 12c0-6.065-4.935-11-11-11a11.02 11.02 0 0 0-8.925 4.579C40.241 3.292 36.277 2 32 2s-8.241 1.292-11.075 3.579A11.02 11.02 0 0 0 12 1C5.935 1 1 5.935 1 12c0 2.889 1.155 5.654 3.169 7.703A5.171 5.171 0 0 0 4 21c0 3.309 3.141 6 7 6s7-2.691 7-6-3.141-6-7-6c-.929 0-1.815.159-2.627.442a4.974 4.974 0 0 1-1.37-3.597C7.083 9.174 9.438 7 12.252 7a5.036 5.036 0 0 1 4.53 2.8l.891 1.782A22.158 22.158 0 0 1 20 21.439c0 2.574-.444 5.103-1.321 7.515C17.913 31.061 17 34.166 17 37c0 3.844 5.295 6.929 10 8.912V58c0 2.757 2.243 5 5 5s5-2.243 5-5V45.912c4.705-1.984 10-5.068 10-8.912 0-2.834-.913-5.939-1.679-8.046A21.924 21.924 0 0 1 44 21.439c0-3.404.805-6.812 2.327-9.857l.891-1.782a5.038 5.038 0 0 1 4.53-2.8c2.814 0 5.169 2.174 5.249 4.846a4.974 4.974 0 0 1-1.37 3.597A7.952 7.952 0 0 0 53 15c-3.859 0-7 2.691-7 6s3.141 6 7 6 7-2.691 7-6c0-.446-.061-.879-.169-1.297A11.007 11.007 0 0 0 63 12zm-47 9c0 2.206-2.243 4-5 4s-5-1.794-5-4 2.243-4 5-4 5 1.794 5 4zm11 10v12.732c-4.632-2.059-7.508-4.317-7.938-6.238l1.728-1.152A16.064 16.064 0 0 0 26.782 29H29v2zm.505-12.101l-1.364-4.573A3.367 3.367 0 0 1 29.363 10h5.273a3.367 3.367 0 0 1 3.224 4.324l-1.378 4.619A16.259 16.259 0 0 0 36 22.87c0 .044.004.086.005.13H35v-4h-6v4h-1.005c0-.044.005-.086.005-.13 0-1.322-.162-2.642-.495-3.971zM39 27h-4v-2h4zm-8 4V21h2v10zm-2-6v2h-4v-2zm6 33c0 1.654-1.346 3-3 3s-3-1.346-3-3V33h6zm2-14.268V31h-2v-2h2.218c1.225 3 3.278 5.532 5.992 7.342l1.728 1.152c-.43 1.921-3.306 4.178-7.938 6.238zM51.748 5a7.026 7.026 0 0 0-6.319 3.905l-.891 1.782A24.178 24.178 0 0 0 42 21.439c0 2.808.485 5.566 1.442 8.198.531 1.462 1.138 3.432 1.411 5.396l-.534-.356A14.073 14.073 0 0 1 39.4 29H41v-6h-2.995c0-.043-.005-.086-.005-.13 0-1.159.143-2.317.411-3.398l1.366-4.577A5.37 5.37 0 0 0 34.637 8h-5.273a5.37 5.37 0 0 0-5.14 6.896l1.353 4.531A14.28 14.28 0 0 1 26 22.87c0 .044-.004.086-.005.13H23v6h1.6a14.074 14.074 0 0 1-4.919 5.678l-.534.356c.273-1.964.88-3.934 1.411-5.396A23.924 23.924 0 0 0 22 21.439c0-3.713-.878-7.431-2.538-10.752l-.891-1.782A7.026 7.026 0 0 0 12.252 5c-3.885 0-7.136 3.044-7.249 6.785a6.963 6.963 0 0 0 1.542 4.591 6.46 6.46 0 0 0-1.436 1.396A9.016 9.016 0 0 1 3 12c0-4.963 4.037-9 9-9a9.02 9.02 0 0 1 7.842 4.593l.638 1.132.932-.907C23.863 5.427 27.822 4 32 4s8.137 1.427 10.589 3.817l.932.907.638-1.132A9.019 9.019 0 0 1 52 3c4.963 0 9 4.037 9 9a9.016 9.016 0 0 1-2.109 5.772 6.46 6.46 0 0 0-1.436-1.396 6.963 6.963 0 0 0 1.542-4.591C58.884 8.044 55.633 5 51.748 5zM53 25c-2.757 0-5-1.794-5-4s2.243-4 5-4 5 1.794 5 4-2.243 4-5 4z"></path></symbol>

	<symbol viewBox="0 0 300 300" xmlns="http://www.w3.org/2000/svg" id="cleaning"><path d="M40 118.651a4.276 4.276 0 1 0 0 8.553 4.276 4.276 0 0 0 0-8.553zM58.995 54a4 4 0 0 0 4-4v-8a4 4 0 0 0-8 0v8a4 4 0 0 0 4 4zm4 20v-8a4 4 0 0 0-8 0v8a4 4 0 0 0 8 0zm-12-20h-8a4 4 0 0 0 0 8h8a4 4 0 0 0 0-8zm16 8h8a4 4 0 0 0 0-8h-8a4 4 0 0 0 0 8zm170 152c-7.719 0-14 6.281-14 14s6.281 14 14 14 14-6.281 14-14-6.282-14-14-14zm0 20c-3.309 0-6-2.691-6-6s2.691-6 6-6 6 2.691 6 6-2.692 6-6 6zM260 162.651a4.276 4.276 0 1 0 0 8.553 4.276 4.276 0 0 0 0-8.553zm-29.632-41.268a51.915 51.915 0 0 0-3.745-14.713c.125.003.247.025.372.025 9.205 0 16.695-7.49 16.695-16.695 0-3.779-1.297-7.4-3.639-10.328A13.938 13.938 0 0 0 241.252 74c0-7.861-6.396-14.258-14.258-14.258-3.824 0-7.357 1.52-9.951 4.076A19.777 19.777 0 0 0 202.995 58c-9.667 0-17.75 6.897-19.598 16.027-13.473-1.51-26.825 2.03-37.666 10.026a1.189 1.189 0 0 1-1.398.002c-11-8.113-24.578-11.654-38.246-9.984-24.369 2.982-43.879 22.879-46.391 47.311-1.344 13.055 2.076 26.062 9.629 36.631.454.635.89 1.283 1.333 1.926-2.254 2.758-3.663 6.231-3.663 10.062 0 4.074 1.588 7.984 4.354 10.928a13.59 13.59 0 0 0-.354 3.072c0 7.719 6.281 14 14 14 .194 0 .379-.057.572-.065.163 22.984 2.824 40.987 7.914 53.502C96.092 257.854 102.393 262 109.53 262c9.631 0 17.465-7.834 17.465-17.465V200c0-9.926 8.074-18 18-18s18 8.074 18 18v44.49c0 9.654 7.855 17.51 17.51 17.51 7.162 0 13.477-4.158 16.088-10.592 5.092-12.529 7.75-30.553 7.906-53.57.018-2.727.625-6.396 1.805-10.906 2.43-9.268 7.152-18.729 14.436-28.92 7.551-10.569 10.971-23.576 9.628-36.629zM202.995 66c4.537 0 8.635 2.562 10.691 6.688a4.012 4.012 0 0 0 3.889 2.203 3.996 3.996 0 0 0 3.502-2.775c.834-2.615 3.211-4.373 5.918-4.373a6.265 6.265 0 0 1 6.258 6.258c0 1.719-.734 3.021-1.35 3.812a3.998 3.998 0 0 0 .602 5.535c2.025 1.68 3.186 4.104 3.186 6.652 0 4.795-3.9 8.695-8.695 8.695-1.453 0-2.887-.396-4.26-1.178a4.003 4.003 0 0 0-5.803 2.301c-.814 2.656-3.201 4.439-5.938 4.439a6.265 6.265 0 0 1-6.258-6.258c0-.857.184-1.705.543-2.516a4.005 4.005 0 0 0-.213-3.658 3.99 3.99 0 0 0-3.1-1.949c-6.256-.539-10.973-5.645-10.973-11.877.001-6.616 5.383-11.999 12.001-11.999zm-124 118c0-.855.205-1.719.609-2.564a4 4 0 0 0-1.268-4.967c-2.123-1.535-3.342-3.893-3.342-6.469 0-4.412 3.588-8 8-8s8 3.588 8 8c0 1-.199 2.004-.592 2.98a4.002 4.002 0 0 0 .762 4.195 3.994 3.994 0 0 0 4.113 1.123c.672-.203 1.217-.299 1.717-.299 3.309 0 6 2.691 6 6s-2.691 6-6 6c-1.613 0-2.842-.672-3.59-1.236a3.99 3.99 0 0 0-4.82 0c-.748.564-1.977 1.236-3.59 1.236A6.004 6.004 0 0 1 78.995 184zm135.236-30.641c-7.859 10.998-12.984 21.316-15.666 31.545-1.35 5.156-2.045 9.49-2.066 12.881-.146 21.688-2.676 39.189-7.318 50.613-1.359 3.35-4.846 5.602-8.676 5.602-5.244 0-9.51-4.266-9.51-9.51V200c0-14.336-11.664-26-26-26s-26 11.664-26 26v44.535c0 5.219-4.246 9.465-9.465 9.465-3.809 0-7.281-2.242-8.639-5.578-4.646-11.424-7.18-28.934-7.326-50.637 0-.082-.018-.18-.019-.263 1.122.292 2.271.478 3.449.478 7.719 0 14-6.281 14-14 0-7.041-5.225-12.885-12-13.857V170c0-8.822-7.178-16-16-16-2.092 0-4.08.43-5.913 1.163-.416-.601-.824-1.209-1.249-1.804-6.418-8.98-9.322-20.047-8.18-31.16 2.135-20.754 18.707-37.654 39.406-40.188 11.623-1.428 23.178 1.588 32.527 8.482 3.207 2.363 7.684 2.361 10.891-.002 9.348-6.893 20.877-9.9 32.525-8.48.153.019.303.047.455.067 1.447 7.009 6.501 12.678 13.318 14.866-.025.35-.039.701-.039 1.055 0 7.861 6.396 14.258 14.258 14.258 3.034 0 5.82-1.032 8.158-2.695a43.993 43.993 0 0 1 3.258 12.638c1.143 11.112-1.761 22.179-8.179 31.159z"></path><path d="M168.995 119.387a4.612 4.612 0 1 0 0 9.225 4.612 4.612 0 0 0 0-9.225zm-56 0a4.612 4.612 0 1 0 0 9.225 4.612 4.612 0 0 0 0-9.225zm48.376 26.429c-2.123-.619-4.344.566-4.982 2.682a6.003 6.003 0 0 1-7.471 4.021c-2.123-.619-4.346.566-4.982 2.682a4.001 4.001 0 0 0 2.682 4.982c1.338.4 2.688.592 4.018.592 6.021 0 11.6-3.92 13.418-9.977a4.004 4.004 0 0 0-2.683-4.982z"></path></symbol>

	<symbol viewBox="-137 -33 1065 1065.003" xmlns="http://www.w3.org/2000/svg" id="clipboard"><path d="M723.36 44.813H650.5c-8.074 0-14.625 6.55-14.625 14.624 0 8.079 6.55 14.626 14.625 14.626h9.04v807.593h-546V74.063h60.87v33.222c0 25.469 20.715 46.184 46.184 46.184h69.144c6.914 38.164 40.39 67.191 80.504 67.191h32.586c40.11 0 73.586-29.027 80.5-67.191h69.145c25.472 0 46.195-20.719 46.195-46.184V44.168c0-25.469-20.723-46.188-46.191-46.188H220.594c-25.469 0-46.184 20.72-46.184 46.188v.645H49.71c-32.163 0-58.327 26.171-58.327 58.324v587.117c0 8.082 6.547 14.625 14.625 14.625 8.07 0 14.625-6.543 14.625-14.625V103.137c0-16.028 13.054-29.075 29.078-29.075h34.57V896.27c0 8.082 6.555 14.625 14.625 14.625h575.258c8.082 0 14.625-6.543 14.625-14.625V74.063h34.57c16.036 0 29.075 13.046 29.075 29.074v834.949c0 16.039-13.04 29.086-29.075 29.086H49.711c-16.024 0-29.078-13.047-29.078-29.086V759.19c0-8.07-6.555-14.625-14.625-14.625-8.078 0-14.625 6.555-14.625 14.625v178.895c0 32.168 26.164 58.336 58.328 58.336h673.648c32.164 0 58.325-26.168 58.325-58.336v-834.95c0-32.152-26.16-58.324-58.325-58.324zm-519.7-.645c0-9.34 7.594-16.934 16.934-16.934h331.883c9.34 0 16.933 7.594 16.933 16.934v63.117c0 9.34-7.594 16.934-16.933 16.934h-82.454c-8.082 0-14.625 6.55-14.625 14.625 0 28.988-23.585 52.566-52.57 52.566h-32.586c-28.984 0-52.566-23.578-52.566-52.566 0-8.074-6.547-14.625-14.625-14.625h-82.457c-9.34 0-16.934-7.594-16.934-16.934zm0 0"></path><path d="M572.836 398.168h-77.332l-49.43-134.969c-4.906-13.418-24.367-12.508-27.902 1.43l-53.09 209.035-51.254-149.105c-4.098-11.918-20.41-13.399-26.586-2.399l-42.64 76.016h-44.368c-8.086 0-14.625 6.543-14.625 14.625 0 8.074 6.54 14.625 14.625 14.625h52.934c5.293 0 10.168-2.86 12.762-7.473l30.847-55.012 56.578 164.586c4.711 13.707 24.446 12.899 28.008-1.152l53.52-210.695 36.668 100.144a14.616 14.616 0 0 0 13.734 9.594h87.547c8.082 0 14.625-6.543 14.625-14.625 0-8.074-6.543-14.625-14.621-14.625zm0 241.187H200.234c-8.078 0-14.625 6.543-14.625 14.625 0 8.079 6.547 14.625 14.625 14.625h372.602c8.078 0 14.625-6.546 14.625-14.625 0-8.082-6.547-14.625-14.625-14.625zm0 128.852H200.234c-8.078 0-14.625 6.55-14.625 14.625 0 8.078 6.547 14.625 14.625 14.625h372.602c8.078 0 14.625-6.547 14.625-14.625 0-8.074-6.547-14.625-14.625-14.625zm0 0"></path></symbol>

	<symbol viewBox="0 0 300 300" xmlns="http://www.w3.org/2000/svg" id="dental-crown"><path d="M58.364 45.204a4.277 4.277 0 1 0 0-8.554 4.277 4.277 0 0 0 0 8.554zM229.789 160h-60.43v-44h42.594a4.004 4.004 0 0 0 3.033-1.391c7.775-9.041 11.375-20.566 10.135-32.455-2.062-19.756-18.066-35.844-38.055-38.25-3.434-.412-7.844-.014-13.08 1.199-9.875 2.289-20.344 2.205-30.264-.244-5.221-1.291-10.627-1.611-16.07-.955-19.988 2.406-35.992 18.494-38.055 38.25-1.24 11.889 2.359 23.414 10.135 32.455a4.004 4.004 0 0 0 3.033 1.391h38.594v44h-52.43c-19.613 0-35.57 15.9-35.57 35.445V260a4 4 0 0 0 4 4h204a4 4 0 0 0 4-4v-64.555c0-19.545-15.957-35.445-35.57-35.445zm-55.451 26.145c-3.514-5.914-9.859-9.443-16.979-9.443s-13.465 3.529-16.979 9.443a21.612 21.612 0 0 0-3.02 11.035v35.951a6.9 6.9 0 0 1-2.248 5.09 6.74 6.74 0 0 1-5.271 1.748c-2.553-.24-4.873-2.152-5.912-4.873-3.482-9.121-5.383-22.854-5.496-39.711-.035-5.029-1.793-12.307-5.225-21.627-.716-1.941-1.65-3.862-2.748-5.758h32.302c2.256 4.713 7.032 8 12.596 8s10.34-3.287 12.596-8h36.302c-1.098 1.896-2.031 3.816-2.748 5.758-3.432 9.32-5.189 16.598-5.225 21.627-.115 17.426-2.137 31.463-5.844 40.596-1.355 3.34-5.348 4.914-8.908 3.504-2.498-.99-4.176-3.713-4.176-6.771V197.18a21.597 21.597 0 0 0-3.017-11.035zM149.359 148h12v14c0 3.309-2.691 6-6 6s-6-2.691-6-6zm12-56h-12V82c0-3.309 2.691-6 6-6s6 2.691 6 6zm-12 8h12v8h-12zm12 16v8h-12v-8zm-12 16h12v8h-12zm-44.699-24c-5.537-7.127-8.053-15.939-7.105-25.014 1.678-16.078 14.738-29.174 31.055-31.141 4.479-.539 8.918-.277 13.195.779 11.139 2.748 22.895 2.844 33.988.271 4.264-.986 7.824-1.355 10.316-1.051 16.316 1.967 29.377 15.062 31.055 31.141.947 9.074-1.568 17.887-7.105 25.014H169.36V82c0-7.719-6.281-14-14-14s-14 6.281-14 14v26zm152.699 148h-196v-60.555c0-15.133 12.367-27.445 27.57-27.445h11.892c2.162 2.795 3.823 5.652 4.88 8.523 3.025 8.211 4.705 14.93 4.732 18.916.121 18.057 2.146 32.359 6.023 42.51 2.115 5.541 7.074 9.461 12.635 9.984a14.893 14.893 0 0 0 11.407-3.797 14.91 14.91 0 0 0 4.863-11.006v-35.95c0-2.457.656-4.859 1.898-6.949 2.057-3.463 5.832-5.529 10.1-5.529s8.043 2.066 10.1 5.529a13.601 13.601 0 0 1 1.898 6.949v35.533c0 6.309 3.707 12.018 9.227 14.209 7.629 3.023 16.268-.535 19.271-7.934 4.143-10.207 6.305-24.859 6.43-43.549.027-3.986 1.707-10.705 4.732-18.916 1.057-2.871 2.718-5.729 4.88-8.523h15.892c15.203 0 27.57 12.312 27.57 27.445zm-208-156a4 4 0 0 0 4-4v-8a4 4 0 0 0-8 0v8a4 4 0 0 0 4 4zm4 12a4 4 0 0 0-8 0v8a4 4 0 0 0 8 0zm-12-12h-8a4 4 0 0 0 0 8h8a4 4 0 0 0 0-8zm12 4a4 4 0 0 0 4 4h8a4 4 0 0 0 0-8h-8a4 4 0 0 0-4 4zm198-40c7.719 0 14-6.281 14-14s-6.281-14-14-14-14 6.281-14 14 6.281 14 14 14zm0-20c3.309 0 6 2.691 6 6s-2.691 6-6 6-6-2.691-6-6 2.691-6 6-6zm15.005 64.651a4.276 4.276 0 1 0 0 8.553 4.276 4.276 0 0 0 0-8.553z"></path><path d="M181.359 68c7.613 0 14.467 4.23 17.887 11.041a3.996 3.996 0 0 0 5.369 1.779 3.997 3.997 0 0 0 1.779-5.369C201.611 65.92 192.017 60 181.359 60a4 4 0 0 0 0 8z"></path></symbol>

	<symbol viewBox="0 0 300 300" xmlns="http://www.w3.org/2000/svg" id="dental-implant"><path d="M46.364 154.651a4.276 4.276 0 1 0 0 8.553 4.276 4.276 0 0 0 0-8.553zM57.359 50a4 4 0 0 0 4-4v-8a4 4 0 0 0-8 0v8a4 4 0 0 0 4 4zm0 8a4 4 0 0 0-4 4v8a4 4 0 0 0 8 0v-8a4 4 0 0 0-4-4zm-8-8h-8a4 4 0 0 0 0 8h8a4 4 0 0 0 0-8zm28 4a4 4 0 0 0-4-4h-8a4 4 0 0 0 0 8h8a4 4 0 0 0 4-4zm158 172c-7.719 0-14 6.281-14 14s6.281 14 14 14 14-6.281 14-14-6.281-14-14-14zm0 20c-3.309 0-6-2.691-6-6s2.691-6 6-6 6 2.691 6 6-2.691 6-6 6zm23.005-67.349a4.276 4.276 0 1 0 0 8.553 4.276 4.276 0 0 0 0-8.553zm-72.105-16.753a4.003 4.003 0 0 0 2.998-4.799 4.01 4.01 0 0 0-4.799-2.998l-7.1 1.638V150h4a4 4 0 0 0 4-4v-16h46.49a3.997 3.997 0 0 0 3.23-1.641c7.57-10.365 11-23.129 9.652-35.939-2.514-23.943-22.027-43.439-46.4-46.357-13.65-1.643-27.213 1.832-38.203 9.76a1.287 1.287 0 0 1-1.465 0c-10.988-7.928-24.541-11.398-38.203-9.76C96.091 48.98 76.576 68.477 74.06 92.42c-1.348 12.811 2.082 25.574 9.652 35.939a4.001 4.001 0 0 0 3.23 1.641h33.227a4 4 0 0 0 0-8H89.031c-5.598-8.447-8.084-18.578-7.014-28.744 2.129-20.264 18.697-36.771 39.396-39.252 11.639-1.381 23.209 1.555 32.57 8.307a9.235 9.235 0 0 0 10.824 0c9.357-6.75 20.922-9.699 32.57-8.307 20.701 2.48 37.27 18.988 39.396 39.252 1.07 10.166-1.416 20.297-7.014 28.744h-44.402v-16a4 4 0 0 0-4-4h-44a4 4 0 0 0-4 4v40a4 4 0 0 0 4 4h4v14.048l-8.9 2.054a4.002 4.002 0 1 0 1.801 7.797l7.1-1.638v11.788l-8.9 2.054a4.002 4.002 0 1 0 1.801 7.797l7.1-1.638v11.788l-8.9 2.054a4.002 4.002 0 1 0 1.801 7.797l7.1-1.638v11.788l-8.9 2.054a4.002 4.002 0 1 0 1.801 7.797l7.1-1.638v11.788l-8.9 2.054a4.002 4.002 0 1 0 1.801 7.797l7.626-1.76c1.881 7.929 8.978 13.861 17.473 13.861 9.926 0 18-8.074 18-18v-4.048l8.9-2.054a4.003 4.003 0 0 0 2.998-4.799 4.01 4.01 0 0 0-4.799-2.998l-7.1 1.638v-11.788l8.9-2.054a4.003 4.003 0 0 0 2.998-4.799 4.01 4.01 0 0 0-4.799-2.998l-7.1 1.638v-11.788l8.9-2.054a4.003 4.003 0 0 0 2.998-4.799 4.01 4.01 0 0 0-4.799-2.998l-7.1 1.638v-11.788l8.9-2.054a4.003 4.003 0 0 0 2.998-4.799 4.01 4.01 0 0 0-4.799-2.998l-7.1 1.638v-11.788zM141.359 110h36v32h-36zm8 40h20v7.586l-20 4.615zm20 98c0 5.514-4.486 10-10 10-4.703 0-8.632-3.275-9.694-7.657l19.694-4.545zm0-10.414l-20 4.615v-11.788l20-4.615zm0-20l-20 4.615v-11.788l20-4.615zm0-20l-20 4.615v-11.788l20-4.615zm0-20l-20 4.615v-11.788l20-4.615z"></path></symbol>

	<symbol viewBox="0 0 300 300" xmlns="http://www.w3.org/2000/svg" id="dentist-chair"><path d="M34.641 256.651a4.276 4.276 0 1 0 0 8.553 4.276 4.276 0 0 0 0-8.553zM61.635 200c2.211 0 4-1.791 4-4v-8c0-2.209-1.789-4-4-4s-4 1.791-4 4v8a4 4 0 0 0 4 4zm0 8c-2.211 0-4 1.791-4 4v8c0 2.209 1.789 4 4 4s4-1.791 4-4v-8c0-2.209-1.789-4-4-4zm-8-8h-8c-2.211 0-4 1.791-4 4s1.789 4 4 4h8c2.211 0 4-1.791 4-4s-1.789-4-4-4zm24 0h-8c-2.211 0-4 1.791-4 4s1.789 4 4 4h8c2.211 0 4-1.791 4-4s-1.789-4-4-4zm178-120c-7.719 0-14 6.281-14 14s6.281 14 14 14 14-6.281 14-14-6.281-14-14-14zm0 20c-3.309 0-6-2.691-6-6s2.691-6 6-6 6 2.691 6 6-2.691 6-6 6zm-36.994-54.796a4.277 4.277 0 1 0 0-8.554 4.277 4.277 0 0 0 0 8.554z"></path><path d="M252.229 206.514L207.62 180.02a57.25 57.25 0 0 0-21.984-7.548V140h38c5.516 0 10-4.486 10-10s-4.484-10-10-10h-38V56c0-13.234-10.766-24-24-24h-20c-8.621 0-16.515 4.626-20.794 12.08-10.653.427-19.206 9.164-19.206 19.92 0 2.209 1.789 4 4 4h32c2.211 0 4-1.791 4-4 0-8.235-5.008-15.315-12.134-18.378C132.508 42.108 136.9 40 141.636 40h20c8.824 0 16 7.178 16 16v64h-46c-5.516 0-10 4.486-10 10s4.484 10 10 10h34v32h-31.609c-8.23 0-16.25-2.342-23.188-6.771L61.855 133.95l-.219.344v-6.861c6.882-1.789 12-7.999 12-15.432V96c0-8.822-7.176-16-16-16s-16 7.178-16 16v16c0 7.433 5.118 13.643 12 15.432v21.697c0 5.617 2.973 10.934 7.762 13.875l39.977 24.541a57.176 57.176 0 0 0 29.93 8.455h10.332v14.162c-4.897 4.397-8 10.754-8 17.838v12h-44c-2.211 0-4 1.791-4 4v20c0 2.209 1.789 4 4 4h128c2.211 0 4-1.791 4-4v-20c0-2.209-1.789-4-4-4h-36v-12c0-7.084-3.103-13.441-8-17.838V196h3.152c7.32 0 14.57 1.883 20.969 5.447l43.457 24.211a11.04 11.04 0 0 0 5.379 1.412 11.04 11.04 0 0 0 5.594-1.537c3.41-2.004 5.449-5.564 5.449-9.523a11.1 11.1 0 0 0-5.408-9.496zM132.952 60h-22.633c1.652-4.656 6.102-8 11.316-8s9.665 3.344 11.317 8zm-3.317 70c0-1.104.898-2 2-2h92c1.102 0 2 .896 2 2s-.898 2-2 2h-92c-1.101 0-2-.896-2-2zm44 10h4v32h-4zm-124-28V96c0-4.412 3.59-8 8-8s8 3.588 8 8v16c0 4.412-3.59 8-8 8s-8-3.588-8-8zm132 136v12h-8v-12zm8 0h8v12h-8zm-24 12h-8v-12h8zm-16 0h-8v-12h8zm-24-12h8v12h-8zm-8 12h-8v-12h8zm-24-12h8v12h-8zm120 12h-8v-12h8zm-72-20v-12c0-8.822 7.176-16 16-16s16 7.178 16 16v12zm24-34.6c-2.507-.89-5.192-1.4-8-1.4s-5.493.51-8 1.4V196h16zm82.497 13.237c-.449.264-1.645.801-3.023.033l-43.461-24.211A51.195 51.195 0 0 0 176.789 188h-45.484a49.166 49.166 0 0 1-25.742-7.271l-39.977-24.541a8.333 8.333 0 0 1-3.949-7.059v-5.828l44.898 28.67A50.997 50.997 0 0 0 134.027 180h44.383a49.231 49.231 0 0 1 25.125 6.898l44.613 26.496a3.054 3.054 0 0 1 1.488 2.615c-.001 1.575-1.051 2.362-1.504 2.628z"></path><path d="M125.635 92V80c0-2.209-1.789-4-4-4s-4 1.791-4 4v12c0 2.209 1.789 4 4 4s4-1.791 4-4zm18.715 2.068a3.997 3.997 0 0 0 3.324-6.219l-6.711-10.068a3.997 3.997 0 0 0-5.547-1.109 3.997 3.997 0 0 0-1.109 5.547l6.711 10.068a3.995 3.995 0 0 0 3.332 1.781zm-45.429 0a3.995 3.995 0 0 0 3.332-1.781l6.711-10.068a3.998 3.998 0 0 0-1.109-5.547 3.996 3.996 0 0 0-5.547 1.109L95.596 87.85a3.998 3.998 0 0 0 3.325 6.218z"></path><circle cx="157.635" cy="224" r="4"></circle></symbol>

	<symbol viewBox="0 0 300 300" xmlns="http://www.w3.org/2000/svg" id="denture"><path d="M189.005 38.878a4.277 4.277 0 1 0 0-8.554 4.277 4.277 0 0 0 0 8.554zM248 61.675c2.211 0 4-1.791 4-4v-8c0-2.209-1.789-4-4-4s-4 1.791-4 4v8c0 2.209 1.789 4 4 4zm0 8c-2.211 0-4 1.791-4 4v8c0 2.209 1.789 4 4 4s4-1.791 4-4v-8c0-2.209-1.789-4-4-4zm-16 0h8c2.211 0 4-1.791 4-4s-1.789-4-4-4h-8c-2.211 0-4 1.791-4 4s1.789 4 4 4zm32-8h-8c-2.211 0-4 1.791-4 4s1.789 4 4 4h8c2.211 0 4-1.791 4-4s-1.789-4-4-4zm-218 180c-7.719 0-14 6.281-14 14s6.281 14 14 14 14-6.281 14-14-6.281-14-14-14zm0 20c-3.309 0-6-2.691-6-6s2.691-6 6-6 6 2.691 6 6-2.691 6-6 6zm71.005-11.35a4.276 4.276 0 1 0 0 8.553 4.276 4.276 0 0 0 0-8.553zm128.94-150.631C188.328 83.156 129.89 82.581 72.272 97.969L69.77 96.6l-6.262-11.451c-1.398-2.562-5.617-2.562-7.016 0L50.23 96.6l-11.453 6.262c-1.285.701-2.082 2.047-2.082 3.51s.797 2.809 2.082 3.51l11.453 6.262 5.788 10.584c0 .032-.018.058-.018.09v20.879c0 7.707 6.273 13.979 13.98 13.979H72v12h-2.02c-7.707 0-13.98 6.271-13.98 13.979v29.396c0 6.936 5.145 12.889 11.965 13.852 28.016 3.953 56.77 5.932 86.07 5.932 29.465 0 59.477-2 89.828-6 6.918-.91 12.137-6.879 12.137-13.883v-29.297c0-7.707-6.273-13.979-13.98-13.979H240v-12h2.02c7.707 0 13.98-6.271 13.98-13.979v-34.559c0-6.217-4.137-11.747-10.055-13.444zm-190.851 9.992l-6.062-3.314 6.062-3.314a4 4 0 0 0 1.59-1.59L60 95.405l3.316 6.062a4 4 0 0 0 1.59 1.59l6.062 3.314-6.062 3.314a4 4 0 0 0-1.59 1.59L60 117.339l-3.316-6.062a4.01 4.01 0 0 0-1.59-1.591zM88 193.675c-4.41 0-8-3.588-8-8v-16h16v16c0 4.412-3.59 8-8 8zm16-8v-8h16v16c0 4.412-3.59 8-8 8s-8-3.588-8-8zm24-8h24v16c0 6.617-5.383 12-12 12s-12-5.383-12-12zm32 0h24v16c0 6.617-5.383 12-12 12s-12-5.383-12-12zm32 0h16v16c0 4.412-3.59 8-8 8s-8-3.588-8-8zm24-8h16v16c0 4.412-3.59 8-8 8s-8-3.588-8-8zm16-8h-16v-16c0-4.412 3.59-8 8-8s8 3.588 8 8zm-24 8h-16v-20c0-4.412 3.59-8 8-8s8 3.588 8 8zm-24 0h-24v-20c0-6.617 5.383-12 12-12s12 5.383 12 12zm-32 0h-24v-20c0-6.617 5.383-12 12-12s12 5.383 12 12zm-32 0h-16v-20c0-4.412 3.59-8 8-8s8 3.588 8 8zm-24-8H80v-16c0-4.412 3.59-8 8-8s8 3.588 8 8zm146.02 20a5.986 5.986 0 0 1 5.98 5.979v29.297c0 3.004-2.227 5.562-5.184 5.953-59.809 7.881-118.262 7.908-173.734.076-2.898-.408-5.082-2.957-5.082-5.93v-29.396a5.987 5.987 0 0 1 5.98-5.979H72v4c0 8.822 7.176 16 16 16 3.316 0 6.399-1.016 8.957-2.75 2.185 6.237 8.067 10.75 15.043 10.75 4.475 0 8.514-1.856 11.42-4.826 3.598 5.321 9.688 8.826 16.58 8.826 6.565 0 12.351-3.223 16-8.124 3.649 4.901 9.435 8.124 16 8.124 6.893 0 12.982-3.505 16.58-8.826 2.906 2.97 6.945 4.826 11.42 4.826 6.976 0 12.858-4.513 15.043-10.75a15.913 15.913 0 0 0 8.957 2.75c8.824 0 16-7.178 16-16v-4zm5.98-33.979a5.987 5.987 0 0 1-5.98 5.979H240v-8c0-8.822-7.176-16-16-16-5.84 0-10.904 3.177-13.698 7.86-2.792-2.373-6.359-3.86-10.302-3.86-4.475 0-8.514 1.856-11.42 4.826-3.598-5.321-9.688-8.826-16.58-8.826-6.565 0-12.351 3.223-16 8.124-3.649-4.901-9.435-8.124-16-8.124-6.893 0-12.982 3.505-16.58 8.826-2.906-2.97-6.945-4.826-11.42-4.826-3.943 0-7.51 1.487-10.302 3.86-2.794-4.683-7.858-7.86-13.698-7.86-8.824 0-16 7.178-16 16v8h-2.02a5.986 5.986 0 0 1-5.98-5.979v-20.879c0-.032-.018-.058-.018-.09l5.788-10.584 11.453-6.262a3.996 3.996 0 0 0 2.082-3.51c0-1.001-.395-1.93-1.042-2.653 53.634-12.917 107.908-11.713 161.476 3.664 2.508.719 4.262 3.086 4.262 5.754v34.56z"></path><path d="M171.918 114.27c-6.395 0-12.406 2.49-16.922 7.01a4.002 4.002 0 0 0 0 5.658c.781.779 1.805 1.17 2.828 1.17s2.047-.391 2.828-1.172a15.819 15.819 0 0 1 11.266-4.666c3.93 0 7.707 1.443 10.633 4.062a3.996 3.996 0 0 0 5.648-.309 3.998 3.998 0 0 0-.312-5.648 23.902 23.902 0 0 0-15.969-6.105z"></path></symbol>

	<symbol xmlns="http://www.w3.org/2000/svg" viewBox="0 0 512 512" id="dna"><path d="M165.538 98.041a7.499 7.499 0 0 0-7.5 7.5v271.797c0 4.143 3.357 7.5 7.5 7.5s7.5-3.357 7.5-7.5V105.541c0-4.143-3.357-7.5-7.5-7.5z"></path><path d="M369.077 68.92h-5.692V54.263c7.573-1.924 13.192-8.801 13.192-16.964V17.5c0-9.649-7.851-17.5-17.5-17.5H152.923c-9.649 0-17.5 7.851-17.5 17.5v19.799c0 8.163 5.619 15.04 13.192 16.964V68.92h-5.692c-9.331 0-16.923 7.719-16.923 17.207v398.959C126 499.927 137.818 512 152.346 512h207.308C374.182 512 386 499.927 386 485.086V86.127c0-9.488-7.592-17.207-16.923-17.207zM348.308 15h10.77c1.379 0 2.5 1.121 2.5 2.5v19.799c0 1.379-1.121 2.5-2.5 2.5h-10.77V15zm-28.27 0h13.27v24.799h-13.27V15zm-28.268 0h13.269v24.799H291.77V15zm-28.27 0h13.27v24.799H263.5V15zm-28.27 0h13.27v24.799h-13.27V15zm-28.268 0h13.269v24.799h-13.269V15zm-28.27 0h13.27v24.799h-13.27V15zm-28.269 2.5c0-1.379 1.121-2.5 2.5-2.5h10.77v24.799h-10.77a2.502 2.502 0 0 1-2.5-2.5V17.5zm220.578 467.586c0 6.569-5.09 11.914-11.346 11.914H152.346C146.09 497 141 491.655 141 485.086V86.127c0-1.217.862-2.207 1.923-2.207h163.961c4.143 0 7.5-3.357 7.5-7.5s-3.357-7.5-7.5-7.5h-143.27V54.799h184.77V68.92h-13.231c-4.143 0-7.5 3.357-7.5 7.5s3.357 7.5 7.5 7.5h33.924c1.061 0 1.923.99 1.923 2.207h.001v398.959z"></path><path d="M283.13 108.493a7.5 7.5 0 0 0-3.496 10.014c1.851 3.835 2.789 7.964 2.789 12.272v6.09h-52.846v-6.09c0-4.307.938-8.436 2.789-12.272a7.5 7.5 0 0 0-13.51-6.518c-2.84 5.885-4.279 12.207-4.279 18.79v66.008c0 14.418 7.051 27.179 17.806 34.854-10.755 7.491-17.806 19.945-17.806 34.015v48.639c0 14.071 7.051 26.525 17.806 34.015-10.755 7.675-17.806 20.436-17.806 34.854v66.008c0 6.583 1.439 12.905 4.279 18.79a7.501 7.501 0 0 0 13.51-6.518c-1.851-3.835-2.789-7.964-2.789-12.272v-6.09h52.846v6.09c0 4.307-.938 8.436-2.789 12.272a7.5 7.5 0 0 0 13.51 6.518c2.84-5.885 4.279-12.207 4.279-18.79v-66.008c0-14.418-7.051-27.179-17.806-34.854 10.755-7.491 17.806-19.945 17.806-34.015v-48.639c0-14.071-7.051-26.525-17.806-34.015 10.755-7.675 17.806-20.436 17.806-34.854v-66.008c0-6.583-1.439-12.905-4.279-18.79-1.801-3.732-6.289-5.296-10.014-3.496zm-.707 276.345v14.121h-35.846c-4.143 0-7.5 3.357-7.5 7.5s3.357 7.5 7.5 7.5h35.846v14.121h-52.846v-43.242h52.846zM256 340.717c-10.131 0-18.948-5.731-23.381-14.121h46.762c-4.433 8.389-13.25 14.121-23.381 14.121zm23.094 29.121h-46.189c4.519-8.417 13.177-14.121 23.095-14.121s18.576 5.704 23.094 14.121zm3.329-101.484v14.121h-35.846c-4.143 0-7.5 3.357-7.5 7.5s3.357 7.5 7.5 7.5h35.846v14.121h-52.846v-43.242h52.846zM256 239.233c10.131 0 18.948 5.731 23.381 14.121h-46.762c4.433-8.39 13.25-14.121 23.381-14.121zm-23.094-29.122h46.189c-4.519 8.417-13.177 14.121-23.095 14.121s-18.576-5.704-23.094-14.121zm49.517-15h-52.846V180.99h39.615c4.143 0 7.5-3.357 7.5-7.5s-3.357-7.5-7.5-7.5h-39.615v-14.121h52.846v43.242zM165.538 398.959a7.499 7.499 0 0 0-7.5 7.5v67.949c0 4.143 3.357 7.5 7.5 7.5s7.5-3.357 7.5-7.5v-67.949c0-4.143-3.357-7.5-7.5-7.5z"></path></symbol>

	<symbol viewBox="0 0 64 64" xmlns="http://www.w3.org/2000/svg" id="ear"><path d="M41 35h5a2.996 2.996 0 0 0 2.816-2H63V1H15v20.525C11.51 22.765 9 26.09 9 30c0 3.241 1.728 6.079 4.306 7.664a16.895 16.895 0 0 0-7.327 4.315A16.893 16.893 0 0 0 1 54v9h34v-9c0-7.75-5.218-14.292-12.322-16.33a9.035 9.035 0 0 0 4.14-5.903L35 33.898v5.516L37.586 42l-1 1 18.671 18.671A4.506 4.506 0 0 0 58.464 63 4.541 4.541 0 0 0 63 58.464a4.504 4.504 0 0 0-1.329-3.207L54.414 48l3-3L49 36.586l-3 3-3-3-1 1-1-1zm-6-13v2.102l-2 .521V7h24v20h-8v-1a3.004 3.004 0 0 0-1.826-2.76l.704-.704A10.583 10.583 0 0 0 51 15c0-1.603-.625-3.11-1.758-4.243S46.603 9 45 9h-.001A6.006 6.006 0 0 0 39 15v1.414l.293.293A5.79 5.79 0 0 1 41 20.829v1.05c0 .396.082.772.217 1.121H41v-1c0-1.103-.897-2-2-2h-2c-1.103 0-2 .897-2 2zm8-.121v-1.05a7.77 7.77 0 0 0-2-5.227V15c0-2.205 1.794-4 3.999-4H45c1.068 0 2.073.416 2.828 1.171A3.975 3.975 0 0 1 49 15a8.6 8.6 0 0 1-2.536 6.122l-1.55 1.55A1.122 1.122 0 0 1 43 21.879zM47 32c0 .551-.449 1-1 1h-5v-8h5c.551 0 1 .449 1 1zM17 3h44v28H49v-2h10V5H31v20.144l-4.76 1.24A8.978 8.978 0 0 0 17 21.059zm2.865 36.129L18 42.113l-1.866-2.985A15.202 15.202 0 0 1 18 39c.633 0 1.253.052 1.865.129zm2.727.597L21.36 45.27l-2.025-1.519 2.626-4.203c.211.058.424.111.631.178zm-8.557-.184l2.63 4.209-2.025 1.519-1.233-5.547c.207-.067.417-.124.628-.181zM17 46l1-.75 1 .75v7h-2zm16 8v7h-4V47h-2v14H9V47H7v14H3v-7a14.9 14.9 0 0 1 4.393-10.606 14.982 14.982 0 0 1 4.133-2.914l1.833 8.25L15 47.5V55h6v-7.5l1.64 1.23 1.831-8.241C29.507 42.911 33 48.048 33 54zM18 37c-3.86 0-7-3.14-7-7s3.14-7 7-7a6.977 6.977 0 0 1 6.288 3.944 2.29 2.29 0 0 0 .428 4.276l.168.044C24.284 34.532 21.391 37 18 37zm7.22-7.716a.293.293 0 0 1 0-.568L35 26.169v5.662zM61 58.464A2.54 2.54 0 0 1 58.464 61a2.52 2.52 0 0 1-1.793-.743L39.414 43 43 39.414l17.257 17.257A2.52 2.52 0 0 1 61 58.464zm-8-11.878L50.914 44.5l1.586-1.586L54.586 45zm-4-7.172l2.086 2.086-1.586 1.586L47.414 41zm-10 1.172l-2-2V22h2v15.414L40.586 39z"></path><path d="M19 5h10v2H19zm0 4h10v2H19zm0 4h10v2H19zm8 4h2v2h-2zm-4 0h2v2h-2zm-4 0h2v2h-2z"></path></symbol>

	<symbol viewBox="0 0 64 64" xmlns="http://www.w3.org/2000/svg" id="endoscopy"><path d="M41.333 37h-.666A5.673 5.673 0 0 0 35 42.667V53h6v-8.75a1.252 1.252 0 0 1 2-1l1.8 1.35a7.037 7.037 0 0 0 4.199 1.4 7.03 7.03 0 0 0 5.601-2.801A22.128 22.128 0 0 0 59 30v-2.757A5.249 5.249 0 0 0 53.758 22a5.202 5.202 0 0 0-3.707 1.536l-1.137 1.136A1.122 1.122 0 0 1 47 23.879V15h-6v10.667c0 1.774.847 3.469 2.268 4.534l.266.199A3.684 3.684 0 0 1 45 33.333 3.671 3.671 0 0 1 41.333 37zm3.399-8.201l-.265-.199A3.684 3.684 0 0 1 43 25.667V17h2v6.879C45 25.6 46.4 27 48.121 27c.822 0 1.626-.333 2.207-.914l1.138-1.137A3.217 3.217 0 0 1 53.758 24 3.246 3.246 0 0 1 57 27.243V30c0 4.299-1.421 8.561-4 12a5.024 5.024 0 0 1-4.001 2A5.027 5.027 0 0 1 46 43l-1.8-1.35a3.269 3.269 0 0 0-1.95-.65A3.254 3.254 0 0 0 39 44.25V51h-2v-8.333A3.671 3.671 0 0 1 40.667 39h.666A5.673 5.673 0 0 0 47 33.333a5.694 5.694 0 0 0-2.268-4.534z"></path><path d="M49 32h2v2h-2zm3-6h2v2h-2zm-2 10h2v2h-2zm-3 4h2v2h-2zm6-10h2v2h-2z"></path><path d="M63 11H22.737A7.953 7.953 0 0 0 23 9c0-4.411-3.589-8-8-8S7 4.589 7 9a7.995 7.995 0 0 0 3.646 6.702C5.053 17.538 1 22.801 1 29v7c0 2.757 2.243 5 5 5h1v17.5c0 2.481 2.019 4.5 4.5 4.5 1.421 0 2.675-.675 3.5-1.706.825 1.031 2.079 1.706 3.5 1.706 2.481 0 4.5-2.019 4.5-4.5V57h40zM16.758 40.344l-3.129-3.129A5.525 5.525 0 0 1 12 33.281a5.59 5.59 0 0 1 2.225-4.45l.6-.45 1.103 1.379A9.495 9.495 0 0 1 18 35.668a9.4 9.4 0 0 1-1.242 4.676zM16 14.91V14c0-1.654 1.346-3 3-3h1.65A6.01 6.01 0 0 1 16 14.91zM9 9c0-3.309 2.691-6 6-6s6 2.691 6 6h-2c-2.757 0-5 2.243-5 5v.91c-2.833-.479-5-2.943-5-5.91zm2.5 52A2.502 2.502 0 0 1 9 58.5V24H7v15H6c-1.654 0-3-1.346-3-3v-7c0-6.279 4.85-11.438 11-11.949V26.5l-.975.731A7.6 7.6 0 0 0 10 33.281a7.51 7.51 0 0 0 2.215 5.348l3.354 3.354c-.112.125-.219.253-.338.373L14 43.586V58.5c0 1.379-1.121 2.5-2.5 2.5zM21 24v34.5c0 1.379-1.121 2.5-2.5 2.5S16 59.879 16 58.5V44.414l.645-.645A11.38 11.38 0 0 0 20 35.668c0-2.592-.892-5.133-2.511-7.157L16 26.649v-9.598c6.15.511 11 5.67 11 11.949v7c0 1.654-1.346 3-3 3h-1V24zm40 31H23V41h1c2.757 0 5-2.243 5-5v-7c0-6.199-4.053-11.462-9.646-13.298A8.042 8.042 0 0 0 21.917 13H61z"></path><path d="M29 15h2v2h-2zm4 0h2v2h-2zm4 0h2v2h-2zm-8 4h10v2H29zm0 4h10v2H29zm28 28h2v2h-2zm-4 0h2v2h-2zm-4 0h2v2h-2zm-24 0h2v2h-2zm0-4h2v2h-2zm0-4h2v2h-2z"></path></symbol>

	<symbol viewBox="0 0 300 300" xmlns="http://www.w3.org/2000/svg" id="extraction"><path d="M41.005 126.277a4.277 4.277 0 1 0 0-8.554 4.277 4.277 0 0 0 0 8.554zM72 49.073c2.211 0 4-1.791 4-4v-8c0-2.209-1.789-4-4-4s-4 1.791-4 4v8c0 2.209 1.789 4 4 4zm0 8c-2.211 0-4 1.791-4 4v8c0 2.209 1.789 4 4 4s4-1.791 4-4v-8c0-2.209-1.789-4-4-4zm-16 0h8c2.211 0 4-1.791 4-4s-1.789-4-4-4h-8c-2.211 0-4 1.791-4 4s1.789 4 4 4zm24 0h8c2.211 0 4-1.791 4-4s-1.789-4-4-4h-8c-2.211 0-4 1.791-4 4s1.789 4 4 4zm170 64c7.719 0 14-6.281 14-14s-6.281-14-14-14-14 6.281-14 14 6.281 14 14 14zm0-20c3.309 0 6 2.691 6 6s-2.691 6-6 6-6-2.691-6-6 2.691-6 6-6zm-36.995-50.796a4.277 4.277 0 1 0 0-8.554 4.277 4.277 0 0 0 0 8.554zm34.297 139.913l.412-3.724 4.754-25.08a3.94 3.94 0 0 0 .07-.744c0-10.789-8.777-19.568-19.566-19.568a19.56 19.56 0 0 0-9.398 2.408c-2.273 1.25-4.879 1.248-7.145.002a19.566 19.566 0 0 0-9.402-2.41c-10.789 0-19.566 8.779-19.566 19.568 0 .25.023.5.07.744l4.707 24.777.323 2.91H172.37a4.003 4.003 0 0 0-3.977 3.559l-2.582 23.258-8.914-15.604c-1.555-2.721-4.355-4.346-7.488-4.348h-.004c-3.133 0-5.938 1.623-7.496 4.348l-8.914 15.6-2.582-23.254a4.003 4.003 0 0 0-3.977-3.559h-18.79l.067-.607 4.754-25.08a3.94 3.94 0 0 0 .07-.744c0-10.789-8.777-19.568-19.566-19.568a19.56 19.56 0 0 0-9.398 2.408c-2.273 1.25-4.879 1.248-7.145.002a19.566 19.566 0 0 0-9.402-2.41c-10.789 0-19.566 8.779-19.566 19.568 0 .25.023.5.07.744l4.707 24.777.233 2.097C42.814 193.333 36 202.342 36 212.661v52.412c0 2.209 1.789 4 4 4h220c2.211 0 4-1.791 4-4v-52.412c0-10.344-6.941-19.465-16.698-22.471zm-40.275-41.117c1.941 0 3.859.49 5.543 1.418a15.34 15.34 0 0 0 14.859 0 11.515 11.515 0 0 1 5.543-1.418c6.262 0 11.375 5.002 11.562 11.221l-4.727 24.986-3.402 30.605-8.914-15.6c-1.555-2.723-4.355-4.348-7.492-4.348s-5.938 1.625-7.492 4.348l-8.918 15.602-3.445-30.91-4.68-24.684c.188-6.218 5.302-11.22 11.563-11.22zm-140 2c1.941 0 3.859.49 5.543 1.418a15.34 15.34 0 0 0 14.859 0 11.515 11.515 0 0 1 5.543-1.418c6.262 0 11.375 5.002 11.562 11.221l-4.727 24.986-3.402 30.605-8.914-15.6c-1.555-2.723-4.355-4.348-7.492-4.348s-5.938 1.625-7.492 4.348l-8.918 15.602-3.445-30.91-4.68-24.684c.188-6.218 5.302-11.22 11.563-11.22zm188.973 110H44v-48.412c0-6.273 3.807-11.826 9.376-14.262l2.499 22.49a7.298 7.298 0 0 0 5.785 6.344c.52.107 1.031.158 1.539.158 2.582 0 4.949-1.352 6.281-3.688l9.973-17.449c.043-.078.18-.316.547-.316s.504.238.547.316l9.973 17.449c1.59 2.793 4.633 4.182 7.82 3.529a7.298 7.298 0 0 0 5.785-6.348l2.637-23.812h16.098l2.422 21.811a7.286 7.286 0 0 0 5.781 6.35 7.29 7.29 0 0 0 7.824-3.529l9.969-17.445c.043-.08.18-.32.551-.32.367 0 .504.238.547.316l9.969 17.451c1.336 2.336 3.703 3.688 6.285 3.688.508 0 1.023-.053 1.539-.16a7.295 7.295 0 0 0 5.785-6.348l2.422-21.812h17.498l2.424 21.816a7.298 7.298 0 0 0 5.785 6.344c.52.107 1.031.158 1.539.158 2.582 0 4.949-1.352 6.281-3.688l9.973-17.449c.043-.078.18-.316.547-.316s.504.238.547.316l9.973 17.449c1.594 2.791 4.637 4.184 7.82 3.529a7.298 7.298 0 0 0 5.785-6.348l2.282-20.612c5.686 2.387 9.593 8.062 9.593 14.387v48.413z"></path><path d="M119.465 122.7c0 .25.023.5.07.746l4.277 22.49 3.305 29.736a6.99 6.99 0 0 0 5.539 6.088 6.992 6.992 0 0 0 7.508-3.383l9.422-15.857 9.062 15.855a6.972 6.972 0 0 0 7.496 3.387 6.998 6.998 0 0 0 5.551-6.088l3.254-29.434 4.324-22.795c.047-.246.07-.496.07-.746 0-3.178-.893-6.124-2.334-8.725 4.455-4.484 6.99-10.523 6.99-16.902C184 86.777 177.471 78 168.345 74.6 173.147 70.113 176 63.8 176 57.073V34.927c0-2.209-1.789-4-4-4s-4 1.791-4 4v22.146c0 4.627-2.032 8.956-5.425 11.963-2.264-4.692-7.027-7.963-12.575-7.963s-10.312 3.271-12.575 7.963C134.033 66.03 132 61.702 132 57.073V34.927c0-2.209-1.789-4-4-4s-4 1.791-4 4v22.146c0 6.726 2.854 13.039 7.656 17.526C122.53 78 116 86.776 116 97.073a23.911 23.911 0 0 0 6.236 16.099c-1.727 2.777-2.771 6.024-2.771 9.528zm47.578 22.354l-2.965 26.705-7.547-13.205c-1.477-2.59-4.137-4.137-7.121-4.139h-.004c-2.984 0-5.648 1.545-7.129 4.137l-7.547 13.209-3.012-27.012-4.25-22.395c.184-5.436 4.664-9.803 10.145-9.803 1.707 0 3.387.43 4.867 1.244a14.293 14.293 0 0 0 13.852 0 9.97 9.97 0 0 1 4.863-1.244c5.48 0 9.961 4.367 10.145 9.805zM150 69.073c3.309 0 6 2.691 6 6s-2.691 6-6 6-6-2.691-6-6 2.691-6 6-6zm-12.46 12.249c2.306 4.575 6.998 7.751 12.46 7.751s10.155-3.177 12.46-7.751c7.651 1.194 13.54 7.771 13.54 15.751 0 4.073-1.616 7.889-4.357 10.836-2.96-2.097-6.552-3.357-10.448-3.357-3.047 0-6.062.773-8.719 2.236-1.953 1.07-4.188 1.072-6.141.002a18.08 18.08 0 0 0-8.723-2.238c-3.582 0-6.903 1.076-9.719 2.875-2.463-2.876-3.894-6.503-3.894-10.353.001-7.981 5.889-14.558 13.541-15.752z"></path></symbol>

	<symbol xmlns="http://www.w3.org/2000/svg" viewBox="0 0 480 480" id="hospital"><path d="M176 176h128v16H176zm0 48h128v16H176zm0 48h128v16H176zm72-224V32h-16v16h-16v16h16v16h16V64h16V48z"/><path d="M456 464V240h8a8 8 0 008-8v-32a8 8 0 00-8-8H360v-48h16a8 8 0 008-8v-32a8 8 0 00-8-8h-16V8a8 8 0 00-8-8H128a8 8 0 00-8 8v88h-16a8 8 0 00-8 8v32a8 8 0 008 8h16v48H16a8 8 0 00-8 8v32a8 8 0 008 8h8v224H0v16h480v-16h-24zm-336 0H40v-32h48v-16H40v-32h48v-16H40v-32h48v-16H40v-32h48v-16H40v-32h80v224zm0-240H24v-16h96v16zm336-16v16h-96v-16h96zM136 16h208v80H136V16zm-24 112v-16h256v16H112zm120 336h-40V336h40v128zm56 0h-40V336h40v128zm56 0h-40V328a8 8 0 00-8-8H184a8 8 0 00-8 8v136h-40V144h208v320zm96-192h-48v16h48v32h-48v16h48v32h-48v16h48v32h-48v16h48v32h-80V240h80v32z"></path></symbol>

	<symbol xmlns="http://www.w3.org/2000/svg" viewBox="0 0 512 512" id="medical-history"><path d="M96 362.67h42.667v21.333H96zm0 42.66h64v21.333H96z"></path><path d="M502.402 456.139l-118.4-118.414V74.667c0-17.673-14.327-32-32-32H137.6C132.658 18.323 111.137 0 85.335 0S38.013 18.323 33.071 42.667h-1.069c-17.673 0-32 14.327-32 32V480c0 17.673 14.327 32 32 32h320c17.673 0 32-14.327 32-32v-49.73l72.139 72.13a32.597 32.597 0 0 0 23.147 9.6 32.711 32.711 0 0 0 23.142-9.596c12.768-12.783 12.756-33.497-.028-46.265zM85.335 21.333c13.932 0 25.778 8.906 30.172 21.333H55.164c4.393-12.427 16.239-21.333 30.171-21.333zM362.669 480c0 5.891-4.776 10.667-10.667 10.667h-320c-5.891 0-10.667-4.776-10.667-10.667V74.667C21.335 68.776 26.111 64 32.002 64h85.333v117.333c0 5.891-4.776 10.667-10.667 10.667s-10.667-4.776-10.667-10.667v-96H74.669v96c0 17.673 14.327 32 32 32s32-14.327 32-32V64h213.333c5.891 0 10.667 4.776 10.667 10.667V316.39l-32-32.004V96c0-5.891-4.776-10.667-10.667-10.667h-160v21.333h149.333V265.38l-59.232-29.55a10.664 10.664 0 0 0-9.556 0c-.572.286-1.099.625-1.595.994l-.017-.023-30.272 22.677-17.067-59.733a10.667 10.667 0 0 0-2.718-4.622c-4.167-4.165-10.92-4.163-15.085.003L144.919 224H64.002c-5.891 0-10.667 4.776-10.667 10.667v224c0 5.891 4.776 10.667 10.667 10.667h256c5.891 0 10.667-4.776 10.667-10.667v-81.724l32 31.996V480zm-83.222-190.282l-10.282-20.545 20.551 10.276-10.269 10.269zm29.888 65.893V448H74.669V245.333h74.667a10.67 10.67 0 0 0 7.531-3.104l19.2-19.2 16.341 57.227a10.667 10.667 0 0 0 16.661 5.61l32.422-24.316 25.487 50.983.027-.013a10.643 10.643 0 0 0 1.978 2.744l40.352 40.347zm-17.728-47.888l16.117-16.117 140.908 140.907-16.117 16.117-140.908-140.907zm195.734 179.616c-4.451 4.451-11.667 4.451-16.117 0L447.6 463.715l16.117-16.117 23.623 23.623c4.452 4.451 4.452 11.667.001 16.118z"></path></symbol>

	<symbol xmlns="http://www.w3.org/2000/svg" viewBox="0 0 512 512" id="pulse"><path d="M286.263 110.359l37.729-38.167C343.876 52.078 370.307 41 398.417 41c27.982 0 54.303 10.979 74.156 30.923 31.159 38.944 32.399 91.491 3.682 156.183a7.499 7.499 0 0 0 6.851 10.544 7.5 7.5 0 0 0 6.858-4.459c31.255-70.409 29.254-128.271-5.949-171.977a7.569 7.569 0 0 0-.507-.567C460.783 38.66 430.564 26 398.417 26c-32.148 0-62.367 12.66-85.091 35.647l-37.729 38.167a7.5 7.5 0 1 0 10.666 10.545zm158.628 115.297c-19.003-16.461-43.348-25.526-68.552-25.526-24.992 0-49.181 8.93-68.112 25.147-18.732 16.045-31.202 38.199-35.113 62.382a7.5 7.5 0 0 0 6.206 8.601c4.083.671 7.938-2.117 8.6-6.206 7.021-43.414 44.207-74.924 88.419-74.924 44.014 0 82.095 32.651 88.578 75.949a7.502 7.502 0 0 0 8.528 6.307 7.5 7.5 0 0 0 6.306-8.527c-3.662-24.457-16.042-46.902-34.86-63.203z"></path><path d="M504.462 306.49H417.54a7.502 7.502 0 0 0-6.254 3.361l-13.695 20.698-19.584-66.98a7.498 7.498 0 0 0-6.795-5.385c-3.178-.152-6.118 1.683-7.334 4.624L345.82 306.49H46.325c-.305 0-.606.019-.902.054H31.765c-9.245 0-16.766-7.485-16.766-16.686s7.521-16.685 16.766-16.685h10.218a529.403 529.403 0 0 0 12.794 20.996 7.5 7.5 0 0 0 12.628-8.093c-27.056-42.22-43.831-80.889-49.858-114.931-6.918-39.079.431-72.461 21.842-99.223C59.243 51.979 85.563 41 113.545 41c28.109 0 54.54 11.078 74.438 31.206l85.973 86.536a7.5 7.5 0 0 0 10.64-10.572l-85.96-86.522C175.912 38.66 145.693 26 113.545 26c-32.147 0-62.366 12.66-85.09 35.647-.179.181-.348.37-.507.567C3.513 92.551-4.955 130.08 2.779 173.761c4.592 25.938 14.955 54.215 30.911 84.413h-1.925C14.25 258.174 0 272.388 0 289.858c0 17.472 14.25 31.686 31.765 31.686h41.611c44.262 61.733 98.261 115.516 126.719 142.262C215.324 478.118 235.171 486 255.981 486s40.657-7.882 55.886-22.195a1157.168 1157.168 0 0 0 34.902-34.236 7.498 7.498 0 0 0-.122-10.605 7.498 7.498 0 0 0-10.605.121 1140.072 1140.072 0 0 1-34.447 33.79C289.158 464.563 272.959 471 255.981 471s-33.177-6.438-45.614-18.125c-26.711-25.104-76.229-74.346-118.47-131.385h258.937a7.5 7.5 0 0 0 6.931-4.635l11.829-28.613 18.136 62.028a7.5 7.5 0 1 0 13.452 2.035l20.388-30.814h82.892c4.142 0 7.499-3.357 7.499-7.5s-3.357-7.501-7.499-7.501z"></path><path d="M468.797 334.844a7.5 7.5 0 0 0-9.821 4.004c-13.998 33.266-46.435 54.761-82.636 54.761-36.231 0-68.677-21.52-82.662-54.823a7.499 7.499 0 1 0-13.829 5.808c16.329 38.888 54.204 64.015 96.491 64.015 42.252 0 80.116-25.099 96.461-63.942a7.503 7.503 0 0 0-4.004-9.823z"></path></symbol>

	<symbol viewBox="0 0 300 300" xmlns="http://www.w3.org/2000/svg" id="root"><path d="M68.364 43.204a4.277 4.277 0 1 0 0-8.554 4.277 4.277 0 0 0 0 8.554zM51.359 102c2.211 0 4-1.791 4-4v-8c0-2.209-1.789-4-4-4s-4 1.791-4 4v8c0 2.209 1.789 4 4 4zm0 8c-2.211 0-4 1.791-4 4v8c0 2.209 1.789 4 4 4s4-1.791 4-4v-8c0-2.209-1.789-4-4-4z"></path><path d="M256.113 153.617h-45.918c4.1-7.599 5.842-16.255 4.926-25.113v.002c-2.059-19.932-18.059-36.166-38.051-38.6-10.523-1.285-21 1.199-29.711 6.99-7.13-4.74-15.445-7.221-24-7.277v-8.024c9.117-1.859 16-9.938 16-19.596 0-11.027-8.973-20-20-20s-20 8.973-20 20c0 9.658 6.883 17.737 16 19.596v8.691c-18.908 3.351-33.783 19.058-35.762 38.217-.916 8.858.826 17.513 4.927 25.113H42.605c-8.406 0-15.246 6.838-15.246 15.244v77.895c0 8.406 6.84 15.244 15.246 15.244h60.754c2.211 0 4-1.791 4-4s-1.789-4-4-4H42.605c-3.996 0-7.246-3.25-7.246-7.244V168.86c0-3.994 3.25-7.244 7.246-7.244h47.423c2.57 3.085 4.49 6.266 5.675 9.465 3.023 8.127 4.703 14.783 4.73 18.74.121 18.541 2.285 33.084 6.434 43.229 2.002 4.889 6.542 8.198 11.848 8.819.218.037.416.13.645.13.108 0 .199-.053.305-.062.285.016.563.062.852.062 8.184 0 14.844-6.631 14.844-14.783V191.55c0-6.861 5.133-12.564 12-13.424 6.867.859 12 6.562 12 13.424v35.666c0 8.152 6.66 14.783 14.844 14.783.289 0 .566-.046.852-.062.106.008.197.062.305.062.229 0 .427-.093.645-.13 5.305-.621 9.845-3.931 11.847-8.821 4.148-10.143 6.312-24.686 6.434-43.225.027-3.959 1.707-10.615 4.73-18.746 1.185-3.195 3.105-6.375 5.677-9.461h51.421c3.996 0 7.246 3.25 7.246 7.244v77.895c0 3.994-3.25 7.244-7.246 7.244h-76.754c0-2.209-1.789-4-4-4s-4 1.791-4 4h-48c0-2.209-1.789-4-4-4s-4 1.791-4 4v12c0 2.209 1.789 4 4 4s4-1.791 4-4v-4h48v4c0 2.209 1.789 4 4 4s4-1.791 4-4v-4h76.754c8.406 0 15.246-6.838 15.246-15.244V168.86c-.003-8.405-6.843-15.243-15.249-15.243zM107.359 62c0-6.617 5.383-12 12-12s12 5.383 12 12-5.383 12-12 12-12-5.383-12-12zm6.914 168.021c-3.707-9.064-5.727-22.982-5.84-40.252-.035-5.012-1.793-12.236-5.23-21.473-1.562-4.211-4.051-8.336-7.391-12.256-6.34-7.439-9.27-16.926-8.254-26.715 1.562-15.156 13.028-27.68 27.801-30.915v133.313a5.96 5.96 0 0 1-1.086-1.702zm53.086-2.804v-35.666c0-11.127-8.43-20.34-19.613-21.428a3.583 3.583 0 0 0-.774 0c-11.184 1.088-19.613 10.301-19.613 21.428v35.666c0 2.732-1.646 5.077-4 6.151V162c0-13.234 10.766-24 24-24s24 10.766 24 24v71.368c-2.354-1.074-4-3.42-4-6.151zm31.551-71.178c-3.344 3.922-5.832 8.047-7.395 12.254-3.438 9.24-5.195 16.465-5.23 21.479-.113 17.268-2.133 31.186-5.84 40.248a5.965 5.965 0 0 1-1.086 1.703V162c0-17.645-14.355-32-32-32-9.56 0-18.131 4.237-24 10.905V97.62c7.519.066 14.816 2.407 20.914 6.876a3.994 3.994 0 0 0 2.363.773h1.445a3.99 3.99 0 0 0 2.363-.773c7.375-5.404 16.5-7.752 25.656-6.648 16.32 1.986 29.383 15.225 31.059 31.479v.002c1.016 9.786-1.913 19.273-8.249 26.71zM35.359 110h8c2.211 0 4-1.791 4-4s-1.789-4-4-4h-8c-2.211 0-4 1.791-4 4s1.789 4 4 4z"></path><path d="M59.359 110h8c2.211 0 4-1.791 4-4s-1.789-4-4-4h-8c-2.211 0-4 1.791-4 4s1.789 4 4 4zm166-52c7.719 0 14-6.281 14-14s-6.281-14-14-14-14 6.281-14 14 6.281 14 14 14zm0-20c3.309 0 6 2.691 6 6s-2.691 6-6 6-6-2.691-6-6 2.691-6 6-6zm43.005 48.651a4.276 4.276 0 1 0 0 8.553 4.276 4.276 0 0 0 0-8.553z"></path></symbol>

	<symbol viewBox="0 0 64 64" xmlns="http://www.w3.org/2000/svg" id="somatise"><path d="M32 1C18.215 1 7 12.215 7 26v12.535l3.048 2.031L11.087 52H19v11h23V50.6l1.765-.94A24.956 24.956 0 0 0 57 27.6V26C57 12.215 45.785 1 32 1zm4.132 17.504l-.743 1.301A29.175 29.175 0 0 1 27.08 29H16c-1.654 0-3-1.346-3-3 0-5.203 2.07-10.062 5.83-13.682 3.756-3.617 8.677-5.483 13.902-5.305C42.806 7.395 51 16.132 51 26.491V27a2.23 2.23 0 0 1-2.063 2.217l-4.181.299a19.347 19.347 0 0 0-12.303 5.617 2.942 2.942 0 0 1-2.094.867h-.398A2.964 2.964 0 0 1 27 33.039a2.97 2.97 0 0 1 1.24-2.41 31.16 31.16 0 0 0 8.885-9.832l.743-1.301zm-.797 19.16a4.292 4.292 0 0 1-.989-1.555 17.35 17.35 0 0 1 10.552-4.6l4.181-.299c.084-.006.161-.03.243-.041-.602 1.518-1.58 2.995-2.868 4.284-1.826 1.825-4.024 3.041-6.191 3.424-2.038.356-3.788-.07-4.928-1.213zM34 39.15c.579.56 1.252.995 2 1.303V61h-2zM55 27.6a22.959 22.959 0 0 1-12.177 20.295L40 49.4V61h-2V40.95c.293.031.59.052.896.052.553 0 1.126-.051 1.714-.155 2.567-.452 5.146-1.865 7.259-3.979 2.017-2.018 3.388-4.46 3.902-6.91A4.21 4.21 0 0 0 53 27v-.509C53 15.07 43.942 5.437 32.809 5.016c-5.744-.223-11.214 1.863-15.366 5.861C13.288 14.878 11 20.249 11 26c0 2.757 2.243 5 5 5h9.439A4.967 4.967 0 0 0 25 33.039 4.967 4.967 0 0 0 29.961 38h.398A4.93 4.93 0 0 0 32 37.703V61H21v-9c4.963 0 9-4.037 9-9v-1h-2v1c0 3.859-3.141 7-7 7h-8.087l-.961-10.566L9 37.465V26C9 13.317 19.317 3 32 3s23 10.317 23 23z"></path><path d="M22 17c-2.206 0-4 1.794-4 4h2c0-1.103.897-2 2-2zm-1 10h2c0-1.103.897-2 2-2v-2c-2.206 0-4 1.794-4 4zm10-7h2c0-1.103.897-2 2-2v-2c-2.206 0-4 1.794-4 4zm7 9c0-1.103.897-2 2-2v-2c-2.206 0-4 1.794-4 4zm9-6h2c0-2.206-1.794-4-4-4v2c1.103 0 2 .897 2 2zM24 10v2c1.103 0 2 .897 2 2h2c0-2.206-1.794-4-4-4zm16 3c0-2.206-1.794-4-4-4v2c1.103 0 2 .897 2 2zM23 57h2v2h-2zm0-4h2v2h-2z"></path></symbol>

	<symbol xmlns="http://www.w3.org/2000/svg" viewBox="0 0 512 512" id="stethoscope"><path d="M257.7 16.281C255.154 6.91 246.573 0 236.408 0h-19.031c-11.946 0-22.135 9.271-22.586 21.209-.475 12.55 9.598 22.912 22.044 22.912h19.573c8.751 0 16.328-5.121 19.892-12.524 11.976 4.559 20.281 16.246 20.281 29.292v53.389c0 49.39-40.323 89.57-89.888 89.57-49.564 0-89.887-40.181-89.887-89.57V60.889c0-13.778 9.14-25.822 21.959-29.875 3.44 7.716 11.183 13.107 20.161 13.107h19.031c11.946 0 22.135-9.271 22.586-21.209C181.017 10.362 170.945 0 158.498 0h-19.573c-9.97 0-18.417 6.649-21.14 15.745-20.776 4.791-35.98 23.523-35.98 45.144v169.874c0 22.884 16.854 42.207 39.095 45.748 2.916 8.785 11.225 15.141 20.994 15.141h22.69v21.62c0 9.538 6.098 17.683 14.608 20.754v34.842H71.775C32.198 368.867 0 400.972 0 440.434S32.198 512 71.775 512h50.642c39.577 0 71.776-32.104 71.776-71.566v-56.566h47.797c3.919 0 6.918-3.323 6.725-7.237a12.794 12.794 0 0 1-.012-.997c.1-3.746-3.081-6.766-6.827-6.766h-47.683v-34.842c8.51-3.072 14.608-11.216 14.608-20.754v-21.62h22.69c9.768 0 18.077-6.354 20.993-15.137 22.498-3.533 39.096-22.684 39.096-45.752V60.889c0-20.683-14.106-39.058-33.88-44.608zm-21.292 12.84h-19.573c-3.893 0-7.061-3.167-7.061-7.061s3.168-7.06 7.061-7.06h19.573a7.069 7.069 0 0 1 7.061 7.061c0 3.894-3.168 7.06-7.061 7.06zM138.925 15h19.573a7.069 7.069 0 0 1 7.061 7.061 7.068 7.068 0 0 1-7.061 7.061h-19.573a7.069 7.069 0 0 1-7.061-7.061A7.069 7.069 0 0 1 138.925 15zm-16.508 482H71.775C40.469 497 15 471.624 15 440.434s25.469-56.566 56.775-56.566h107.417v56.566h.001c0 31.19-25.47 56.566-56.776 56.566zm109.074-220.349h-30.19a7.5 7.5 0 0 0-7.5 7.5v29.12c0 3.894-3.188 7.061-7.108 7.061s-7.108-3.167-7.108-7.061v-29.12a7.5 7.5 0 0 0-7.5-7.5h-30.19c-3.919 0-7.108-3.167-7.108-7.061s3.188-7.061 7.108-7.061h89.596c3.919 0 7.108 3.167 7.108 7.061s-3.189 7.061-7.108 7.061zm45.089-45.888c0 14.951-10.319 27.469-24.582 30.586-3.279-8.093-11.236-13.818-20.508-13.818h-89.596c-9.268-.001-17.223 5.721-20.504 13.81-14.114-3.139-24.585-15.753-24.585-30.578V168.12c18.374 30.372 51.792 50.728 89.888 50.728 38.095 0 71.514-20.355 89.887-50.728v62.643zM446.879 343.84c-17.533 0-31.798 14.229-31.798 31.719 0 17.489 14.265 31.719 31.798 31.719 17.533 0 31.798-14.229 31.798-31.719 0-17.491-14.265-31.719-31.798-31.719zm0 48.437c-9.263 0-16.798-7.5-16.798-16.719s7.535-16.719 16.798-16.719 16.798 7.5 16.798 16.719-7.535 16.719-16.798 16.719z"></path><path d="M446.879 310.625c-28.447 0-52.692 18.281-61.539 43.682h-35.036c-9.553 0-17.71 6.077-20.793 14.561h-56.755c-4.114 0-7.253 3.492-7.048 7.601l.004.083c.005.109.008.218.01.326.076 3.873 3.19 6.989 7.063 6.989h56.726c3.083 8.483 11.24 14.561 20.793 14.561h35.624c9.296 24.556 33.111 42.063 60.951 42.063 35.908 0 65.121-29.129 65.121-64.933s-29.213-64.933-65.121-64.933zm-96.575 72.802c-3.92.001-7.108-3.166-7.108-7.06 0-3.894 3.188-7.061 7.108-7.061h31.755a65.277 65.277 0 0 0 .176 14.121h-31.931zm96.575 42.064c-27.637 0-50.12-22.399-50.12-49.933s22.483-49.934 50.12-49.934c27.637 0 50.121 22.401 50.121 49.935s-22.484 49.932-50.121 49.932z"></path></symbol>

	<symbol xmlns="http://www.w3.org/2000/svg" viewBox="0 0 300 300" id="tooth-cross"><path d="M40 118.65a4.28 4.28 0 100 8.55 4.28 4.28 0 000-8.55zM59 54a4 4 0 004-4v-8a4 4 0 10-8 0v8a4 4 0 004 4zM63 74v-8a4 4 0 10-8 0v8a4 4 0 108 0zM51 54h-8a4 4 0 100 8h8a4 4 0 100-8zM67 62h8a4 4 0 100-8h-8a4 4 0 100 8zM237 214c-7.72 0-14 6.28-14 14s6.28 14 14 14 14-6.28 14-14-6.29-14-14-14zm0 20a6 6 0 110-12.01 6 6 0 010 12.01zM260 162.65a4.28 4.28 0 100 8.55 4.28 4.28 0 000-8.55zM230.37 121.38c-2.51-24.43-22.02-44.33-46.4-47.3a53.25 53.25 0 00-38.24 9.97c-.4.3-.99.3-1.4 0a53.3 53.3 0 00-38.24-9.98c-24.38 2.98-43.89 22.88-46.4 47.31a53.1 53.1 0 0012.34 40.1 42.35 42.35 0 017.6 12.6c3.8 10.27 5.9 18.7 5.93 23.76.16 23.03 2.82 41.06 7.92 53.6A17.14 17.14 0 00109.53 262c9.63 0 17.46-7.83 17.46-17.46V200c0-9.93 8.08-18 18-18s18 8.07 18 18v44.49c0 9.65 7.86 17.51 17.52 17.51 7.15 0 13.47-4.16 16.09-10.6 5.08-12.52 7.74-30.54 7.9-53.56.02-2.74.62-6.41 1.8-10.9 2.43-9.27 7.16-18.73 14.44-28.93a53.55 53.55 0 009.63-36.63zm-16.14 31.98c-7.86 11-12.98 21.32-15.66 31.54-1.35 5.14-2.05 9.47-2.07 12.88-.15 21.7-2.68 39.2-7.32 50.61a9.34 9.34 0 01-8.67 5.6 9.52 9.52 0 01-9.51-9.5V200c0-14.34-11.67-26-26-26s-26 11.66-26 26v44.53a9.48 9.48 0 01-9.47 9.47 9.3 9.3 0 01-8.64-5.58c-4.64-11.42-7.18-28.93-7.32-50.63-.06-7.65-3.53-18.62-6.43-26.48a50.41 50.41 0 00-9-15 45.16 45.16 0 01-10.49-34.11A45.47 45.47 0 01107.05 82a45.28 45.28 0 0132.53 8.48 9.26 9.26 0 0010.9 0A45.29 45.29 0 01183 82.01a45.46 45.46 0 0139.4 40.19 45.52 45.52 0 01-8.18 31.16z"/><path d="M175.23 118l-16.23.24v-16.48a7.77 7.77 0 00-7.77-7.76h-12.47a7.77 7.77 0 00-7.77 7.76l.24 16.24h-16.47a7.77 7.77 0 00-7.77 7.76v12.48a7.77 7.77 0 007.76 7.76l16.24-.24v16.48a7.77 7.77 0 007.76 7.76h12.48a7.77 7.77 0 007.76-7.76l-.23-16.24h16.47a7.77 7.77 0 007.77-7.76v-12.48a7.77 7.77 0 00-7.77-7.76zm-16.47 20a7.77 7.77 0 00-7.77 7.76l.24 16.24-12.24.24v-16.48a7.77 7.77 0 00-7.76-7.76l-16.24.24-.23-12.24h16.47a7.77 7.77 0 007.77-7.76l-.24-16.24 12.23-.24v16.48a7.77 7.77 0 007.77 7.76H175l.23 12zM147 70a4 4 0 004-4V42a4 4 0 10-8 0v24a4 4 0 004 4zM163 66c1.02 0 2.04-.4 2.82-1.17l16-16a4 4 0 10-5.65-5.66l-16 16A4 4 0 00163 66zM128.17 64.83a3.99 3.99 0 005.65 0 4 4 0 000-5.66l-16-16a4 4 0 10-5.65 5.66z"></path></symbol>

	<symbol xmlns="http://www.w3.org/2000/svg" viewBox="0 0 300 300" id="tooth-protect"><path d="M42.92 110.93a4.28 4.28 0 10-8.56 0 4.28 4.28 0 008.56 0zM245.63 146H225.4c.32-3.76.3-7.5-.08-11.14-2.82-27.29-24.7-49.51-52.03-52.84a59.94 59.94 0 00-31.65 4.67A59.88 59.88 0 00110 82.02c-27.33 3.33-49.21 25.55-52.03 52.84-.38 3.64-.4 7.37-.08 11.14H41.63a4 4 0 00-4 4v112a4 4 0 004 4h204a4 4 0 004-4V150a4 4 0 00-4-4zm-183.22 8a4 4 0 003.94-4.64c-.74-4.64-.9-9.24-.43-13.68 2.43-23.61 21.38-42.84 45.04-45.72 10-1.21 20 .42 28.93 4.74 1.1.54 2.39.54 3.49 0a51.84 51.84 0 0128.93-4.74c23.66 2.88 42.6 22.11 45.04 45.72.46 4.44.31 9.04-.43 13.68a4 4 0 003.95 4.64h20.77v7.62h-37.17a43.24 43.24 0 004.93-25.12c-2.06-19.93-18.06-36.16-38.05-38.6a43.9 43.9 0 00-29.71 7 43.9 43.9 0 00-29.72-7c-19.99 2.44-35.99 18.67-38.05 38.6a43.23 43.23 0 004.93 25.12H45.64V154zm79.61 24.12a3.58 3.58 0 00-.77 0 21.53 21.53 0 00-19.62 21.43v35.67a6.82 6.82 0 01-6.84 6.78 6.7 6.7 0 01-6.24-3.98c-3.7-9.06-5.73-22.98-5.84-40.25-.04-5.01-1.8-12.24-5.23-21.47a41.08 41.08 0 00-7.4-12.26 35.2 35.2 0 01-8.25-26.72c1.68-16.25 14.74-29.49 31.06-31.47a35.94 35.94 0 0125.66 6.64 4 4 0 002.36.78h1.45c.85 0 1.68-.27 2.36-.78a35.95 35.95 0 0125.66-6.64c16.32 1.98 29.38 15.22 31.05 31.47a35.2 35.2 0 01-8.25 26.72 41.1 41.1 0 00-7.39 12.25c-3.44 9.24-5.2 16.47-5.23 21.48-.11 17.27-2.13 31.19-5.84 40.25a6.7 6.7 0 01-6.24 3.98 6.82 6.82 0 01-6.85-6.78v-35.67a21.53 21.53 0 00-19.6-21.43zM241.63 258h-196v-88.38H84.3a32.75 32.75 0 015.68 9.46c3.02 8.13 4.7 14.79 4.73 18.74.12 18.54 2.28 33.09 6.43 43.23A14.6 14.6 0 00114.8 250c8.18 0 14.84-6.63 14.84-14.78v-35.67c0-6.86 5.14-12.56 12-13.42 6.87.86 12 6.56 12 13.42v35.67c0 8.15 6.66 14.78 14.85 14.78a14.6 14.6 0 0013.65-8.95c4.14-10.14 6.3-24.69 6.43-43.23.03-3.95 1.7-10.61 4.73-18.74 1.19-3.2 3.1-6.38 5.68-9.46h42.66zM61.63 50a4 4 0 004-4v-8a4 4 0 10-8 0v8a4 4 0 004 4zM61.63 58a4 4 0 00-4 4v8a4 4 0 108 0v-8a4 4 0 00-4-4zM45.63 58h8a4 4 0 100-8h-8a4 4 0 100 8zM69.64 58h8a4 4 0 100-8h-8a4 4 0 100 8zM251.63 62c-7.71 0-14 6.28-14 14s6.29 14 14 14 14-6.28 14-14-6.28-14-14-14zm0 20a6 6 0 11.02-12.01 6 6 0 01-.02 12.01zM202.64 47.2a4.28 4.28 0 100-8.55 4.28 4.28 0 000 8.55z"/><path d="M166.85 138.51a3.68 3.68 0 10-7.35 0 3.68 3.68 0 007.35 0zM118.53 134.84a3.68 3.68 0 100 7.35 3.68 3.68 0 000-7.35zM157.33 155.13a4 4 0 00-4.98 2.68 3.97 3.97 0 01-4.95 2.66 4 4 0 00-2.3 7.66 11.95 11.95 0 0014.91-8.02 4 4 0 00-2.68-4.98z"></path></symbol>

	<symbol xmlns="http://www.w3.org/2000/svg" viewBox="0 0 512 512" id="dentist"><path d="M486.4 0H25.6A25.6 25.6 0 000 25.6V384a25.6 25.6 0 0025.6 25.6h162.13v34.13a42.72 42.72 0 00-42.66 42.67v17.06a8.53 8.53 0 008.53 8.54h204.8a8.53 8.53 0 008.53-8.54V486.4a42.72 42.72 0 00-42.66-42.67V409.6h78.95a16.85 16.85 0 0010.17 3.45c.8-.04 1.6-.15 2.39-.3l50.14 86.84a24.5 24.5 0 0015 11.56 24.43 24.43 0 0018.74-2.47 24.86 24.86 0 009.06-33.74l-37.74-65.34h15.42A25.6 25.6 0 00512 384V25.6A25.6 25.6 0 00486.4 0zM17.07 25.6a8.53 8.53 0 018.53-8.53h460.8a8.53 8.53 0 018.53 8.53v298.67h-33.28A89 89 0 00338.48 216.1c2.25-7.69 5.3-15.13 9.12-22.18 2.17-4.11 4.56-8.06 6.94-12a151.92 151.92 0 0012.23-23.18c11.75-30.02 14.84-71.2-11.78-96.71-25.3-24.36-69.82-25.73-98.99-4.26-29.16-21.46-73.68-20.11-98.99 4.2-26.7 25.54-23.63 66.73-11.86 96.74a153.05 153.05 0 0012.35 23.4c2.35 3.9 4.72 7.79 6.89 11.85a99.05 99.05 0 0111.94 35.57 281.31 281.31 0 007.58 44.6c2.88 10.75 8.9 33.06 28.89 33.06 6.4 0 23.46 0 34.34-78.08 1.78-12.53 6.17-14.28 8.87-14.7 2.84.48 7.06 2.3 8.78 14.66 7.23 51.98 17.06 68.13 23.48 73.78a88.65 88.65 0 004.12 21.4H17.07V25.6zm400.47 368.02l-2.04 1.2c-.06 0-.12 0-.18.05a.87.87 0 01-.14.12l-1.78 1.03-8.69-14.98a85.05 85.05 0 0031.9-18.2l8.54 14.84-27.6 15.94zM281.68 226.75c-3.1-22.28-15.14-28.29-24.7-29.4-.36 0-.73.03-1.1.09a6.94 6.94 0 00-.85-.08c-9.54 1.06-21.59 7.02-24.75 29.4-6.66 47.74-15.4 62.06-17.45 63.4-6.39 0-9.75-10.55-12.43-20.48a268.32 268.32 0 01-7.09-42.03 115.7 115.7 0 00-13.84-41.67c-2.3-4.33-4.82-8.53-7.34-12.65-4.28-6.6-8-13.57-11.09-20.8-9.31-23.75-12.87-58.47 7.73-78.2 20.6-19.74 59.39-19.37 81.45.78.09.08.2.1.3.17.08.08.12.2.22.27.26.2 25.68 20.17 31.94 41.48a8.53 8.53 0 1016.37-4.81 106.11 106.11 0 00-29.48-42.9c22.54-14.12 55.3-12.6 73.63 5.02 20.53 19.7 17.42 53.3 7.68 78.2a136.89 136.89 0 01-10.95 20.58 246.27 246.27 0 00-7.42 12.8 116.18 116.18 0 00-13.84 41.81l-.18 1.48a89.04 89.04 0 00-27.3 43.52 285.98 285.98 0 01-9.5-45.98zm59.37 7.2a72.14 72.14 0 01105.74 81.13 72.12 72.12 0 01-132.13 17.4 71.7 71.7 0 0126.4-98.52zM17.07 384v-42.67h283.01a88.31 88.31 0 0087.18 43.62l4.42 7.59H25.6a8.54 8.54 0 01-8.53-8.54zm332.8 102.4v8.53H162.13v-8.53a25.6 25.6 0 0125.6-25.6h136.54a25.6 25.6 0 0125.6 25.6zm-42.67-42.67H204.8V409.6h102.4v34.13zm183.89 50.21a7.57 7.57 0 01-10.35-2.85l-49.5-85.69 13.2-7.63 49.49 85.7a7.68 7.68 0 01-2.84 10.47zM494.93 384a8.54 8.54 0 01-8.53 8.54h-25.27l-2.57-4.41a17.3 17.3 0 001.42-19.06l-11.3-19.53a89.25 89.25 0 005.38-8.2h40.87V384z"/><path d="M238.93 375.46h34.14a8.53 8.53 0 100-17.06h-34.14a8.54 8.54 0 100 17.06zM102.4 512c9.42 0 17.06-7.64 17.06-17.07v-8.53A59.73 59.73 0 000 486.4v8.53C0 504.36 7.64 512 17.07 512h85.33zm-85.33-25.6a42.75 42.75 0 0134.13-41.81v16.21a8.53 8.53 0 0017.07 0V444.6a42.74 42.74 0 0134.13 41.8v8.54H17.07v-8.53zM184.32 73.3a45.66 45.66 0 00-21.7 49.4 8.53 8.53 0 1016.7-3.53 28.73 28.73 0 0113.23-30.93 8.53 8.53 0 00-8.23-14.95zM42.67 34.13a8.53 8.53 0 00-8.54 8.54v8.53a8.53 8.53 0 1017.07 0v-8.53a8.53 8.53 0 00-8.53-8.54zM42.67 76.8a8.53 8.53 0 00-8.54 8.53v51.2a8.53 8.53 0 0017.07 0v-51.2a8.53 8.53 0 00-8.53-8.53zM332.8 315.73a8.53 8.53 0 008.42-9.94c-6.88-41.27 31.31-49.15 35.69-49.91a8.53 8.53 0 00-2.84-16.82 73.19 73.19 0 00-28.16 12.17 54.99 54.99 0 00-21.53 57.38 8.53 8.53 0 008.42 7.12z"></path></symbol>

</svg>